<?xml version="1.0" standalone="no"?>
<!DOCTYPE svg PUBLIC "-//W3C//DTD SVG 1.1//EN" "http://www.w3.org/Graphics/SVG/1.1/DTD/svg11.dtd" >
<svg xmlns="http://www.w3.org/2000/svg">
    <defs>
        <font id="SanFranciscoText-MediumItalic">
            <font-face font-family="SanFranciscoText-MediumItalic"
                       units-per-em="2048"
                       ascent="1950"
                       descent="-494"
                       bbox="-469 -487 2171 1971"
                    />
            <missing-glyph horiz-adv-x="0" />
            
            <glyph glyph-name="!" unicode="&#x21;" horiz-adv-x="605" d=" M380,1366 L605,1366 L406,429 L246,429 M133,125 Q133,190 176,232 Q219,274 285,274 Q352,274 395.5,233 Q439,192 439,128 Q439,64 395,23 Q351,-18 283,-18 Q218,-18 175.5,22.5 Q133,63 133,125"/> 
            <glyph glyph-name="&quot;" unicode="&#x22;" horiz-adv-x="1016" d=" M374,1366 L598,1366 L478,841 L312,841 M793,1366 L1016,1366 L896,841 L731,841"/> 
            <glyph glyph-name="#" unicode="&#x23;" horiz-adv-x="1305" d=" M1256,836 L1045,836 L936,547 L1136,547 L1086,379 L885,379 Q867,334 819.5,193 Q772,52 750,0 L586,0 L720,379 L458,379 Q439,332 391,191.5 Q343,51 322,0 L158,0 L292,379 L91,379 L141,547 L344,547 L453,836 L260,836 L310,1004 L504,1004 L634,1366 L799,1366 L668,1004 L932,1004 L1057,1366 L1221,1366 L1091,1004 L1305,1004 M618,836 L509,547 L772,547 L880,836"/> 
            <glyph glyph-name="$" unicode="&#x24;" horiz-adv-x="1135" d=" M387,-129 L414,-3 Q260,31 175,125.5 Q90,220 90,343 Q90,367 91,377 L266,377 Q264,367 264,364 Q264,297 314,239 Q364,181 448,156 L553,632 Q533,639 508,650 Q221,771 221,1006 Q221,1124 285,1213 Q349,1302 454,1346.5 Q559,1391 688,1391 Q714,1391 718,1390 L744,1513 L874,1513 L843,1371 Q974,1338 1054.5,1251.5 Q1135,1165 1135,1032 Q1135,1030 1134,1020 L1134,1010 L971,1010 Q972,1020 971,1032 Q964,1096 920,1143.5 Q876,1191 809,1214 L710,774 Q713,773 726.5,767 Q740,761 744,760 Q808,734 852,712 Q896,690 941.5,657.5 Q987,625 1014.5,588.5 Q1042,552 1059,500.5 Q1076,449 1076,387 Q1075,195 935,87 Q795,-21 571,-21 Q549,-21 538,-20 L515,-129 M894,364 Q894,445 840.5,494 Q787,543 683,584 Q679,585 671,589 L571,134 L586,134 Q722,134 808,196.5 Q894,259 894,364 M409,1018 Q409,951 450.5,907.5 Q492,864 577,827 Q582,824 592,820 L685,1236 L674,1236 Q608,1236 549.5,1213 Q491,1190 450,1139 Q409,1088 409,1018"/> 
            <glyph glyph-name="%" unicode="&#x25;" horiz-adv-x="1508" d=" M129,1055 L134,1090 Q153,1218 233,1297 Q313,1376 429,1376 Q547,1376 615,1293.5 Q683,1211 683,1082 Q683,1038 677,1002 L672,967 Q653,842 573,760 Q493,678 374,678 Q255,678 188.5,759.5 Q122,841 122,973 Q122,1017 129,1055 M1096,377 L1093,349 Q1087,316 1087,280 Q1087,209 1117,165.5 Q1147,122 1206,122 Q1267,122 1307,168.5 Q1347,215 1358,297 L1362,330 Q1367,367 1367,392 Q1367,465 1338,510 Q1309,555 1250,555 Q1189,555 1148.5,506.5 Q1108,458 1096,377 M272,1065 L268,1038 Q263,1001 263,968 Q263,898 292.5,854 Q322,810 381,810 Q442,810 482,856.5 Q522,903 533,985 L538,1018 Q542,1062 542,1081 Q542,1153 512.5,1198.5 Q483,1244 425,1244 Q364,1244 324,1195.5 Q284,1147 272,1065 M953,367 L958,402 Q978,530 1058,609 Q1138,688 1254,688 Q1372,688 1440,605.5 Q1508,523 1508,394 Q1508,354 1501,314 L1496,278 Q1478,153 1397.5,71.5 Q1317,-10 1198,-10 Q1079,-10 1013,71.5 Q947,153 947,285 Q947,326 953,367 M340,0 L168,0 L731,683 L1293,1366 L1466,1366 L903,683"/> 
            <glyph glyph-name="&amp;" unicode="&#x26;" horiz-adv-x="1334" d=" M1155,748 L1334,748 Q1322,646 1312,595 Q1292,490 1247,400.5 Q1202,311 1124,223 L1280,0 L1059,-1 L986,103 Q803,-18 585,-18 Q473,-18 383.5,13 Q294,44 238,97 Q182,150 152.5,219 Q123,288 123,367 Q123,445 152.5,510 Q182,575 237.5,624.5 Q293,674 352,708.5 Q411,743 491,778 L518,790 Q457,884 427,952.5 Q397,1021 397,1093 Q397,1235 504.5,1316.5 Q612,1398 767,1398 Q924,1398 1019,1317.5 Q1114,1237 1114,1111 Q1114,1058 1096.5,1010.5 Q1079,963 1051,927.5 Q1023,892 979.5,859 Q936,826 894,802.5 Q852,779 798,754 Q797,753 788.5,749 Q780,745 771,740.5 Q762,736 761,736 L1025,371 Q1112,488 1138,627 Q1151,680 1155,748 M600,147 Q682,147 761,172 Q840,197 895,243 L602,658 L580,649 Q322,540 322,378 Q322,286 392.5,216.5 Q463,147 600,147 M582,1080 Q582,991 679,860 Q680,861 689.5,864.5 Q699,868 700,868 Q934,961 934,1100 Q934,1166 884,1202.5 Q834,1239 763,1239 Q689,1239 635.5,1197.5 Q582,1156 582,1080"/> 
            <glyph glyph-name="'" unicode="&#x27;" horiz-adv-x="598" d=" M374,1366 L598,1366 L478,841 L312,841"/> 
            <glyph glyph-name="(" unicode="&#x28;" horiz-adv-x="772" d=" M584,1364 L772,1364 Q729,1326 684,1274 Q639,1222 583,1131.5 Q527,1041 484,938 Q441,835 409.5,691 Q378,547 374,393 Q365,174 397.5,25 Q430,-124 499,-264 L309,-264 Q241,-139 199.5,26.5 Q158,192 168,377 Q173,559 213,722.5 Q253,886 316,1006.5 Q379,1127 445,1213.5 Q511,1300 584,1364"/> 
            <glyph glyph-name=")" unicode="&#x29;" horiz-adv-x="614" d=" M265,1364 L453,1364 Q614,1065 597,735 Q592,553 551.5,387 Q511,221 448,98 Q385,-25 318.5,-114 Q252,-203 181,-264 L-8,-264 Q37,-220 81,-167 Q125,-114 182,-21.5 Q239,71 281.5,173.5 Q324,276 355,420.5 Q386,565 390,719 Q400,936 366.5,1086.5 Q333,1237 265,1364"/> 
            <glyph glyph-name="*" unicode="&#x2A;" horiz-adv-x="1020" d=" M888,678 L650,895 L630,576 L481,598 L549,909 L261,765 L204,913 L511,1007 L243,1182 L336,1307 L574,1088 L595,1409 L744,1387 L674,1074 L963,1220 L1020,1072 L712,979 L981,803"/> 
            <glyph glyph-name="+" unicode="&#x2B;" horiz-adv-x="1125" d=" M1094,459 L695,459 L617,22 L440,22 L517,459 L118,459 L148,639 L547,639 L622,1059 L799,1059 L725,639 L1125,639"/> 
            <glyph glyph-name="," unicode="&#x2C;" horiz-adv-x="447" d=" M121,-400 L-51,-400 L204,206 L447,206"/> 
            <glyph glyph-name="-" unicode="&#x2D;" horiz-adv-x="800" d=" M768,466 L136,466 L167,659 L800,659"/> 
            <glyph glyph-name="." unicode="&#x2E;" horiz-adv-x="391" d=" M87,134 Q87,203 130.5,246.5 Q174,290 237,290 Q304,290 347.5,246.5 Q391,203 391,134 Q391,67 347.5,24.5 Q304,-18 237,-18 Q174,-18 130.5,25 Q87,68 87,134"/> 
            <glyph glyph-name="/" unicode="&#x2F;" horiz-adv-x="853" d=" M124,-284 L-62,-284 L666,1420 L853,1420"/> 
            <glyph glyph-name="0" unicode="&#x30;" horiz-adv-x="1175" d=" M402,774 L385,670 Q369,586 369,498 Q369,333 429,247.5 Q489,162 602,162 Q731,162 818,270 Q905,378 942,590 L958,695 Q975,789 975,872 Q975,1024 913.5,1114 Q852,1204 737,1204 Q488,1204 402,774 M185,706 L200,799 Q245,1075 383,1233.5 Q521,1392 739,1392 Q945,1392 1060,1253 Q1175,1114 1175,849 Q1175,746 1159,659 L1142,565 Q1118,433 1073.5,327 Q1029,221 963.5,140.5 Q898,60 806,16.5 Q714,-27 603,-27 Q396,-27 282.5,109.5 Q169,246 169,508 Q169,614 185,706"/> 
            <glyph glyph-name="1" unicode="&#x31;" horiz-adv-x="836" d=" M596,0 L386,0 L593,1152 L579,1152 L253,968 L284,1178 L620,1366 L836,1366"/> 
            <glyph glyph-name="2" unicode="&#x32;" horiz-adv-x="1100" d=" M435,1007 L241,1007 L241,1021 Q247,1181 370,1288 Q493,1395 687,1395 Q871,1395 985.5,1296 Q1100,1197 1100,1032 Q1100,964 1079.5,901.5 Q1059,839 1016.5,780 Q974,721 930.5,674.5 Q887,628 820,566 L419,198 L416,184 L1024,184 L993,0 L99,0 L125,159 L687,691 Q735,736 764,766.5 Q793,797 828.5,841.5 Q864,886 881.5,930 Q899,974 899,1017 Q899,1096 840.5,1154 Q782,1212 677,1212 Q572,1212 507.5,1153.5 Q443,1095 436,1012"/> 
            <glyph glyph-name="3" unicode="&#x33;" horiz-adv-x="1101" d=" M477,627 L505,806 Q570,803 607,803 Q731,803 817.5,860 Q904,917 903,1021 Q903,1112 836,1164.5 Q769,1217 669,1217 Q575,1217 519.5,1173.5 Q464,1130 449,1067 L250,1067 Q264,1214 380,1304.5 Q496,1395 676,1395 Q757,1395 830.5,1375 Q904,1355 965.5,1315 Q1027,1275 1063.5,1207 Q1100,1139 1101,1051 Q1101,976 1074.5,913 Q1048,850 1004.5,809.5 Q961,769 908,744.5 Q855,720 799,715 L797,701 Q916,675 982,590 Q1048,505 1047,382 Q1047,259 982.5,165.5 Q918,72 807.5,23.5 Q697,-25 559,-25 Q356,-25 229.5,76 Q103,177 103,329 Q103,351 107,375 L304,375 Q303,369 303,353 Q303,278 376,219 Q449,160 565,160 Q683,160 760,223.5 Q837,287 837,390 Q837,494 760,557.5 Q683,621 567,625"/> 
            <glyph glyph-name="4" unicode="&#x34;" horiz-adv-x="1177" d=" M833,1366 L1135,1366 L977,457 L1177,457 L1149,275 L948,275 L898,0 L701,0 L751,275 L105,275 L131,461 Q225,599 358.5,773 Q492,947 577.5,1053 Q663,1159 833,1366 M337,457 L781,457 L914,1182 L900,1182 Q886,1165 821.5,1085 Q757,1005 735,977.5 Q713,950 656.5,880 Q600,810 569.5,770.5 Q539,731 493.5,672.5 Q448,614 411,564 Q374,514 339,466"/> 
            <glyph glyph-name="5" unicode="&#x35;" horiz-adv-x="1140" d=" M151,372 L340,372 Q338,358 338,352 Q338,279 403.5,217.5 Q469,156 582,156 Q714,156 802.5,243.5 Q891,331 891,468 Q891,587 822,654.5 Q753,722 644,722 Q576,722 511,695.5 Q446,669 409,620 L216,620 L394,1366 L1140,1366 L1113,1181 L541,1181 L441,787 L456,787 Q494,835 567.5,862 Q641,889 719,889 Q881,889 987,778 Q1093,667 1094,479 Q1094,375 1059,283 Q1024,191 959,122.5 Q894,54 795,14 Q696,-26 577,-26 Q470,-26 384.5,5.5 Q299,37 249,87.5 Q199,138 172.5,196.5 Q146,255 146,315 Q146,345 151,372"/> 
            <glyph glyph-name="6" unicode="&#x36;" horiz-adv-x="1172" d=" M624,-14 Q410,-14 291.5,131 Q173,276 173,527 Q173,806 261,1014 Q426,1386 777,1386 Q867,1386 943,1357 Q1019,1328 1068,1280 Q1117,1232 1144,1173.5 Q1171,1115 1172,1055 Q1172,1038 1171,1031 L986,1031 Q978,1103 916,1152 Q854,1201 764,1201 Q618,1201 519.5,1073.5 Q421,946 393,729 L408,729 Q445,793 517.5,838.5 Q590,884 699,884 Q864,884 979,772.5 Q1094,661 1094,474 Q1094,262 962.5,124 Q831,-14 624,-14 M639,719 Q522,719 450.5,639 Q379,559 379,442 Q379,323 448.5,243 Q518,163 629,163 Q749,163 819.5,247.5 Q890,332 890,464 Q890,580 819,649.5 Q748,719 639,719"/> 
            <glyph glyph-name="7" unicode="&#x37;" horiz-adv-x="1135" d=" M243,1366 L1135,1366 L1113,1190 L361,0 L131,0 L882,1167 L884,1181 L218,1181"/> 
            <glyph glyph-name="8" unicode="&#x38;" horiz-adv-x="1167" d=" M876,706 Q922,692 962.5,666.5 Q1003,641 1040,602 Q1077,563 1099,504 Q1121,445 1121,375 Q1121,278 1079.5,200 Q1038,122 967.5,74 Q897,26 809.5,0.5 Q722,-25 625,-25 Q553,-25 485,-11.5 Q417,2 353,32.5 Q289,63 241,106.5 Q193,150 164.5,216 Q136,282 136,361 Q136,430 158.5,489 Q181,548 217,589 Q253,630 300.5,660 Q348,690 395.5,706.5 Q443,723 490,728 L493,743 Q296,845 296,1034 Q296,1144 358,1227.5 Q420,1311 519.5,1353 Q619,1395 739,1395 Q854,1395 949.5,1356 Q1045,1317 1106,1236.5 Q1167,1156 1167,1047 Q1167,911 1079,823 Q991,735 879,721 M625,147 Q748,147 831.5,216 Q915,285 915,397 Q915,508 832,571.5 Q749,635 636,635 Q515,635 432,562.5 Q349,490 349,379 Q349,269 429.5,208 Q510,147 625,147 M724,804 Q828,804 897,866.5 Q966,929 966,1026 Q966,1121 901.5,1174.5 Q837,1228 742,1228 Q637,1228 568,1164 Q499,1100 499,1005 Q499,913 563.5,858.5 Q628,804 724,804"/> 
            <glyph glyph-name="9" unicode="&#x39;" horiz-adv-x="1136" d=" M692,1389 Q901,1389 1018.5,1253.5 Q1136,1118 1136,867 Q1136,659 1086,471 Q955,-13 562,-13 Q387,-13 270,84.5 Q153,182 150,320 Q148,334 150,348 L340,348 Q342,270 408.5,221 Q475,172 575,172 Q715,172 804,295.5 Q893,419 925,650 L912,650 Q881,588 803.5,540.5 Q726,493 620,493 Q515,493 426,540.5 Q337,588 280.5,683.5 Q224,779 224,906 Q224,1110 355.5,1249.5 Q487,1389 692,1389 M675,660 Q794,660 864.5,740.5 Q935,821 935,937 Q935,1057 867,1133.5 Q799,1210 689,1210 Q576,1210 504,1125 Q432,1040 432,914 Q432,800 500,730 Q568,660 675,660"/> 
            <glyph glyph-name=":" unicode="&#x3A;" horiz-adv-x="513" d=" M208,804 Q208,872 251.5,916 Q295,960 358,960 Q425,960 469,916 Q513,872 513,804 Q513,737 469,694 Q425,651 358,651 Q295,651 251.5,694.5 Q208,738 208,804 M88,134 Q88,203 131.5,246.5 Q175,290 238,290 Q305,290 349,246.5 Q393,203 393,134 Q393,67 349,24.5 Q305,-18 238,-18 Q175,-18 131.5,25 Q88,68 88,134"/> 
            <glyph glyph-name=";" unicode="&#x3B;" horiz-adv-x="543" d=" M92,-400 L-80,-400 L175,206 L418,206 M239,804 Q239,873 282.5,916.5 Q326,960 389,960 Q456,960 499.5,916 Q543,872 543,804 Q543,737 499,694 Q455,651 389,651 Q326,651 282.5,694 Q239,737 239,804"/> 
            <glyph glyph-name="&lt;" unicode="&#x3C;" horiz-adv-x="1045" d=" M183,431 L210,593 L1045,1114 L1007,886 L373,515 L371,504 L883,164 L847,-53"/> 
            <glyph glyph-name="=" unicode="&#x3D;" horiz-adv-x="1103" d=" M1009,258 L141,258 L169,438 L1034,438 M1073,661 L209,661 L239,842 L1103,842"/> 
            <glyph glyph-name="&gt;" unicode="&#x3E;" horiz-adv-x="962" d=" M962,591 L936,434 L103,-53 L140,173 L774,520 L776,532 L269,895 L305,1100"/> 
            <glyph glyph-name="?" unicode="&#x3F;" horiz-adv-x="1068" d=" M329,125 Q329,190 372,232 Q415,274 481,274 Q548,274 591,233 Q634,192 634,128 Q634,64 590.5,23 Q547,-18 478,-18 Q414,-18 371.5,22.5 Q329,63 329,125 M223,1033 Q231,1108 261,1172.5 Q291,1237 342.5,1287.5 Q394,1338 473,1366.5 Q552,1395 651,1395 Q766,1395 858.5,1358.5 Q951,1322 1009.5,1243 Q1068,1164 1068,1054 Q1068,988 1047,933 Q1026,878 985.5,835.5 Q945,793 908,766 Q871,739 816,707 Q716,649 687,624 Q633,576 622,496 L611,433 L421,433 L433,500 Q448,618 497.5,682.5 Q547,747 671,818 Q711,841 728.5,851.5 Q746,862 778.5,886 Q811,910 826,929.5 Q841,949 854,979.5 Q867,1010 867,1043 Q867,1126 803.5,1172 Q740,1218 647,1218 Q549,1218 490,1166 Q431,1114 417,1033"/> 
            <glyph glyph-name="@" unicode="&#x40;" horiz-adv-x="1686" d=" M1058,275 L1067,275 Q1079,217 1141.5,176 Q1204,135 1287,135 Q1427,135 1531.5,233.5 Q1636,332 1669,517 L1678,567 Q1686,610 1686,694 Q1686,822 1636.5,935 Q1587,1048 1497,1132 Q1407,1216 1271,1265 Q1135,1314 972,1314 Q772,1314 606,1235 Q440,1156 326,1000.5 Q212,845 173,633 L163,577 Q147,483 147,408 Q147,242 202.5,111 Q258,-20 357.5,-104 Q457,-188 591.5,-231.5 Q726,-275 886,-275 Q1008,-275 1085,-252 L1108,-117 Q1040,-139 909,-139 Q775,-139 664.5,-104.5 Q554,-70 472,-3 Q390,64 345,172 Q300,280 300,419 Q300,491 313,567 L321,610 Q354,786 448.5,915 Q543,1044 678,1110 Q813,1176 973,1176 Q1131,1176 1258.5,1118.5 Q1386,1061 1462.5,948 Q1539,835 1539,684 Q1539,619 1532,577 L1526,544 Q1503,399 1442,329.5 Q1381,260 1304,260 Q1258,260 1228,286.5 Q1198,313 1198,357 Q1198,376 1201,390 L1283,861 L1130,861 L1108,730 L1100,730 Q1093,792 1039.5,838 Q986,884 900,884 Q782,884 702.5,804.5 Q623,725 597,584 L581,497 Q573,456 573,402 Q573,283 643.5,209.5 Q714,136 826,136 Q915,136 973.5,175.5 Q1032,215 1058,275 M745,497 L757,556 Q777,651 821.5,697.5 Q866,744 927,744 Q995,744 1033.5,698 Q1072,652 1072,589 Q1072,568 1067,536 L1053,455 Q1037,362 992.5,318 Q948,274 884,274 Q813,274 775.5,316.5 Q738,359 738,425 Q738,462 745,497"/> 
            <glyph glyph-name="A" unicode="&#x41;" horiz-adv-x="1161" d=" M-22,0 L692,1366 L927,1366 L1161,0 L944,0 L885,383 L394,383 L197,0 M779,1131 L765,1131 L474,554 L864,554"/> 
            <glyph glyph-name="B" unicode="&#x42;" horiz-adv-x="1231" d=" M119,0 L360,1366 L841,1366 Q926,1366 994,1349 Q1062,1332 1105.5,1303 Q1149,1274 1178,1234 Q1207,1194 1219,1151 Q1231,1108 1231,1060 Q1231,930 1147.5,838 Q1064,746 954,722 L952,710 Q1062,691 1129.5,613.5 Q1197,536 1197,412 Q1197,219 1049,109.5 Q901,0 640,0 M537,1193 L464,790 L721,790 Q850,790 932.5,852.5 Q1015,915 1015,1025 Q1015,1111 956,1152 Q897,1193 772,1193 M435,621 L354,174 L645,174 Q795,174 890.5,239.5 Q986,305 986,421 Q986,516 916.5,568.5 Q847,621 701,621"/> 
            <glyph glyph-name="C" unicode="&#x43;" horiz-adv-x="1288" d=" M421,841 L384,662 Q371,593 371,511 Q371,343 462.5,257 Q554,171 698,171 Q827,171 905.5,233.5 Q984,296 1004,392 L1206,392 Q1203,365 1199,351 Q1186,280 1149.5,215.5 Q1113,151 1051.5,95 Q990,39 894.5,6 Q799,-27 682,-27 Q596,-27 519,-7 Q442,13 376,56 Q310,99 262.5,161 Q215,223 188,312.5 Q161,402 161,510 Q161,594 170,650 L215,878 Q262,1125 414.5,1259 Q567,1393 788,1393 Q902,1393 998,1357.5 Q1094,1322 1156.5,1262.5 Q1219,1203 1253.5,1128 Q1288,1053 1288,972 Q1288,932 1284,918 L1085,918 Q1085,921 1085,929.5 Q1085,938 1085,944.5 Q1085,951 1085,956 Q1081,1000 1061,1041 Q1041,1082 1006,1118 Q971,1154 913,1175.5 Q855,1197 784,1197 Q494,1197 421,841"/> 
            <glyph glyph-name="D" unicode="&#x44;" horiz-adv-x="1314" d=" M360,1366 L769,1366 Q1031,1366 1172.5,1223.5 Q1314,1081 1314,842 Q1314,763 1303,696 Q1297,643 1276,548 Q1225,281 1035.5,140.5 Q846,0 527,0 L119,0 M536,1178 L359,188 L520,188 Q743,188 886.5,283.5 Q1030,379 1069,570 Q1069,571 1081,634 Q1093,697 1093,703 Q1102,748 1102,826 Q1102,1003 1001,1090.5 Q900,1178 706,1178"/> 
            <glyph glyph-name="E" unicode="&#x45;" horiz-adv-x="1190" d=" M983,188 L952,0 L119,0 L360,1366 L1190,1366 L1159,1178 L536,1178 L465,788 L1055,788 L1025,610 L435,610 L357,188"/> 
            <glyph glyph-name="F" unicode="&#x46;" horiz-adv-x="1190" d=" M326,0 L119,0 L361,1366 L1190,1366 L1159,1178 L538,1178 L460,754 L1031,754 L1000,570 L430,570"/> 
            <glyph glyph-name="G" unicode="&#x47;" horiz-adv-x="1310" d=" M215,881 Q262,1126 417.5,1259.5 Q573,1393 801,1393 Q924,1393 1024,1355.5 Q1124,1318 1184.5,1257 Q1245,1196 1277.5,1123.5 Q1310,1051 1310,975 Q1310,950 1307,940 L1106,940 L1106,967 Q1104,997 1092.5,1027.5 Q1081,1058 1057,1089.5 Q1033,1121 999,1145 Q965,1169 912.5,1184.5 Q860,1200 797,1200 Q646,1200 550.5,1107.5 Q455,1015 420,842 L383,658 Q369,588 369,509 Q369,339 462,251.5 Q555,164 701,164 Q820,164 913,222.5 Q1006,281 1025,383 L1055,540 L728,540 L757,710 L1285,710 L1226,378 Q1193,190 1044.5,81.5 Q896,-27 688,-27 Q580,-27 487.5,4 Q395,35 320,97 Q245,159 202,263.5 Q159,368 159,504 Q159,597 171,657"/> 
            <glyph glyph-name="H" unicode="&#x48;" horiz-adv-x="1422" d=" M327,0 L119,0 L360,1366 L567,1366 L467,797 L1113,797 L1213,1366 L1422,1366 L1181,0 L973,0 L1082,609 L436,609"/> 
            <glyph glyph-name="I" unicode="&#x49;" horiz-adv-x="567" d=" M326,0 L119,0 L360,1366 L567,1366"/> 
            <glyph glyph-name="J" unicode="&#x4A;" horiz-adv-x="1041" d=" M1041,1366 L866,374 Q829,166 717,70 Q605,-26 445,-26 Q273,-26 160.5,70 Q48,166 48,322 Q48,361 55,389 L249,389 Q248,373 248,355 Q248,278 300.5,227.5 Q353,177 442,177 Q525,177 583,230 Q641,283 662,399 L834,1366"/> 
            <glyph glyph-name="K" unicode="&#x4B;" horiz-adv-x="1408" d=" M568,1366 L448,723 L462,723 L1149,1366 L1408,1366 L771,754 L1176,0 L938,0 L608,630 L407,452 L326,0 L119,0 L360,1366"/> 
            <glyph glyph-name="L" unicode="&#x4C;" horiz-adv-x="966" d=" M966,191 L935,0 L119,0 L360,1366 L567,1366 L358,191"/> 
            <glyph glyph-name="M" unicode="&#x4D;" horiz-adv-x="1639" d=" M312,0 L119,0 L360,1366 L564,1366 L824,453 L833,453 L1414,1366 L1639,1366 L1398,0 L1205,0 L1379,970 L1367,970 L848,168 L723,168 L496,970 L484,970"/> 
            <glyph glyph-name="N" unicode="&#x4E;" horiz-adv-x="1420" d=" M1179,0 L992,0 L511,998 L500,998 L320,0 L119,0 L360,1366 L549,1366 L1025,368 L1037,368 L1218,1366 L1420,1366"/> 
            <glyph glyph-name="O" unicode="&#x4F;" horiz-adv-x="1341" d=" M419,842 L385,662 Q371,580 371,513 Q371,354 462,261 Q553,168 715,168 Q864,168 958.5,261.5 Q1053,355 1086,540 L1121,732 Q1129,775 1129,860 Q1129,1014 1037,1107 Q945,1200 787,1200 Q645,1200 549.5,1113 Q454,1026 419,842 M175,676 L212,881 Q255,1124 411.5,1258.5 Q568,1393 793,1393 Q1040,1393 1190.5,1250 Q1341,1107 1341,858 Q1341,770 1326,695 L1288,489 Q1242,240 1092,106.5 Q942,-27 692,-27 Q460,-27 310.5,110.5 Q161,248 161,487 Q161,602 175,676"/> 
            <glyph glyph-name="P" unicode="&#x50;" horiz-adv-x="1231" d=" M326,0 L119,0 L360,1366 L819,1366 Q1014,1366 1122.5,1262.5 Q1231,1159 1231,992 Q1231,954 1224,902 Q1196,703 1057,595.5 Q918,488 667,488 L413,488 M777,1186 L537,1186 L444,675 L679,675 Q843,675 923,740 Q1003,805 1017,911 Q1022,944 1022,977 Q1022,1073 961.5,1129.5 Q901,1186 777,1186"/> 
            <glyph glyph-name="Q" unicode="&#x51;" horiz-adv-x="1338" d=" M175,680 L211,876 Q254,1119 410,1256 Q566,1393 790,1393 Q1037,1393 1187.5,1249.5 Q1338,1106 1338,853 Q1338,773 1323,690 L1286,493 Q1235,217 1053,87 L1185,-140 L972,-140 L887,-2 Q800,-27 692,-27 Q540,-27 421,32 Q302,91 231,210 Q160,329 160,492 Q160,591 175,680 M851,406 L942,259 Q1048,345 1083,532 L1120,733 Q1128,778 1128,865 Q1128,1019 1035.5,1110.5 Q943,1202 786,1202 Q644,1202 548,1113.5 Q452,1025 418,843 L383,658 Q368,578 368,503 Q368,342 460,251 Q552,160 714,160 Q747,160 791,167 L646,406"/> 
            <glyph glyph-name="R" unicode="&#x52;" horiz-adv-x="1243" d=" M327,0 L119,0 L360,1366 L836,1366 Q1032,1366 1137.5,1268 Q1243,1170 1243,1005 Q1243,967 1238,927 Q1220,787 1134,692 Q1048,597 922,559 L1108,0 L888,0 L718,528 Q702,527 652,527 L421,527 M786,1183 L537,1183 L450,706 L693,706 Q990,706 1023,933 Q1027,969 1027,994 Q1027,1084 968,1133.5 Q909,1183 786,1183"/> 
            <glyph glyph-name="S" unicode="&#x53;" horiz-adv-x="1171" d=" M113,392 L313,392 Q311,378 311,369 Q311,283 395,219.5 Q479,156 614,156 Q740,156 819.5,213.5 Q899,271 899,368 Q899,412 881.5,445.5 Q864,479 827.5,504 Q791,529 756,544.5 Q721,560 664,580 L592,607 Q518,633 461,663.5 Q404,694 349.5,739.5 Q295,785 265,850 Q235,915 235,994 Q235,1179 372.5,1286 Q510,1393 717,1393 Q906,1393 1038.5,1292.5 Q1171,1192 1171,1029 Q1171,1026 1170,1010 Q1169,994 1169,993 L976,993 L976,995 Q976,997 976.5,1001 Q977,1005 977,1009 Q977,1100 900.5,1154.5 Q824,1209 715,1209 Q608,1209 529,1158 Q450,1107 450,1014 Q450,938 512,889 Q574,840 692,797 L781,763 Q841,741 882.5,722 Q924,703 971,671.5 Q1018,640 1046.5,604.5 Q1075,569 1094,515.5 Q1113,462 1113,397 Q1113,199 971.5,86 Q830,-27 605,-27 Q389,-27 249,80 Q109,187 109,347 Q109,373 113,392"/> 
            <glyph glyph-name="T" unicode="&#x54;" horiz-adv-x="1250" d=" M601,0 L394,0 L604,1176 L194,1176 L225,1366 L1250,1366 L1220,1176 L811,1176"/> 
            <glyph glyph-name="U" unicode="&#x55;" horiz-adv-x="1392" d=" M553,1366 L408,541 Q400,507 400,449 Q400,324 478.5,248.5 Q557,173 694,173 Q820,173 907.5,244.5 Q995,316 1020,458 L1181,1366 L1392,1366 L1226,422 Q1187,200 1043,86.5 Q899,-27 687,-27 Q467,-27 326,91 Q185,209 185,417 Q185,462 198,548 L342,1366"/> 
            <glyph glyph-name="V" unicode="&#x56;" horiz-adv-x="1397" d=" M684,0 L448,0 L213,1366 L438,1366 L596,242 L608,242 L1168,1366 L1397,1366"/> 
            <glyph glyph-name="W" unicode="&#x57;" horiz-adv-x="1904" d=" M537,0 L328,0 L241,1366 L460,1366 L491,309 L503,309 L974,1366 L1155,1366 L1258,309 L1270,309 L1685,1366 L1904,1366 L1335,0 L1131,0 L1015,1011 L1004,1011"/> 
            <glyph glyph-name="X" unicode="&#x58;" horiz-adv-x="1375" d=" M1127,1366 L697,845 L687,846 L452,1366 L217,1366 L536,689 L-22,0 L222,0 L640,524 L650,523 L904,0 L1136,0 L800,682 L1375,1366"/> 
            <glyph glyph-name="Y" unicode="&#x59;" horiz-adv-x="1321" d=" M718,552 L620,0 L412,0 L510,548 L184,1366 L404,1366 L636,754 L647,754 L1085,1366 L1321,1366"/> 
            <glyph glyph-name="Z" unicode="&#x5A;" horiz-adv-x="1264" d=" M80,0 L106,158 L979,1165 L981,1179 L287,1179 L318,1366 L1264,1366 L1240,1203 L369,200 L366,186 L1088,186 L1057,0"/> 
            <glyph glyph-name="[" unicode="&#x5B;" horiz-adv-x="787" d=" M323,1366 L787,1366 L761,1205 L489,1205 L260,-67 L546,-67 L518,-229 L42,-229"/> 
            <glyph glyph-name="\" unicode="&#x5C;" horiz-adv-x="606" d=" M606,-284 L419,-284 L201,1420 L387,1420"/> 
            <glyph glyph-name="]" unicode="&#x5D;" horiz-adv-x="739" d=" M275,1366 L739,1366 L457,-229 L-20,-229 L7,-67 L291,-67 L520,1205 L248,1205"/> 
            <glyph glyph-name="^" unicode="&#x5E;" horiz-adv-x="856" d=" M856,798 L680,798 L574,1191 L563,1191 L313,798 L132,798 L498,1366 L688,1366"/> 
            <glyph glyph-name="_" unicode="&#x5F;" horiz-adv-x="872" d=" M840,-261 L-80,-261 L-49,-92 L872,-92"/> 
            <glyph glyph-name="`" unicode="&#x60;" horiz-adv-x="789" d=" M789,1216 L634,1216 L387,1570 L595,1570"/> 
            <glyph glyph-name="a" unicode="&#x61;" horiz-adv-x="1011" d=" M414,-17 Q279,-17 188,63 Q97,143 97,280 Q97,302 99,316 Q110,459 220,539.5 Q330,620 526,620 L802,620 L813,687 Q816,717 816,731 Q816,802 766,852 Q716,902 610,902 Q525,902 472.5,870 Q420,838 403,786 L208,786 Q230,911 339.5,992.5 Q449,1074 624,1074 Q809,1074 910,983 Q1011,892 1011,737 Q1011,685 993,591 L889,0 L695,0 L720,140 L708,140 Q675,76 598.5,29.5 Q522,-17 414,-17 M300,303 Q300,236 348,193.5 Q396,151 479,151 Q579,151 657,207.5 Q735,264 751,351 L773,474 L528,474 Q417,474 358.5,425 Q300,376 300,303"/> 
            <glyph glyph-name="b" unicode="&#x62;" horiz-adv-x="1139" d=" M665,-17 Q545,-17 459,50.5 Q373,118 354,206 L341,206 L305,0 L102,0 L355,1423 L559,1423 L461,880 L475,880 Q490,915 513,945.5 Q536,976 571.5,1006 Q607,1036 660,1053.5 Q713,1071 777,1071 Q941,1071 1040,965 Q1139,859 1139,678 Q1139,598 1130,547 L1099,380 Q1068,200 956,91.5 Q844,-17 665,-17 M394,433 Q394,350 430.5,288 Q467,226 521,197 Q575,168 636,168 Q745,168 816,241 Q887,314 908,429 L933,562 Q937,586 937,650 Q937,764 874,829.5 Q811,895 700,895 Q589,895 515.5,819 Q442,743 421,616 L399,487 Q394,463 394,433"/> 
            <glyph glyph-name="c" unicode="&#x63;" horiz-adv-x="1039" d=" M127,394 Q127,468 140,542 L164,678 Q198,872 322,973 Q446,1074 629,1074 Q814,1074 926.5,976.5 Q1039,879 1039,728 Q1039,711 1038,708 L843,708 Q844,712 844,720 Q844,787 786.5,842.5 Q729,898 628,898 Q525,898 452.5,830.5 Q380,763 358,639 L338,526 Q328,475 328,424 Q328,301 388,232 Q448,163 566,163 Q653,163 709,198.5 Q765,234 779,290 L978,290 Q955,145 838.5,63 Q722,-19 555,-19 Q360,-19 243.5,93 Q127,205 127,394"/> 
            <glyph glyph-name="d" unicode="&#x64;" horiz-adv-x="1228" d=" M605,1071 Q732,1071 815,1002 Q898,933 911,852 L925,852 L1023,1423 L1228,1423 L978,0 L777,0 L808,175 L794,175 Q770,103 692,44 Q614,-15 494,-15 Q329,-15 226,94.5 Q123,204 123,384 Q123,453 134,515 L168,680 Q201,858 314,964.5 Q427,1071 605,1071 M882,634 Q882,757 808.5,825.5 Q735,894 636,894 Q527,894 457.5,822.5 Q388,751 364,632 L337,501 Q331,469 331,416 Q331,302 395.5,234 Q460,166 572,166 Q683,166 756.5,242 Q830,318 852,446 L876,576 Q882,613 882,634"/> 
            <glyph glyph-name="e" unicode="&#x65;" horiz-adv-x="1049" d=" M542,-19 Q356,-19 240,87.5 Q124,194 124,391 Q124,461 141,546 L165,677 Q198,867 326.5,970.5 Q455,1074 641,1074 Q754,1074 838.5,1034.5 Q923,995 968,930 Q1013,865 1031,787 Q1049,709 1038,625 Q1038,623 1032.5,592 Q1027,561 1020,523.5 Q1013,486 1012,479 L328,479 Q319,443 319,391 Q319,291 376.5,224 Q434,157 556,157 Q644,157 702.5,192.5 Q761,228 777,282 L975,282 Q966,225 931.5,171.5 Q897,118 843,75.5 Q789,33 710.5,7 Q632,-19 542,-19 M842,624 Q845,633 845,645 Q865,755 809,829.5 Q753,904 635,904 Q539,904 466,848.5 Q393,793 369,684 L356,624"/> 
            <glyph glyph-name="f" unicode="&#x66;" horiz-adv-x="873" d=" M165,0 L320,869 L151,869 L179,1039 L350,1039 L361,1113 Q386,1279 479.5,1357.5 Q573,1436 745,1436 Q818,1436 873,1425 L845,1265 Q815,1272 753,1272 Q665,1272 621.5,1233.5 Q578,1195 562,1115 L548,1039 L788,1039 L759,869 L521,869 L368,0"/> 
            <glyph glyph-name="g" unicode="&#x67;" horiz-adv-x="1165" d=" M602,1071 Q726,1071 808,1010 Q890,949 915,855 L928,855 L964,1055 L1165,1055 L979,-3 Q909,-397 486,-397 Q296,-397 182.5,-305.5 Q69,-214 69,-88 L69,-72 L264,-72 Q264,-82 265,-84 Q267,-140 332.5,-182.5 Q398,-225 496,-225 Q626,-225 695,-159.5 Q764,-94 788,36 L815,187 L801,187 Q771,114 694.5,67.5 Q618,21 507,21 Q352,21 242.5,130.5 Q133,240 133,424 Q133,498 146,568 L168,671 Q207,870 326,970.5 Q445,1071 602,1071 M880,639 Q880,756 811.5,825.5 Q743,895 634,895 Q528,895 457.5,822 Q387,749 363,621 L348,544 Q336,484 336,442 Q336,319 402,252 Q468,185 583,185 Q685,185 759,259 Q833,333 855,458 L871,544 Q880,595 880,639"/> 
            <glyph glyph-name="h" unicode="&#x68;" horiz-adv-x="1108" d=" M102,0 L353,1423 L556,1423 L458,887 L471,887 Q512,973 591,1022.5 Q670,1072 782,1072 Q940,1072 1024,979 Q1108,886 1108,745 Q1108,683 1087,565 L988,0 L784,0 L886,576 Q898,646 898,698 Q898,787 850,842 Q802,897 706,897 Q586,897 510.5,815 Q435,733 413,605 L306,0"/> 
            <glyph glyph-name="i" unicode="&#x69;" horiz-adv-x="584" d=" M116,0 L302,1056 L505,1056 L319,0 M306,1370 Q306,1430 346,1468 Q386,1506 446,1506 Q507,1506 545.5,1468.5 Q584,1431 584,1373 Q584,1315 544,1277 Q504,1239 442,1239 Q383,1239 344.5,1276 Q306,1313 306,1370"/> 
            <glyph glyph-name="j" unicode="&#x6A;" horiz-adv-x="592" d=" M514,1056 L327,-4 Q295,-185 200.5,-265 Q106,-345 -63,-345 Q-109,-345 -169,-332 L-135,-161 Q-100,-171 -56,-171 Q15,-171 62,-129 Q109,-87 123,-11 L311,1056 M315,1370 Q315,1430 354.5,1468 Q394,1506 454,1506 Q516,1506 554,1468.5 Q592,1431 592,1373 Q592,1314 552,1276.5 Q512,1239 450,1239 Q391,1239 353,1276 Q315,1313 315,1370"/> 
            <glyph glyph-name="k" unicode="&#x6B;" horiz-adv-x="1167" d=" M377,412 L303,0 L102,0 L353,1423 L554,1423 L416,647 L430,647 L904,1056 L1167,1056 L666,629 L989,0 L768,0 L508,518"/> 
            <glyph glyph-name="l" unicode="&#x6C;" horiz-adv-x="571" d=" M115,0 L367,1423 L571,1423 L319,0"/> 
            <glyph glyph-name="m" unicode="&#x6D;" horiz-adv-x="1686" d=" M102,0 L288,1056 L486,1056 L455,881 L468,881 Q502,963 576,1017.5 Q650,1072 762,1072 Q876,1072 949.5,1018.5 Q1023,965 1051,877 L1063,877 Q1080,912 1103.5,943 Q1127,974 1164.5,1005 Q1202,1036 1257,1054 Q1312,1072 1378,1072 Q1530,1072 1608,982.5 Q1686,893 1686,754 Q1686,695 1665,571 L1564,0 L1360,0 L1463,583 Q1474,645 1474,699 Q1474,791 1433.5,844 Q1393,897 1306,897 Q1206,897 1141,821.5 Q1076,746 1052,613 L943,0 L743,0 L846,583 Q856,639 856,700 Q856,897 684,897 Q572,897 504.5,819.5 Q437,742 414,612 L306,0"/> 
            <glyph glyph-name="n" unicode="&#x6E;" horiz-adv-x="1103" d=" M102,0 L288,1056 L488,1056 L456,887 L470,887 Q513,974 591.5,1023 Q670,1072 781,1072 Q862,1072 925,1046 Q988,1020 1026,974.5 Q1064,929 1083.5,871 Q1103,813 1103,746 Q1103,680 1082,565 L982,0 L778,0 L880,576 Q893,654 893,697 Q893,786 846.5,841.5 Q800,897 704,897 Q584,897 510,816.5 Q436,736 413,605 L306,0"/> 
            <glyph glyph-name="o" unicode="&#x6F;" horiz-adv-x="1080" d=" M362,634 L342,520 Q331,463 331,416 Q331,301 398,230.5 Q465,160 581,160 Q688,160 756.5,232 Q825,304 848,434 L869,556 Q874,585 874,648 Q874,758 807.5,828 Q741,898 628,898 Q525,898 454.5,830 Q384,762 362,634 M141,548 L162,670 Q195,855 322,964.5 Q449,1074 631,1074 Q832,1074 956,958 Q1080,842 1080,639 Q1080,580 1068,513 L1045,390 Q1009,200 887,91.5 Q765,-17 564,-17 Q375,-17 252,95.5 Q129,208 129,403 Q129,485 141,548"/> 
            <glyph glyph-name="p" unicode="&#x70;" horiz-adv-x="1138" d=" M659,-17 Q538,-17 454.5,52 Q371,121 355,206 L341,206 L242,-360 L39,-360 L287,1055 L489,1055 L458,880 L472,880 Q485,914 506.5,944 Q528,974 563,1004.5 Q598,1035 651.5,1053 Q705,1071 771,1071 Q936,1071 1037,964.5 Q1138,858 1138,678 Q1138,598 1129,547 L1097,380 Q1068,200 953.5,91.5 Q839,-17 659,-17 M387,433 Q387,310 460.5,239 Q534,168 629,168 Q739,168 812,241 Q885,314 905,429 L930,562 Q935,592 935,650 Q935,764 870,829.5 Q805,895 693,895 Q582,895 508.5,819 Q435,743 414,616 L392,487 Q387,457 387,433"/> 
            <glyph glyph-name="q" unicode="&#x71;" horiz-adv-x="1164" d=" M607,1071 Q732,1071 815.5,1003 Q899,935 914,852 L928,852 L963,1055 L1164,1055 L911,-359 L707,-359 L805,173 L791,173 Q778,141 755.5,111 Q733,81 698,51.5 Q663,22 611,4.5 Q559,-13 497,-13 Q332,-13 228,95.5 Q124,204 124,383 Q124,459 134,515 L170,680 Q203,856 316.5,963.5 Q430,1071 607,1071 M880,635 Q880,758 807,826 Q734,894 638,894 Q530,894 459,819.5 Q388,745 365,632 L337,501 Q332,474 332,416 Q332,303 397.5,235.5 Q463,168 573,168 Q685,168 758,243 Q831,318 853,446 L876,576 Q880,599 880,635"/> 
            <glyph glyph-name="r" unicode="&#x72;" horiz-adv-x="848" d=" M102,0 L288,1056 L481,1056 L449,880 L462,880 Q492,961 569.5,1016.5 Q647,1072 756,1072 Q801,1072 848,1059 L809,863 Q768,879 712,879 Q583,879 507.5,796.5 Q432,714 408,579 L305,0"/> 
            <glyph glyph-name="s" unicode="&#x73;" horiz-adv-x="987" d=" M205,758 Q205,902 307,988.5 Q409,1075 595,1075 Q775,1075 881,987.5 Q987,900 987,782 L987,758 L803,758 L803,769 Q803,824 747,870.5 Q691,917 594,917 Q506,917 454,878 Q402,839 402,781 Q402,749 415.5,725 Q429,701 465,681.5 Q501,662 523.5,653 Q546,644 603,626 Q621,620 630,617 Q682,600 720.5,584 Q759,568 799,542.5 Q839,517 863.5,486.5 Q888,456 904,412.5 Q920,369 920,315 Q920,156 805.5,69 Q691,-18 501,-18 Q320,-18 200.5,70 Q81,158 81,293 Q81,307 82,310 L270,310 Q270,308 270.5,301 Q271,294 271,291 Q282,230 347,188.5 Q412,147 511,147 Q611,147 665.5,187.5 Q720,228 720,296 Q720,314 716.5,329.5 Q713,345 702.5,358 Q692,371 684,380.5 Q676,390 656,400 Q636,410 626.5,415.5 Q617,421 589,430.5 Q561,440 551,443 Q541,446 508,456 Q476,466 454.5,474 Q433,482 398.5,497 Q364,512 340,527.5 Q316,543 288.5,567 Q261,591 244.5,617.5 Q228,644 216.5,680.5 Q205,717 205,758"/> 
            <glyph glyph-name="t" unicode="&#x74;" horiz-adv-x="768" d=" M341,1039 L390,1314 L589,1314 L541,1039 L768,1039 L739,869 L514,869 L431,403 Q411,301 411,270 Q411,219 439.5,193 Q468,167 537,167 Q602,167 656,177 L628,12 Q576,-3 478,-3 Q201,-3 201,207 Q201,255 216,332 L312,869 L155,869 L184,1039"/> 
            <glyph glyph-name="u" unicode="&#x75;" horiz-adv-x="1150" d=" M1150,1056 L964,0 L771,0 L802,175 L788,175 Q748,90 668,36.5 Q588,-17 478,-17 Q323,-17 236,73.5 Q149,164 149,308 Q149,383 169,489 L272,1056 L475,1056 L373,484 Q359,410 359,356 Q359,266 410,215.5 Q461,165 559,165 Q678,165 750.5,245 Q823,325 846,456 L952,1056"/> 
            <glyph glyph-name="v" unicode="&#x76;" horiz-adv-x="1095" d=" M345,0 L172,1056 L382,1056 L486,214 L497,214 L886,1056 L1095,1056 L572,0"/> 
            <glyph glyph-name="w" unicode="&#x77;" horiz-adv-x="1555" d=" M1555,1056 L1092,0 L877,0 L809,789 L801,789 L483,0 L260,0 L144,1056 L350,1056 L405,220 L415,220 L752,1056 L938,1056 L1006,220 L1016,220 L1349,1056"/> 
            <glyph glyph-name="x" unicode="&#x78;" horiz-adv-x="1099" d=" M704,0 L522,386 L515,386 L214,0 L-11,0 L414,530 L155,1056 L377,1056 L556,663 L566,663 L868,1056 L1099,1056 L661,524 L925,0"/> 
            <glyph glyph-name="y" unicode="&#x79;" horiz-adv-x="1119" d=" M1119,1056 L588,10 Q587,7 568,-27 Q549,-61 549,-62 Q506,-145 470.5,-195 Q435,-245 385.5,-284 Q336,-323 272,-338.5 Q208,-354 118,-354 Q66,-354 14,-341 L49,-174 Q89,-184 129,-184 Q213,-184 259,-146.5 Q305,-109 340,-35 L363,18 L172,1056 L384,1056 L505,220 L517,220 L903,1056"/> 
            <glyph glyph-name="z" unicode="&#x7A;" horiz-adv-x="1010" d=" M51,0 L80,167 L737,874 L740,887 L184,887 L214,1056 L1010,1056 L981,884 L329,186 L327,172 L881,172 L851,0"/> 
            <glyph glyph-name="{" unicode="&#x7B;" horiz-adv-x="912" d=" M327,592 L322,566 Q401,557 439.5,497.5 Q478,438 461,337 Q402,29 402,-4 Q398,-93 434,-125.5 Q470,-158 587,-158 L629,-158 L602,-321 L523,-321 Q353,-321 277,-256 Q201,-191 208,-57 Q208,-2 260,273 Q279,380 250,426.5 Q221,473 122,473 L157,684 Q256,684 301.5,730.5 Q347,777 366,885 L406,1097 Q421,1179 450,1239 Q479,1299 517,1336 Q555,1373 608,1395.5 Q661,1418 716.5,1426.5 Q772,1435 842,1435 L912,1435 L886,1272 L844,1272 Q721,1272 664.5,1219 Q608,1166 591,1067 L544,813 Q525,702 472,650 Q419,598 327,592"/> 
            <glyph glyph-name="|" unicode="&#x7C;" horiz-adv-x="631" d=" M330,-289 L144,-289 L445,1420 L631,1420"/> 
            <glyph glyph-name="}" unicode="&#x7D;" horiz-adv-x="739" d=" M534,566 L538,592 Q459,600 420.5,656 Q382,712 399,813 Q452,1080 452,1117 Q456,1207 420,1239.5 Q384,1272 266,1272 L225,1272 L252,1435 L330,1435 Q500,1435 576.5,1370.5 Q653,1306 646,1174 Q646,1114 633,1031 Q620,948 606.5,888 Q593,828 593,822 Q590,750 623.5,717 Q657,684 739,684 L703,473 Q605,473 559,426.5 Q513,380 494,273 L448,20 Q430,-82 391,-150.5 Q352,-219 292.5,-255.5 Q233,-292 166.5,-306.5 Q100,-321 11,-321 L-58,-321 L-31,-158 L10,-158 Q133,-158 189.5,-105 Q246,-52 263,47 L316,337 Q335,448 388.5,503.5 Q442,559 534,566"/> 
            <glyph glyph-name="~" unicode="&#x7E;" horiz-adv-x="1138" d=" M842,482 Q780,482 727,506 Q674,530 637.5,565 Q601,600 567.5,634.5 Q534,669 496.5,693 Q459,717 420,717 Q368,717 329.5,675.5 Q291,634 281,563 L118,563 Q122,705 203,802.5 Q284,900 414,900 Q476,900 528.5,876 Q581,852 617.5,817.5 Q654,783 687.5,748.5 Q721,714 759.5,690 Q798,666 839,666 Q893,666 928.5,705.5 Q964,745 975,810 L1138,810 Q1129,669 1048.5,575.5 Q968,482 842,482"/> 
            <glyph glyph-name="¡" unicode="&#xA1;" horiz-adv-x="567" d=" M567,933 Q567,867 524,825.5 Q481,784 415,784 Q347,784 304,825 Q261,866 261,930 Q261,993 305,1034.5 Q349,1076 417,1076 Q482,1076 524.5,1035 Q567,994 567,933 M320,-309 L94,-309 L294,628 L454,628"/> 
            <glyph glyph-name="¢" unicode="&#xA2;" horiz-adv-x="1091" d=" M179,544 Q179,611 193,692 L217,828 Q249,1011 365,1111.5 Q481,1212 654,1220 L697,1455 L861,1455 L815,1205 Q943,1173 1017,1083 Q1091,993 1091,878 Q1091,861 1090,857 L901,857 L901,870 Q901,938 841.5,993 Q782,1048 680,1048 Q577,1048 505,981 Q433,914 410,789 L390,675 Q380,618 380,574 Q380,450 440.5,381 Q501,312 618,312 Q705,312 761,348 Q817,384 830,439 L1030,439 Q1009,304 897.5,222 Q786,140 628,136 L627,136 L588,-85 L423,-85 L465,151 Q332,187 255.5,290.5 Q179,394 179,544"/> 
            <glyph glyph-name="£" unicode="&#xA3;" horiz-adv-x="1220" d=" M1204,1021 L1017,1021 Q1027,1100 974,1156.5 Q921,1213 826,1213 Q742,1213 693,1166 Q644,1119 630,1043 L580,769 L878,769 L851,612 L557,612 Q556,603 536.5,504.5 Q517,406 514,401 Q478,238 368,191 L368,179 L1090,179 L1060,0 L34,0 L65,188 Q88,189 99,189.5 Q110,190 133.5,192.5 Q157,195 170,201 Q183,207 204,217 Q225,227 238.5,243 Q252,259 267.5,281 Q283,303 294.5,335 Q306,367 315,407 Q318,411 337,502.5 Q356,594 359,612 L170,612 L197,769 L382,769 L440,1086 Q466,1233 568.5,1312.5 Q671,1392 825,1392 Q1009,1392 1114.5,1290 Q1220,1188 1204,1021"/> 
            <glyph glyph-name="¤" unicode="&#xA4;" horiz-adv-x="1183" d=" M384,652 Q384,554 452.5,484.5 Q521,415 618,415 Q715,415 783.5,484.5 Q852,554 852,652 Q852,751 783.5,820.5 Q715,890 618,890 Q521,890 452.5,820.5 Q384,751 384,652 M903,118 L774,294 Q704,259 612,259 Q473,259 371,350 L164,198 L69,326 L276,478 Q238,560 238,659 Q238,795 331,901 L192,1091 L314,1195 L451,1006 Q530,1048 628,1048 Q763,1048 867,953 L1088,1114 L1183,984 L961,824 Q1000,741 1000,646 Q1000,506 896,394 L1024,220"/> 
            <glyph glyph-name="¥" unicode="&#xA5;" horiz-adv-x="1324" d=" M205,392 L485,392 L509,528 L229,528 L254,672 L469,672 L187,1366 L408,1366 L641,755 L652,755 L1089,1366 L1324,1366 L803,672 L1034,672 L1010,528 L716,528 L692,392 L985,392 L961,248 L668,248 L622,0 L415,0 L460,248 L181,248"/> 
            <glyph glyph-name="¦" unicode="&#xA6;" horiz-adv-x="623" d=" M508,782 L333,782 L448,1437 L623,1437 M316,-304 L141,-304 L261,378 L436,378"/> 
            <glyph glyph-name="§" unicode="&#xA7;" horiz-adv-x="999" d=" M49,85 L227,85 L227,81 Q228,-2 291.5,-45 Q355,-88 451,-88 Q541,-88 594,-46.5 Q647,-5 647,58 Q647,117 601,152.5 Q555,188 444,233 Q429,239 428,240 Q362,267 314,294.5 Q266,322 224.5,360 Q183,398 162,447.5 Q141,497 141,559 Q141,662 204.5,730.5 Q268,799 360,828 L361,836 Q314,870 277,929.5 Q240,989 240,1071 Q240,1221 350.5,1307 Q461,1393 628,1393 Q780,1393 889.5,1304 Q999,1215 998,1077 Q998,1065 994,1037 L818,1037 Q821,1051 821,1059 Q822,1134 761,1179.5 Q700,1225 621,1225 Q543,1225 486.5,1188 Q430,1151 430,1084 Q430,1017 480,976 Q530,935 640,890 Q696,867 735.5,847 Q775,827 816,798.5 Q857,770 882,739.5 Q907,709 923,667.5 Q939,626 939,577 Q939,474 882,399.5 Q825,325 735,289 L735,281 Q839,196 839,75 Q839,-80 723.5,-168 Q608,-256 438,-256 Q365,-256 295.5,-234.5 Q226,-213 169.5,-174.5 Q113,-136 78.5,-75 Q44,-14 45,58 Q45,69 49,85 M593,367 Q654,382 698.5,432.5 Q743,483 743,550 Q743,609 697.5,651.5 Q652,694 565,728 Q515,747 496,751 Q431,740 382,689 Q333,638 333,576 Q333,517 378,475.5 Q423,434 507,397 Q529,387 593,367"/> 
            <glyph glyph-name="¨" unicode="&#xA8;" horiz-adv-x="964" d=" M357,1312 Q357,1363 389,1394.5 Q421,1426 472,1426 Q523,1426 555.5,1394.5 Q588,1363 588,1312 Q588,1263 555.5,1231.5 Q523,1200 472,1200 Q422,1200 389.5,1231.5 Q357,1263 357,1312 M733,1312 Q733,1362 764.5,1394 Q796,1426 845,1426 Q898,1426 931,1394.5 Q964,1363 964,1312 Q964,1263 931,1231.5 Q898,1200 845,1200 Q797,1200 765,1231.5 Q733,1263 733,1312"/> 
            <glyph glyph-name="©" unicode="&#xA9;" horiz-adv-x="1646" d=" M899,-66 Q691,-66 529,25.5 Q367,117 280,275 Q193,433 193,629 Q193,672 200,731 L212,834 Q244,1097 445,1265.5 Q646,1434 934,1434 Q1090,1434 1223.5,1380 Q1357,1326 1449.5,1234 Q1542,1142 1594,1016.5 Q1646,891 1646,750 Q1646,696 1641,659 L1629,557 Q1596,280 1393.5,107 Q1191,-66 899,-66 M319,622 Q319,370 479.5,213.5 Q640,57 897,57 Q1141,57 1310,197.5 Q1479,338 1507,569 L1519,675 Q1523,707 1523,741 Q1523,903 1445.5,1033.5 Q1368,1164 1232.5,1237 Q1097,1310 929,1310 Q690,1310 525,1169.5 Q360,1029 336,818 L324,713 Q319,677 319,622 M583,590 Q583,634 592,688 L610,790 Q633,922 718,996 Q803,1070 938,1070 Q1074,1070 1153,999 Q1232,928 1232,829 Q1232,808 1230,803 L1095,803 L1095,818 Q1095,867 1053,906 Q1011,945 941,945 Q864,945 813,895 Q762,845 746,755 L733,679 Q725,639 725,608 Q725,519 768,469 Q811,419 897,419 Q957,419 997,444 Q1037,469 1046,510 L1187,510 Q1170,409 1089,349 Q1008,289 888,289 Q748,289 665.5,370.5 Q583,452 583,590"/> 
            <glyph glyph-name="ª" unicode="&#xAA;" horiz-adv-x="737" d=" M382,716 Q306,716 255,760.5 Q204,805 204,886 Q204,978 271.5,1024 Q339,1070 454,1070 L592,1070 L598,1110 Q598,1112 598.5,1116 Q599,1120 599,1125 Q599,1165 573,1188 Q547,1211 500,1211 Q465,1211 436.5,1196 Q408,1181 402,1154 L266,1154 Q277,1226 340.5,1275 Q404,1324 510,1324 Q617,1324 677,1272.5 Q737,1221 737,1127 Q737,1106 734,1088 L671,725 L535,725 L549,802 L541,802 Q524,767 482,741.5 Q440,716 382,716 M345,899 Q345,866 369,845 Q393,824 434,824 Q483,824 519,851 Q555,878 564,922 L576,984 L456,984 Q402,984 373.5,960 Q345,936 345,899"/> 
            <glyph glyph-name="«" unicode="&#xAB;" horiz-adv-x="1282" d=" M184,565 L599,969 L812,969 L393,555 L392,549 L650,155 L447,155 L182,557 M654,565 L1069,969 L1282,969 L864,555 L863,549 L1121,155 L918,155 L652,557"/> 
            <glyph glyph-name="¬" unicode="&#xAC;" horiz-adv-x="1122" d=" M1028,93 L848,93 L913,456 L119,456 L148,631 L1122,631"/> 
            <glyph glyph-name="®" unicode="&#xAE;" horiz-adv-x="1198" d=" M209,893 Q209,913 210,921 L213,942 Q221,1156 356,1286 Q491,1416 708,1416 Q922,1416 1060,1283.5 Q1198,1151 1198,940 Q1198,937 1197.5,925.5 Q1197,914 1197,910 L1194,884 Q1182,667 1049,540.5 Q916,414 697,414 Q480,414 344.5,545 Q209,676 209,893 M309,892 Q309,719 416,616.5 Q523,514 697,514 Q874,514 979,614 Q1084,714 1095,890 L1097,914 Q1098,920 1098,939 Q1098,1107 988.5,1211.5 Q879,1316 707,1316 Q530,1316 423.5,1212.5 Q317,1109 312,936 L310,915 Q309,909 309,892 M584,666 L482,666 L575,1185 L765,1185 Q842,1185 883.5,1146 Q925,1107 925,1036 Q925,1024 924,1015 Q919,963 887.5,925.5 Q856,888 806,871 L876,666 L770,666 L711,857 L684,857 L617,857 M742,1100 L661,1100 L630,938 L710,938 Q812,938 824,1016 Q824,1019 824.5,1025.5 Q825,1032 825,1036 Q825,1064 803,1082 Q781,1100 742,1100"/> 
            <glyph glyph-name="¯" unicode="&#xAF;" horiz-adv-x="979" d=" M958,1246 L353,1246 L375,1373 L979,1373"/> 
            <glyph glyph-name="°" unicode="&#xB0;" horiz-adv-x="778" d=" M492,806 Q371,806 287,890.5 Q203,975 203,1096 Q203,1216 287,1300 Q371,1384 492,1384 Q610,1384 694,1300 Q778,1216 778,1096 Q778,976 694,891 Q610,806 492,806 M492,949 Q554,949 598,992.5 Q642,1036 642,1096 Q642,1157 598,1200.5 Q554,1244 492,1244 Q431,1244 386,1200.5 Q341,1157 341,1096 Q341,1036 386,992.5 Q431,949 492,949"/> 
            <glyph glyph-name="±" unicode="&#xB1;" horiz-adv-x="1130" d=" M708,651 L659,380 L487,380 L536,651 L146,651 L174,820 L565,820 L610,1076 L782,1076 L736,820 L1130,820 L1102,651 M1015,111 L58,111 L86,276 L1042,276"/> 
            <glyph glyph-name="²" unicode="&#xB2;" horiz-adv-x="772" d=" M441,1161 L301,1161 Q308,1256 375,1316 Q442,1376 547,1376 Q643,1376 707.5,1324 Q772,1272 772,1184 Q772,1120 737,1070.5 Q702,1021 630,960 Q629,959 601.5,936.5 Q574,914 544,888.5 Q514,863 487,840.5 Q460,818 457,816 L456,814 L738,814 L717,689 L234,689 L252,794 L526,1036 Q585,1090 603,1118 Q621,1147 621,1174 Q621,1206 598.5,1227.5 Q576,1249 537,1249 Q496,1249 470.5,1224 Q445,1199 441,1161"/> 
            <glyph glyph-name="³" unicode="&#xB3;" horiz-adv-x="732" d=" M393,982 L400,1097 L459,1097 Q511,1097 548.5,1119 Q586,1141 586,1181 Q586,1215 560.5,1235 Q535,1255 497,1255 Q460,1255 437,1236.5 Q414,1218 408,1190 L266,1190 Q274,1272 337,1324 Q400,1376 498,1376 Q592,1376 662,1329 Q732,1282 732,1196 Q732,1133 694,1089.5 Q656,1046 602,1035 L602,1032 Q650,1016 677.5,976.5 Q705,937 705,881 Q705,788 631,731.5 Q557,675 443,678 Q339,681 275,732.5 Q211,784 205,869 Q205,874 205,878.5 Q205,883 205,887.5 Q205,892 205,895 L337,895 L337,892 Q340,852 370,828 Q400,804 447,804 Q493,804 524,828.5 Q555,853 555,896 Q555,971 451,981 Q440,982 393,982"/> 
            <glyph glyph-name="´" unicode="&#xB4;" horiz-adv-x="892" d=" M410,1216 L694,1570 L892,1570 L555,1216"/> 
            <glyph glyph-name="¶" unicode="&#xB6;" horiz-adv-x="1351" d=" M717,-210 L520,-210 L642,468 L623,471 Q564,482 503.5,512.5 Q443,543 385.5,594 Q328,645 291.5,726.5 Q255,808 255,905 Q255,915 257,937 Q262,1069 333,1167.5 Q404,1266 520,1315.5 Q636,1365 779,1365 L994,1365 M876,-210 L1154,1365 L1351,1365 L1073,-210"/> 
            <glyph glyph-name="·" unicode="&#xB7;" horiz-adv-x="500" d=" M196,755 Q196,824 239.5,867.5 Q283,911 346,911 Q413,911 456.5,867.5 Q500,824 500,755 Q500,688 456.5,645.5 Q413,603 346,603 Q283,603 239.5,646 Q196,689 196,755"/> 
            <glyph glyph-name="¸" unicode="&#xB8;" horiz-adv-x="596" d=" M269,-151 L321,14 L457,14 L413,-127 Q495,-129 545.5,-169 Q596,-209 596,-281 Q596,-288 595,-291 Q592,-383 524,-432.5 Q456,-482 349,-482 Q264,-482 192,-457 L211,-345 Q271,-364 337,-364 Q443,-364 444,-297 L444,-294 Q444,-228 311,-228 L260,-228"/> 
            <glyph glyph-name="¹" unicode="&#xB9;" horiz-adv-x="641" d=" M522,689 L377,689 L471,1217 L465,1217 L297,1126 L320,1268 L496,1366 L641,1366"/> 
            <glyph glyph-name="º" unicode="&#xBA;" horiz-adv-x="778" d=" M499,1316 Q394,1316 321,1254 Q248,1192 230,1087 L224,1050 Q218,1014 218,1005 Q199,864 275,784 Q351,704 479,704 Q586,704 657,764 Q728,824 747,936 L753,972 Q759,1002 759,1016 Q778,1151 702,1233.5 Q626,1316 499,1316 M504,1200 Q569,1200 602.5,1151.5 Q636,1103 623,1031 Q623,1029 620.5,1012.5 Q618,996 618,995 L611,959 Q600,897 565,859 Q530,821 472,821 Q404,821 372,869 Q340,917 353,990 Q353,1008 359,1026 L365,1063 Q377,1125 413,1162.5 Q449,1200 504,1200"/> 
            <glyph glyph-name="»" unicode="&#xBB;" horiz-adv-x="1201" d=" M724,559 L310,155 L96,155 L514,569 L515,575 L257,969 L458,969 L725,567 M1199,559 L786,155 L572,155 L990,569 L991,575 L733,969 L934,969 L1201,567"/> 
            <glyph glyph-name="¼" unicode="&#xBC;" horiz-adv-x="1517" d=" M1292,678 L1503,678 L1428,247 L1517,247 L1499,129 L1411,129 L1387,0 L1246,0 L1268,129 L934,129 L952,247 Q1054,396 1292,678 M1098,241 L1290,241 L1350,560 L1341,560 Q1157,328 1099,246 M480,689 L335,689 L429,1217 L423,1217 L255,1126 L278,1268 L454,1366 L599,1366 M367,0 L195,0 L758,683 L1320,1366 L1493,1366 L930,683"/> 
            <glyph glyph-name="½" unicode="&#xBD;" horiz-adv-x="1553" d=" M1222,474 L1081,474 Q1088,569 1155,629 Q1222,689 1328,689 Q1424,689 1488.5,637 Q1553,585 1553,497 Q1553,432 1518,382.5 Q1483,333 1411,272 Q1410,271 1382.5,248.5 Q1355,226 1325,200.5 Q1295,175 1268,152.5 Q1241,130 1238,128 L1237,126 L1519,126 L1498,1 L1014,1 L1032,106 L1307,348 Q1366,402 1383,430 Q1402,460 1402,487 Q1402,519 1379.5,540.5 Q1357,562 1318,562 Q1277,562 1251.5,537 Q1226,512 1222,474 M480,689 L335,689 L429,1217 L423,1217 L255,1126 L278,1268 L454,1366 L599,1366 M375,0 L203,0 L766,683 L1328,1366 L1501,1366 L938,683"/> 
            <glyph glyph-name="¾" unicode="&#xBE;" horiz-adv-x="1626" d=" M1401,678 L1612,678 L1538,247 L1626,247 L1608,129 L1520,129 L1496,0 L1355,0 L1378,129 L1043,129 L1061,247 Q1076,269 1093,292.5 Q1110,316 1123,334 Q1136,352 1157.5,379.5 Q1179,407 1189.5,421 Q1200,435 1225,466 Q1250,497 1258,506.5 Q1266,516 1295,551 Q1324,586 1328.5,591.5 Q1333,597 1366,636.5 Q1399,676 1401,678 M1207,241 L1399,241 L1459,560 L1450,560 Q1266,328 1208,246 M400,985 L407,1099 L466,1099 Q518,1099 555.5,1121 Q593,1143 593,1183 Q593,1216 567.5,1236 Q542,1256 504,1256 Q467,1256 444,1237.5 Q421,1219 415,1191 L274,1191 Q282,1273 345,1324.5 Q408,1376 505,1376 Q599,1376 668.5,1329.5 Q738,1283 738,1197 Q738,1134 700,1091 Q662,1048 609,1037 L609,1034 Q656,1018 683.5,979 Q711,940 711,884 Q711,792 637.5,735.5 Q564,679 450,682 Q347,685 283,736 Q219,787 213,872 Q213,877 213,881.5 Q213,886 213,890.5 Q213,895 213,898 L345,898 L345,895 Q348,855 377.5,831.5 Q407,808 454,808 Q500,808 531,832 Q562,856 562,899 Q562,974 458,984 Q447,985 400,985 M470,0 L298,0 L861,683 L1423,1366 L1596,1366 L1033,683"/> 
            <glyph glyph-name="¿" unicode="&#xBF;" horiz-adv-x="892" d=" M787,955 Q787,890 744,848 Q701,806 635,806 Q568,806 524.5,847 Q481,888 481,952 Q481,1016 524.5,1057 Q568,1098 637,1098 Q702,1098 744.5,1057.5 Q787,1017 787,955 M892,47 Q875,-111 766,-213.5 Q657,-316 465,-316 Q350,-316 257.5,-279.5 Q165,-243 106.5,-164 Q48,-85 48,26 Q48,92 69,147 Q90,202 130.5,244.5 Q171,287 208,314 Q245,341 300,373 Q349,401 364,410 Q379,419 410.5,442 Q442,465 453,481 Q464,497 476.5,524 Q489,551 493,584 L505,646 L694,646 L683,580 Q668,461 618.5,397 Q569,333 444,262 Q415,246 403,239 Q391,232 365.5,215 Q340,198 327.5,187.5 Q315,177 297,158 Q279,139 270.5,122.5 Q262,106 255.5,83.5 Q249,61 249,37 Q249,-46 312.5,-92 Q376,-138 469,-138 Q567,-138 626,-86 Q685,-34 699,47"/> 
            <glyph glyph-name="À" unicode="&#xC0;" horiz-adv-x="1161" d=" M-22,0 L692,1366 L927,1366 L1161,0 L944,0 L885,383 L394,383 L197,0 M779,1131 L765,1131 L474,554 L864,554 M961,1508 L763,1508 L454,1728 L683,1728"/> 
            <glyph glyph-name="Á" unicode="&#xC1;" horiz-adv-x="1222" d=" M-22,0 L692,1366 L927,1366 L1161,0 L944,0 L885,383 L394,383 L197,0 M779,1131 L765,1131 L474,554 L864,554 M679,1509 L985,1729 L1222,1729 L881,1509"/> 
            <glyph glyph-name="Â" unicode="&#xC2;" horiz-adv-x="1172" d=" M-22,0 L692,1366 L927,1366 L1161,0 L944,0 L885,383 L394,383 L197,0 M779,1131 L765,1131 L474,554 L864,554 M480,1496 L774,1733 L952,1733 L1172,1496 L989,1496 L862,1634 L849,1634 L674,1496"/> 
            <glyph glyph-name="Ã" unicode="&#xC3;" horiz-adv-x="1161" d=" M-22,0 L692,1366 L927,1366 L1161,0 L944,0 L885,383 L394,383 L197,0 M779,1131 L765,1131 L474,554 L864,554 M952,1449 Q906,1449 867.5,1469 Q829,1489 808,1512.5 Q787,1536 759.5,1556 Q732,1576 705,1576 Q641,1576 634,1475 L508,1475 Q508,1567 557,1633 Q606,1699 701,1699 Q742,1699 776,1685.5 Q810,1672 832,1653 Q854,1634 873.5,1615.5 Q893,1597 912.5,1583.5 Q932,1570 952,1570 Q988,1570 1006,1604.5 Q1024,1639 1027,1682 L1153,1682 Q1153,1590 1100,1519.5 Q1047,1449 952,1449"/> 
            <glyph glyph-name="Ä" unicode="&#xC4;" horiz-adv-x="1161" d=" M-22,0 L692,1366 L927,1366 L1161,0 L944,0 L885,383 L394,383 L197,0 M779,1131 L765,1131 L474,554 L864,554 M555,1578 Q555,1626 586,1656 Q617,1686 665,1686 Q713,1686 743.5,1656 Q774,1626 774,1578 Q774,1531 743.5,1501.5 Q713,1472 665,1472 Q617,1472 586,1502 Q555,1532 555,1578 M915,1578 Q915,1626 945,1656 Q975,1686 1021,1686 Q1071,1686 1102.5,1656.5 Q1134,1627 1134,1578 Q1134,1531 1102.5,1501.5 Q1071,1472 1021,1472 Q975,1472 945,1502 Q915,1532 915,1578"/> 
            <glyph glyph-name="Å" unicode="&#xC5;" horiz-adv-x="1161" d=" M-22,0 L692,1366 L927,1366 L1161,0 L944,0 L885,383 L394,383 L197,0 M779,1131 L765,1131 L474,554 L864,554 M818,1572 Q902,1572 930.5,1601 Q959,1630 959,1671 Q959,1713 930.5,1741.5 Q902,1770 860,1770 Q818,1770 789,1741 Q760,1712 760,1671 Q760,1630 818,1572 M859,1474 Q777,1474 720,1531 Q663,1588 663,1671 Q663,1755 720.5,1811.5 Q778,1868 861,1868 Q944,1868 1000.5,1811 Q1057,1754 1057,1671 Q1057,1587 999.5,1530.5 Q942,1474 859,1474"/> 
            <glyph glyph-name="Æ" unicode="&#xC6;" horiz-adv-x="1897" d=" M1017,1122 L590,552 L926,552 L1034,1122 M829,0 L897,376 L482,376 L188,0 L-48,0 L968,1366 L1897,1366 L1867,1180 L1242,1180 L1171,788 L1762,788 L1734,610 L1141,610 L1063,186 L1690,186 L1660,0"/> 
            <glyph glyph-name="Ç" unicode="&#xC7;" horiz-adv-x="1288" d=" M607,-482 Q523,-482 451,-457 L469,-345 Q531,-364 596,-364 Q702,-364 703,-297 L703,-294 Q703,-228 570,-228 L518,-228 L528,-151 L568,-17 Q385,15 273,148 Q161,281 161,510 Q161,594 170,650 L215,878 Q262,1125 414.5,1259 Q567,1393 788,1393 Q902,1393 998,1357.5 Q1094,1322 1156.5,1262.5 Q1219,1203 1253.5,1128 Q1288,1053 1288,972 Q1288,932 1284,918 L1085,918 Q1085,921 1085,929.5 Q1085,938 1085,944.5 Q1085,951 1085,956 Q1081,1000 1061,1041 Q1041,1082 1006,1118 Q971,1154 913,1175.5 Q855,1197 784,1197 Q494,1197 421,841 L384,662 Q371,593 371,511 Q371,343 462.5,257 Q554,171 698,171 Q827,171 905.5,233.5 Q984,296 1004,392 L1206,392 Q1203,365 1199,351 Q1186,282 1150.5,219 Q1115,156 1056.5,101 Q998,46 906.5,11.5 Q815,-23 703,-26 L672,-127 Q754,-129 804.5,-169 Q855,-209 855,-281 Q855,-282 854.5,-286 Q854,-290 854,-291 Q851,-383 782.5,-432.5 Q714,-482 607,-482"/> 
            <glyph glyph-name="È" unicode="&#xC8;" horiz-adv-x="1190" d=" M916,1508 L718,1508 L409,1728 L638,1728 M983,188 L952,0 L119,0 L360,1366 L1190,1366 L1159,1178 L536,1178 L465,788 L1055,788 L1025,610 L435,610 L357,188"/> 
            <glyph glyph-name="É" unicode="&#xC9;" horiz-adv-x="1190" d=" M634,1509 L940,1729 L1177,1729 L836,1509 M983,188 L952,0 L119,0 L360,1366 L1190,1366 L1159,1178 L536,1178 L465,788 L1055,788 L1025,610 L435,610 L357,188"/> 
            <glyph glyph-name="Ê" unicode="&#xCA;" horiz-adv-x="1190" d=" M435,1496 L729,1733 L907,1733 L1127,1496 L944,1496 L817,1634 L804,1634 L629,1496 M983,188 L952,0 L119,0 L360,1366 L1190,1366 L1159,1178 L536,1178 L465,788 L1055,788 L1025,610 L435,610 L357,188"/> 
            <glyph glyph-name="Ë" unicode="&#xCB;" horiz-adv-x="1190" d=" M510,1578 Q510,1626 541,1656 Q572,1686 620,1686 Q668,1686 698.5,1656 Q729,1626 729,1578 Q729,1531 698.5,1501.5 Q668,1472 620,1472 Q572,1472 541,1502 Q510,1532 510,1578 M870,1578 Q870,1626 900,1656 Q930,1686 976,1686 Q1026,1686 1057.5,1656.5 Q1089,1627 1089,1578 Q1089,1531 1057.5,1501.5 Q1026,1472 976,1472 Q930,1472 900,1502 Q870,1532 870,1578 M983,188 L952,0 L119,0 L360,1366 L1190,1366 L1159,1178 L536,1178 L465,788 L1055,788 L1025,610 L435,610 L357,188"/> 
            <glyph glyph-name="Ì" unicode="&#xCC;" horiz-adv-x="621" d=" M326,0 L119,0 L360,1366 L567,1366 M621,1508 L423,1508 L114,1728 L343,1728"/> 
            <glyph glyph-name="Í" unicode="&#xCD;" horiz-adv-x="882" d=" M326,0 L119,0 L360,1366 L567,1366 M339,1509 L645,1729 L882,1729 L541,1509"/> 
            <glyph glyph-name="Î" unicode="&#xCE;" horiz-adv-x="832" d=" M326,0 L119,0 L360,1366 L567,1366 M140,1496 L434,1733 L612,1733 L832,1496 L649,1496 L522,1634 L509,1634 L334,1496"/> 
            <glyph glyph-name="Ï" unicode="&#xCF;" horiz-adv-x="794" d=" M326,0 L119,0 L360,1366 L567,1366 M215,1578 Q215,1626 246,1656 Q277,1686 325,1686 Q373,1686 403.5,1656 Q434,1626 434,1578 Q434,1531 403.5,1501.5 Q373,1472 325,1472 Q277,1472 246,1502 Q215,1532 215,1578 M575,1578 Q575,1626 605,1656 Q635,1686 681,1686 Q731,1686 762.5,1656.5 Q794,1627 794,1578 Q794,1531 762.5,1501.5 Q731,1472 681,1472 Q635,1472 605,1502 Q575,1532 575,1578"/> 
            <glyph glyph-name="Ð" unicode="&#xD0;" horiz-adv-x="1407" d=" M454,1366 L863,1366 Q1125,1366 1266,1223.5 Q1407,1081 1407,842 Q1407,757 1397,696 Q1397,692 1384.5,622 Q1372,552 1371,548 Q1321,281 1131,140.5 Q941,0 621,0 L213,0 L320,598 L156,598 L188,793 L351,793 M631,1178 L560,793 L843,793 L811,598 L529,598 L453,188 L614,188 Q838,188 982,284 Q1126,380 1163,570 Q1165,576 1175.5,636 Q1186,696 1187,703 Q1196,756 1196,826 Q1196,1003 1094.5,1090.5 Q993,1178 800,1178"/> 
            <glyph glyph-name="Ñ" unicode="&#xD1;" horiz-adv-x="1420" d=" M1048,1449 Q1002,1449 963.5,1469 Q925,1489 904,1512.5 Q883,1536 855.5,1556 Q828,1576 801,1576 Q737,1576 730,1475 L604,1475 Q604,1567 653,1633 Q702,1699 797,1699 Q838,1699 872,1685.5 Q906,1672 928,1653 Q950,1634 969.5,1615.5 Q989,1597 1008.5,1583.5 Q1028,1570 1048,1570 Q1084,1570 1102,1604.5 Q1120,1639 1123,1682 L1249,1682 Q1249,1590 1196,1519.5 Q1143,1449 1048,1449 M1179,0 L992,0 L511,998 L500,998 L320,0 L119,0 L360,1366 L549,1366 L1025,368 L1037,368 L1218,1366 L1420,1366"/> 
            <glyph glyph-name="Ò" unicode="&#xD2;" horiz-adv-x="1341" d=" M1024,1508 L826,1508 L517,1728 L746,1728 M419,842 L385,662 Q371,580 371,513 Q371,354 462,261 Q553,168 715,168 Q864,168 958.5,261.5 Q1053,355 1086,540 L1121,732 Q1129,775 1129,860 Q1129,1014 1037,1107 Q945,1200 787,1200 Q645,1200 549.5,1113 Q454,1026 419,842 M175,676 L212,881 Q255,1124 411.5,1258.5 Q568,1393 793,1393 Q1040,1393 1190.5,1250 Q1341,1107 1341,858 Q1341,770 1326,695 L1288,489 Q1242,240 1092,106.5 Q942,-27 692,-27 Q460,-27 310.5,110.5 Q161,248 161,487 Q161,602 175,676"/> 
            <glyph glyph-name="Ó" unicode="&#xD3;" horiz-adv-x="1341" d=" M742,1509 L1048,1729 L1285,1729 L944,1509 M419,842 L385,662 Q371,580 371,513 Q371,354 462,261 Q553,168 715,168 Q864,168 958.5,261.5 Q1053,355 1086,540 L1121,732 Q1129,775 1129,860 Q1129,1014 1037,1107 Q945,1200 787,1200 Q645,1200 549.5,1113 Q454,1026 419,842 M175,676 L212,881 Q255,1124 411.5,1258.5 Q568,1393 793,1393 Q1040,1393 1190.5,1250 Q1341,1107 1341,858 Q1341,770 1326,695 L1288,489 Q1242,240 1092,106.5 Q942,-27 692,-27 Q460,-27 310.5,110.5 Q161,248 161,487 Q161,602 175,676"/> 
            <glyph glyph-name="Ô" unicode="&#xD4;" horiz-adv-x="1341" d=" M543,1496 L837,1733 L1015,1733 L1235,1496 L1052,1496 L925,1634 L912,1634 L737,1496 M419,842 L385,662 Q371,580 371,513 Q371,354 462,261 Q553,168 715,168 Q864,168 958.5,261.5 Q1053,355 1086,540 L1121,732 Q1129,775 1129,860 Q1129,1014 1037,1107 Q945,1200 787,1200 Q645,1200 549.5,1113 Q454,1026 419,842 M175,676 L212,881 Q255,1124 411.5,1258.5 Q568,1393 793,1393 Q1040,1393 1190.5,1250 Q1341,1107 1341,858 Q1341,770 1326,695 L1288,489 Q1242,240 1092,106.5 Q942,-27 692,-27 Q460,-27 310.5,110.5 Q161,248 161,487 Q161,602 175,676"/> 
            <glyph glyph-name="Õ" unicode="&#xD5;" horiz-adv-x="1341" d=" M419,842 L385,662 Q371,580 371,513 Q371,354 462,261 Q553,168 715,168 Q864,168 958.5,261.5 Q1053,355 1086,540 L1121,732 Q1129,775 1129,860 Q1129,1014 1037,1107 Q945,1200 787,1200 Q645,1200 549.5,1113 Q454,1026 419,842 M175,676 L212,881 Q255,1124 411.5,1258.5 Q568,1393 793,1393 Q1040,1393 1190.5,1250 Q1341,1107 1341,858 Q1341,770 1326,695 L1288,489 Q1242,240 1092,106.5 Q942,-27 692,-27 Q460,-27 310.5,110.5 Q161,248 161,487 Q161,602 175,676 M1015,1449 Q969,1449 930.5,1469 Q892,1489 871,1512.5 Q850,1536 822.5,1556 Q795,1576 768,1576 Q704,1576 697,1475 L571,1475 Q571,1567 620,1633 Q669,1699 764,1699 Q805,1699 839,1685.5 Q873,1672 895,1653 Q917,1634 936.5,1615.5 Q956,1597 975.5,1583.5 Q995,1570 1015,1570 Q1051,1570 1069,1604.5 Q1087,1639 1090,1682 L1216,1682 Q1216,1590 1163,1519.5 Q1110,1449 1015,1449"/> 
            <glyph glyph-name="Ö" unicode="&#xD6;" horiz-adv-x="1341" d=" M618,1578 Q618,1626 649,1656 Q680,1686 728,1686 Q776,1686 806.5,1656 Q837,1626 837,1578 Q837,1531 806.5,1501.5 Q776,1472 728,1472 Q680,1472 649,1502 Q618,1532 618,1578 M978,1578 Q978,1626 1008,1656 Q1038,1686 1084,1686 Q1134,1686 1165.5,1656.5 Q1197,1627 1197,1578 Q1197,1531 1165.5,1501.5 Q1134,1472 1084,1472 Q1038,1472 1008,1502 Q978,1532 978,1578 M419,842 L385,662 Q371,580 371,513 Q371,354 462,261 Q553,168 715,168 Q864,168 958.5,261.5 Q1053,355 1086,540 L1121,732 Q1129,775 1129,860 Q1129,1014 1037,1107 Q945,1200 787,1200 Q645,1200 549.5,1113 Q454,1026 419,842 M175,676 L212,881 Q255,1124 411.5,1258.5 Q568,1393 793,1393 Q1040,1393 1190.5,1250 Q1341,1107 1341,858 Q1341,770 1326,695 L1288,489 Q1242,240 1092,106.5 Q942,-27 692,-27 Q460,-27 310.5,110.5 Q161,248 161,487 Q161,602 175,676"/> 
            <glyph glyph-name="×" unicode="&#xD7;" horiz-adv-x="1077" d=" M1077,790 L715,497 L970,182 L840,64 L585,380 L241,89 L139,230 L482,520 L231,832 L362,949 L613,637 L975,930"/> 
            <glyph glyph-name="Ø" unicode="&#xD8;" horiz-adv-x="1425" d=" M171,676 L208,881 Q252,1124 408.5,1258.5 Q565,1393 790,1393 Q929,1393 1040.5,1346.5 Q1152,1300 1223,1212 L1332,1315 L1425,1219 L1293,1096 Q1338,989 1338,858 Q1338,777 1323,695 L1285,489 Q1239,240 1089,106.5 Q939,-27 688,-27 Q557,-27 448.5,18 Q340,63 269,149 L161,46 L73,147 L199,266 Q157,366 157,487 Q157,596 171,676 M1124,833 Q1124,884 1117,916 L423,303 Q513,169 714,169 Q862,169 956,262 Q1050,355 1083,540 L1116,717 Q1124,761 1124,833 M1072,1061 Q982,1199 783,1199 Q642,1199 546.5,1112.5 Q451,1026 416,842 L382,662 Q368,588 368,526 Q368,485 376,447"/> 
            <glyph glyph-name="Ù" unicode="&#xD9;" horiz-adv-x="1392" d=" M1028,1508 L830,1508 L521,1728 L750,1728 M553,1366 L408,541 Q400,507 400,449 Q400,324 478.5,248.5 Q557,173 694,173 Q820,173 907.5,244.5 Q995,316 1020,458 L1181,1366 L1392,1366 L1226,422 Q1187,200 1043,86.5 Q899,-27 687,-27 Q467,-27 326,91 Q185,209 185,417 Q185,462 198,548 L342,1366"/> 
            <glyph glyph-name="Ú" unicode="&#xDA;" horiz-adv-x="1392" d=" M746,1509 L1052,1729 L1289,1729 L948,1509 M553,1366 L408,541 Q400,507 400,449 Q400,324 478.5,248.5 Q557,173 694,173 Q820,173 907.5,244.5 Q995,316 1020,458 L1181,1366 L1392,1366 L1226,422 Q1187,200 1043,86.5 Q899,-27 687,-27 Q467,-27 326,91 Q185,209 185,417 Q185,462 198,548 L342,1366"/> 
            <glyph glyph-name="Û" unicode="&#xDB;" horiz-adv-x="1392" d=" M547,1496 L841,1733 L1019,1733 L1239,1496 L1056,1496 L929,1634 L916,1634 L741,1496 M553,1366 L408,541 Q400,507 400,449 Q400,324 478.5,248.5 Q557,173 694,173 Q820,173 907.5,244.5 Q995,316 1020,458 L1181,1366 L1392,1366 L1226,422 Q1187,200 1043,86.5 Q899,-27 687,-27 Q467,-27 326,91 Q185,209 185,417 Q185,462 198,548 L342,1366"/> 
            <glyph glyph-name="Ü" unicode="&#xDC;" horiz-adv-x="1392" d=" M622,1578 Q622,1626 653,1656 Q684,1686 732,1686 Q780,1686 810.5,1656 Q841,1626 841,1578 Q841,1531 810.5,1501.5 Q780,1472 732,1472 Q684,1472 653,1502 Q622,1532 622,1578 M982,1578 Q982,1626 1012,1656 Q1042,1686 1088,1686 Q1138,1686 1169.5,1656.5 Q1201,1627 1201,1578 Q1201,1531 1169.5,1501.5 Q1138,1472 1088,1472 Q1042,1472 1012,1502 Q982,1532 982,1578 M553,1366 L408,541 Q400,507 400,449 Q400,324 478.5,248.5 Q557,173 694,173 Q820,173 907.5,244.5 Q995,316 1020,458 L1181,1366 L1392,1366 L1226,422 Q1187,200 1043,86.5 Q899,-27 687,-27 Q467,-27 326,91 Q185,209 185,417 Q185,462 198,548 L342,1366"/> 
            <glyph glyph-name="Ý" unicode="&#xDD;" horiz-adv-x="1321" d=" M718,552 L620,0 L412,0 L510,548 L184,1366 L404,1366 L636,754 L647,754 L1085,1366 L1321,1366 M627,1509 L933,1729 L1170,1729 L829,1509"/> 
            <glyph glyph-name="Þ" unicode="&#xDE;" horiz-adv-x="1173" d=" M358,1366 L562,1366 L518,1113 L768,1113 Q962,1113 1067.5,1018 Q1173,923 1173,762 Q1173,724 1167,679 Q1114,287 619,287 L375,287 L323,0 L117,0 M725,931 L489,931 L405,468 L628,468 Q741,468 813.5,497 Q886,526 918,571.5 Q950,617 960,684 Q966,712 966,745 Q966,931 725,931"/> 
            <glyph glyph-name="ß" unicode="&#xDF;" horiz-adv-x="1190" d=" M324,0 L120,0 L325,1151 Q350,1292 461.5,1373 Q573,1454 741,1454 Q936,1454 1063,1349.5 Q1190,1245 1190,1074 Q1190,999 1161.5,933.5 Q1133,868 1088,826 Q1043,784 991.5,758 Q940,732 890,726 L889,716 Q1020,692 1102.5,602.5 Q1185,513 1185,355 Q1185,234 1124.5,144 Q1064,54 968.5,10.5 Q873,-33 758,-33 Q679,-33 607,-15.5 Q535,2 499,23 L529,193 Q556,177 615.5,161.5 Q675,146 734,146 Q838,146 912,206 Q986,266 986,376 Q986,497 900,566.5 Q814,636 693,637 L628,637 L661,828 L722,828 Q844,828 918.5,891 Q993,954 993,1062 Q993,1164 921,1219.5 Q849,1275 741,1275 Q650,1275 593,1231.5 Q536,1188 521,1103"/> 
            <glyph glyph-name="à" unicode="&#xE0;" horiz-adv-x="1011" d=" M414,-17 Q279,-17 188,63 Q97,143 97,280 Q97,302 99,316 Q110,459 220,539.5 Q330,620 526,620 L802,620 L813,687 Q816,717 816,731 Q816,802 766,852 Q716,902 610,902 Q525,902 472.5,870 Q420,838 403,786 L208,786 Q230,911 339.5,992.5 Q449,1074 624,1074 Q809,1074 910,983 Q1011,892 1011,737 Q1011,685 993,591 L889,0 L695,0 L720,140 L708,140 Q675,76 598.5,29.5 Q522,-17 414,-17 M300,303 Q300,236 348,193.5 Q396,151 479,151 Q579,151 657,207.5 Q735,264 751,351 L773,474 L528,474 Q417,474 358.5,425 Q300,376 300,303 M782,1227 L627,1227 L380,1581 L588,1581"/> 
            <glyph glyph-name="á" unicode="&#xE1;" horiz-adv-x="1020" d=" M414,-17 Q279,-17 188,63 Q97,143 97,280 Q97,302 99,316 Q110,459 220,539.5 Q330,620 526,620 L802,620 L813,687 Q816,717 816,731 Q816,802 766,852 Q716,902 610,902 Q525,902 472.5,870 Q420,838 403,786 L208,786 Q230,911 339.5,992.5 Q449,1074 624,1074 Q809,1074 910,983 Q1011,892 1011,737 Q1011,685 993,591 L889,0 L695,0 L720,140 L708,140 Q675,76 598.5,29.5 Q522,-17 414,-17 M300,303 Q300,236 348,193.5 Q396,151 479,151 Q579,151 657,207.5 Q735,264 751,351 L773,474 L528,474 Q417,474 358.5,425 Q300,376 300,303 M538,1233 L822,1587 L1020,1587 L683,1233"/> 
            <glyph glyph-name="â" unicode="&#xE2;" horiz-adv-x="1011" d=" M414,-17 Q279,-17 188,63 Q97,143 97,280 Q97,302 99,316 Q110,459 220,539.5 Q330,620 526,620 L802,620 L813,687 Q816,717 816,731 Q816,802 766,852 Q716,902 610,902 Q525,902 472.5,870 Q420,838 403,786 L208,786 Q230,911 339.5,992.5 Q449,1074 624,1074 Q809,1074 910,983 Q1011,892 1011,737 Q1011,685 993,591 L889,0 L695,0 L720,140 L708,140 Q675,76 598.5,29.5 Q522,-17 414,-17 M300,303 Q300,236 348,193.5 Q396,151 479,151 Q579,151 657,207.5 Q735,264 751,351 L773,474 L528,474 Q417,474 358.5,425 Q300,376 300,303 M354,1223 L662,1591 L804,1591 L986,1223 L821,1223 L717,1468 L711,1468 L521,1223"/> 
            <glyph glyph-name="ã" unicode="&#xE3;" horiz-adv-x="1012" d=" M414,-17 Q279,-17 188,63 Q97,143 97,280 Q97,302 99,316 Q110,459 220,539.5 Q330,620 526,620 L802,620 L813,687 Q816,717 816,731 Q816,802 766,852 Q716,902 610,902 Q525,902 472.5,870 Q420,838 403,786 L208,786 Q230,911 339.5,992.5 Q449,1074 624,1074 Q809,1074 910,983 Q1011,892 1011,737 Q1011,685 993,591 L889,0 L695,0 L720,140 L708,140 Q675,76 598.5,29.5 Q522,-17 414,-17 M300,303 Q300,236 348,193.5 Q396,151 479,151 Q579,151 657,207.5 Q735,264 751,351 L773,474 L528,474 Q417,474 358.5,425 Q300,376 300,303 M793,1181 Q753,1181 720,1198 Q687,1215 666.5,1239.5 Q646,1264 628,1288 Q610,1312 589,1329 Q568,1346 544,1346 Q482,1346 462,1232 L329,1232 Q338,1350 395,1420 Q452,1490 540,1490 Q582,1490 617,1473 Q652,1456 674,1432 Q696,1408 715,1384 Q734,1360 754,1343 Q774,1326 796,1326 Q830,1326 850.5,1361 Q871,1396 878,1441 L1012,1441 Q1007,1335 945.5,1258 Q884,1181 793,1181"/> 
            <glyph glyph-name="ä" unicode="&#xE4;" horiz-adv-x="1011" d=" M414,-17 Q279,-17 188,63 Q97,143 97,280 Q97,302 99,316 Q110,459 220,539.5 Q330,620 526,620 L802,620 L813,687 Q816,717 816,731 Q816,802 766,852 Q716,902 610,902 Q525,902 472.5,870 Q420,838 403,786 L208,786 Q230,911 339.5,992.5 Q449,1074 624,1074 Q809,1074 910,983 Q1011,892 1011,737 Q1011,685 993,591 L889,0 L695,0 L720,140 L708,140 Q675,76 598.5,29.5 Q522,-17 414,-17 M300,303 Q300,236 348,193.5 Q396,151 479,151 Q579,151 657,207.5 Q735,264 751,351 L773,474 L528,474 Q417,474 358.5,425 Q300,376 300,303 M382,1323 Q382,1374 414,1405.5 Q446,1437 497,1437 Q548,1437 580.5,1405.5 Q613,1374 613,1323 Q613,1274 580.5,1242.5 Q548,1211 497,1211 Q447,1211 414.5,1242.5 Q382,1274 382,1323 M758,1323 Q758,1374 790,1405.5 Q822,1437 870,1437 Q923,1437 956,1405.5 Q989,1374 989,1323 Q989,1274 956,1242.5 Q923,1211 870,1211 Q822,1211 790,1242.5 Q758,1274 758,1323"/> 
            <glyph glyph-name="å" unicode="&#xE5;" horiz-adv-x="1011" d=" M414,-17 Q279,-17 188,63 Q97,143 97,280 Q97,302 99,316 Q110,459 220,539.5 Q330,620 526,620 L802,620 L813,687 Q816,717 816,731 Q816,802 766,852 Q716,902 610,902 Q525,902 472.5,870 Q420,838 403,786 L208,786 Q230,911 339.5,992.5 Q449,1074 624,1074 Q809,1074 910,983 Q1011,892 1011,737 Q1011,685 993,591 L889,0 L695,0 L720,140 L708,140 Q675,76 598.5,29.5 Q522,-17 414,-17 M300,303 Q300,236 348,193.5 Q396,151 479,151 Q579,151 657,207.5 Q735,264 751,351 L773,474 L528,474 Q417,474 358.5,425 Q300,376 300,303 M710,1321 Q752,1321 781.5,1350 Q811,1379 811,1420 Q811,1462 781.5,1490.5 Q752,1519 710,1519 Q668,1519 638,1490.5 Q608,1462 608,1420 Q608,1380 638.5,1350.5 Q669,1321 710,1321 M709,1220 Q626,1220 569,1278.5 Q512,1337 512,1420 Q512,1504 570,1561.5 Q628,1619 711,1619 Q793,1619 849.5,1561 Q906,1503 906,1420 Q906,1336 848.5,1278 Q791,1220 709,1220"/> 
            <glyph glyph-name="æ" unicode="&#xE6;" horiz-adv-x="1694" d=" M1204,-19 Q1076,-19 981.5,39 Q887,97 844,205 L840,205 Q716,-17 447,-17 Q285,-17 191,62 Q97,141 97,288 Q97,449 211,533.5 Q325,618 529,618 L800,618 L813,692 Q816,713 816,733 Q816,802 765.5,853 Q715,904 609,904 Q525,904 472.5,871 Q420,838 403,786 L208,786 Q229,910 339,992 Q449,1074 619,1074 Q846,1074 941,930 L945,930 Q1005,998 1095,1036 Q1185,1074 1293,1074 Q1405,1074 1488,1034.5 Q1571,995 1615.5,930 Q1660,865 1677,787 Q1694,709 1684,625 Q1684,617 1660,479 L977,479 Q967,421 967,393 Q967,291 1024.5,224 Q1082,157 1203,157 Q1290,157 1349,192 Q1408,227 1424,282 L1621,282 Q1603,163 1487,72 Q1371,-19 1204,-19 M300,303 Q300,237 347.5,195.5 Q395,154 479,154 Q580,154 656.5,212.5 Q733,271 751,363 L774,476 L528,476 Q416,476 358,426 Q300,376 300,303 M1492,624 Q1496,636 1496,645 Q1515,755 1459,829.5 Q1403,904 1285,904 Q1187,904 1112,847.5 Q1037,791 1015,684 Q1002,633 1002,624"/> 
            <glyph glyph-name="ç" unicode="&#xE7;" horiz-adv-x="1038" d=" M453,-482 Q369,-482 297,-457 L315,-345 Q377,-364 442,-364 Q548,-364 549,-297 L549,-294 Q549,-228 416,-228 L364,-228 L374,-151 L420,-3 Q282,33 204,136.5 Q126,240 126,394 Q126,459 139,542 L164,678 Q197,872 321,973 Q445,1074 628,1074 Q813,1074 925.5,976.5 Q1038,879 1038,728 Q1038,711 1037,708 L847,708 Q848,710 848,720 Q848,787 788,842.5 Q728,898 627,898 Q524,898 452,830.5 Q380,763 357,639 L337,526 Q327,475 327,424 Q327,301 387,232 Q447,163 565,163 Q652,163 707.5,198.5 Q763,234 777,290 L977,290 Q955,150 842,68 Q729,-14 566,-18 L552,-18 L518,-127 Q600,-129 650.5,-169 Q701,-209 701,-281 Q701,-282 700.5,-286 Q700,-290 700,-291 Q697,-383 628.5,-432.5 Q560,-482 453,-482"/> 
            <glyph glyph-name="è" unicode="&#xE8;" horiz-adv-x="1049" d=" M805,1227 L650,1227 L403,1581 L611,1581 M542,-19 Q356,-19 240,87.5 Q124,194 124,391 Q124,461 141,546 L165,677 Q198,867 326.5,970.5 Q455,1074 641,1074 Q754,1074 838.5,1034.5 Q923,995 968,930 Q1013,865 1031,787 Q1049,709 1038,625 Q1038,623 1032.5,592 Q1027,561 1020,523.5 Q1013,486 1012,479 L328,479 Q319,443 319,391 Q319,291 376.5,224 Q434,157 556,157 Q644,157 702.5,192.5 Q761,228 777,282 L975,282 Q966,225 931.5,171.5 Q897,118 843,75.5 Q789,33 710.5,7 Q632,-19 542,-19 M842,624 Q845,633 845,645 Q865,755 809,829.5 Q753,904 635,904 Q539,904 466,848.5 Q393,793 369,684 L356,624"/> 
            <glyph glyph-name="é" unicode="&#xE9;" horiz-adv-x="1049" d=" M562,1233 L846,1587 L1044,1587 L707,1233 M542,-19 Q356,-19 240,87.5 Q124,194 124,391 Q124,461 141,546 L165,677 Q198,867 326.5,970.5 Q455,1074 641,1074 Q754,1074 838.5,1034.5 Q923,995 968,930 Q1013,865 1031,787 Q1049,709 1038,625 Q1038,623 1032.5,592 Q1027,561 1020,523.5 Q1013,486 1012,479 L328,479 Q319,443 319,391 Q319,291 376.5,224 Q434,157 556,157 Q644,157 702.5,192.5 Q761,228 777,282 L975,282 Q966,225 931.5,171.5 Q897,118 843,75.5 Q789,33 710.5,7 Q632,-19 542,-19 M842,624 Q845,633 845,645 Q865,755 809,829.5 Q753,904 635,904 Q539,904 466,848.5 Q393,793 369,684 L356,624"/> 
            <glyph glyph-name="ê" unicode="&#xEA;" horiz-adv-x="1049" d=" M378,1223 L686,1591 L828,1591 L1010,1223 L845,1223 L741,1468 L735,1468 L545,1223 M542,-19 Q356,-19 240,87.5 Q124,194 124,391 Q124,461 141,546 L165,677 Q198,867 326.5,970.5 Q455,1074 641,1074 Q754,1074 838.5,1034.5 Q923,995 968,930 Q1013,865 1031,787 Q1049,709 1038,625 Q1038,623 1032.5,592 Q1027,561 1020,523.5 Q1013,486 1012,479 L328,479 Q319,443 319,391 Q319,291 376.5,224 Q434,157 556,157 Q644,157 702.5,192.5 Q761,228 777,282 L975,282 Q966,225 931.5,171.5 Q897,118 843,75.5 Q789,33 710.5,7 Q632,-19 542,-19 M842,624 Q845,633 845,645 Q865,755 809,829.5 Q753,904 635,904 Q539,904 466,848.5 Q393,793 369,684 L356,624"/> 
            <glyph glyph-name="ë" unicode="&#xEB;" horiz-adv-x="1049" d=" M542,-19 Q356,-19 240,87.5 Q124,194 124,391 Q124,461 141,546 L165,677 Q198,867 326.5,970.5 Q455,1074 641,1074 Q754,1074 838.5,1034.5 Q923,995 968,930 Q1013,865 1031,787 Q1049,709 1038,625 Q1038,623 1032.5,592 Q1027,561 1020,523.5 Q1013,486 1012,479 L328,479 Q319,443 319,391 Q319,291 376.5,224 Q434,157 556,157 Q644,157 702.5,192.5 Q761,228 777,282 L975,282 Q966,225 931.5,171.5 Q897,118 843,75.5 Q789,33 710.5,7 Q632,-19 542,-19 M842,624 Q845,633 845,645 Q865,755 809,829.5 Q753,904 635,904 Q539,904 466,848.5 Q393,793 369,684 L356,624 M406,1323 Q406,1374 438,1405.5 Q470,1437 521,1437 Q572,1437 604.5,1405.5 Q637,1374 637,1323 Q637,1274 604.5,1242.5 Q572,1211 521,1211 Q471,1211 438.5,1242.5 Q406,1274 406,1323 M782,1323 Q782,1374 814,1405.5 Q846,1437 894,1437 Q947,1437 980,1405.5 Q1013,1374 1013,1323 Q1013,1274 980,1242.5 Q947,1211 894,1211 Q846,1211 814,1242.5 Q782,1274 782,1323"/> 
            <glyph glyph-name="ì" unicode="&#xEC;" horiz-adv-x="542" d=" M542,1227 L387,1227 L140,1581 L348,1581 M115,0 L303,1056 L506,1056 L318,0"/> 
            <glyph glyph-name="í" unicode="&#xED;" horiz-adv-x="780" d=" M298,1233 L582,1587 L780,1587 L443,1233 M115,0 L303,1056 L506,1056 L318,0"/> 
            <glyph glyph-name="î" unicode="&#xEE;" horiz-adv-x="746" d=" M114,1223 L422,1591 L564,1591 L746,1223 L581,1223 L477,1468 L471,1468 L281,1223 M115,0 L303,1056 L506,1056 L318,0"/> 
            <glyph glyph-name="ï" unicode="&#xEF;" horiz-adv-x="749" d=" M115,0 L303,1056 L506,1056 L318,0 M142,1323 Q142,1374 174,1405.5 Q206,1437 257,1437 Q308,1437 340.5,1405.5 Q373,1374 373,1323 Q373,1274 340.5,1242.5 Q308,1211 257,1211 Q207,1211 174.5,1242.5 Q142,1274 142,1323 M518,1323 Q518,1374 550,1405.5 Q582,1437 630,1437 Q683,1437 716,1405.5 Q749,1374 749,1323 Q749,1274 716,1242.5 Q683,1211 630,1211 Q582,1211 550,1242.5 Q518,1274 518,1323"/> 
            <glyph glyph-name="ð" unicode="&#xF0;" horiz-adv-x="1218" d=" M1035,389 Q1001,206 879.5,92.5 Q758,-21 569,-21 Q370,-21 248,99 Q126,219 126,418 Q126,476 137,538 Q138,548 147,598 Q156,648 157,649 Q189,824 311,925.5 Q433,1027 600,1027 Q716,1027 788.5,982 Q861,937 899,874 L906,873 Q906,875 905.5,907 Q905,939 904,943 Q902,1069 822,1201 L530,1135 L513,1251 L754,1303 Q680,1401 589,1482 L761,1554 Q855,1485 944,1355 L1195,1412 L1218,1300 L1009,1256 Q1114,1056 1100,804 Q1100,733 1086,657 M626,858 Q514,858 440.5,784.5 Q367,711 347,588 L334,512 Q327,459 327,422 Q327,303 391,231 Q455,159 569,159 Q679,159 749,230.5 Q819,302 841,428 L856,515 Q865,561 865,608 Q865,725 799.5,791.5 Q734,858 626,858"/> 
            <glyph glyph-name="ñ" unicode="&#xF1;" horiz-adv-x="1103" d=" M876,1181 Q836,1181 803,1198 Q770,1215 749.5,1239.5 Q729,1264 711,1288 Q693,1312 672,1329 Q651,1346 627,1346 Q565,1346 545,1232 L412,1232 Q421,1350 478,1420 Q535,1490 623,1490 Q665,1490 700,1473 Q735,1456 757,1432 Q779,1408 798,1384 Q817,1360 837,1343 Q857,1326 879,1326 Q913,1326 933.5,1361 Q954,1396 961,1441 L1095,1441 Q1090,1335 1028.5,1258 Q967,1181 876,1181 M102,0 L288,1056 L488,1056 L456,887 L470,887 Q513,974 591.5,1023 Q670,1072 781,1072 Q862,1072 925,1046 Q988,1020 1026,974.5 Q1064,929 1083.5,871 Q1103,813 1103,746 Q1103,680 1082,565 L982,0 L778,0 L880,576 Q893,654 893,697 Q893,786 846.5,841.5 Q800,897 704,897 Q584,897 510,816.5 Q436,736 413,605 L306,0"/> 
            <glyph glyph-name="ò" unicode="&#xF2;" horiz-adv-x="1080" d=" M827,1227 L672,1227 L425,1581 L633,1581 M362,634 L342,520 Q331,463 331,416 Q331,301 398,230.5 Q465,160 581,160 Q688,160 756.5,232 Q825,304 848,434 L869,556 Q874,585 874,648 Q874,758 807.5,828 Q741,898 628,898 Q525,898 454.5,830 Q384,762 362,634 M141,548 L162,670 Q195,855 322,964.5 Q449,1074 631,1074 Q832,1074 956,958 Q1080,842 1080,639 Q1080,580 1068,513 L1045,390 Q1009,200 887,91.5 Q765,-17 564,-17 Q375,-17 252,95.5 Q129,208 129,403 Q129,485 141,548"/> 
            <glyph glyph-name="ó" unicode="&#xF3;" horiz-adv-x="1080" d=" M583,1233 L867,1587 L1065,1587 L728,1233 M362,634 L342,520 Q331,463 331,416 Q331,301 398,230.5 Q465,160 581,160 Q688,160 756.5,232 Q825,304 848,434 L869,556 Q874,585 874,648 Q874,758 807.5,828 Q741,898 628,898 Q525,898 454.5,830 Q384,762 362,634 M141,548 L162,670 Q195,855 322,964.5 Q449,1074 631,1074 Q832,1074 956,958 Q1080,842 1080,639 Q1080,580 1068,513 L1045,390 Q1009,200 887,91.5 Q765,-17 564,-17 Q375,-17 252,95.5 Q129,208 129,403 Q129,485 141,548"/> 
            <glyph glyph-name="ô" unicode="&#xF4;" horiz-adv-x="1080" d=" M399,1223 L707,1591 L849,1591 L1031,1223 L866,1223 L762,1468 L756,1468 L566,1223 M362,634 L342,520 Q331,463 331,416 Q331,301 398,230.5 Q465,160 581,160 Q688,160 756.5,232 Q825,304 848,434 L869,556 Q874,585 874,648 Q874,758 807.5,828 Q741,898 628,898 Q525,898 454.5,830 Q384,762 362,634 M141,548 L162,670 Q195,855 322,964.5 Q449,1074 631,1074 Q832,1074 956,958 Q1080,842 1080,639 Q1080,580 1068,513 L1045,390 Q1009,200 887,91.5 Q765,-17 564,-17 Q375,-17 252,95.5 Q129,208 129,403 Q129,485 141,548"/> 
            <glyph glyph-name="õ" unicode="&#xF5;" horiz-adv-x="1080" d=" M838,1181 Q798,1181 765,1198 Q732,1215 711.5,1239.5 Q691,1264 673,1288 Q655,1312 634,1329 Q613,1346 589,1346 Q527,1346 507,1232 L374,1232 Q383,1350 440,1420 Q497,1490 585,1490 Q627,1490 662,1473 Q697,1456 719,1432 Q741,1408 760,1384 Q779,1360 799,1343 Q819,1326 841,1326 Q875,1326 895.5,1361 Q916,1396 923,1441 L1057,1441 Q1052,1335 990.5,1258 Q929,1181 838,1181 M362,634 L342,520 Q331,463 331,416 Q331,301 398,230.5 Q465,160 581,160 Q688,160 756.5,232 Q825,304 848,434 L869,556 Q874,585 874,648 Q874,758 807.5,828 Q741,898 628,898 Q525,898 454.5,830 Q384,762 362,634 M141,548 L162,670 Q195,855 322,964.5 Q449,1074 631,1074 Q832,1074 956,958 Q1080,842 1080,639 Q1080,580 1068,513 L1045,390 Q1009,200 887,91.5 Q765,-17 564,-17 Q375,-17 252,95.5 Q129,208 129,403 Q129,485 141,548"/> 
            <glyph glyph-name="ö" unicode="&#xF6;" horiz-adv-x="1080" d=" M427,1323 Q427,1374 459,1405.5 Q491,1437 542,1437 Q593,1437 625.5,1405.5 Q658,1374 658,1323 Q658,1274 625.5,1242.5 Q593,1211 542,1211 Q492,1211 459.5,1242.5 Q427,1274 427,1323 M803,1323 Q803,1374 834.5,1405.5 Q866,1437 915,1437 Q968,1437 1001,1405.5 Q1034,1374 1034,1323 Q1034,1274 1001,1242.5 Q968,1211 915,1211 Q867,1211 835,1242.5 Q803,1274 803,1323 M362,634 L342,520 Q331,463 331,416 Q331,301 398,230.5 Q465,160 581,160 Q688,160 756.5,232 Q825,304 848,434 L869,556 Q874,585 874,648 Q874,758 807.5,828 Q741,898 628,898 Q525,898 454.5,830 Q384,762 362,634 M141,548 L162,670 Q195,855 322,964.5 Q449,1074 631,1074 Q832,1074 956,958 Q1080,842 1080,639 Q1080,580 1068,513 L1045,390 Q1009,200 887,91.5 Q765,-17 564,-17 Q375,-17 252,95.5 Q129,208 129,403 Q129,485 141,548"/> 
            <glyph glyph-name="÷" unicode="&#xF7;" horiz-adv-x="1124" d=" M519,955 Q519,1018 560.5,1058 Q602,1098 665,1098 Q730,1098 771,1058.5 Q812,1019 812,958 Q812,896 770,857 Q728,818 662,818 Q600,818 559.5,856.5 Q519,895 519,955 M418,146 Q418,208 459.5,248.5 Q501,289 563,289 Q627,289 668.5,249.5 Q710,210 710,149 Q710,88 668,48.5 Q626,9 561,9 Q499,9 458.5,47.5 Q418,86 418,146 M1095,465 L119,465 L149,634 L1124,634"/> 
            <glyph glyph-name="ø" unicode="&#xF8;" horiz-adv-x="1182" d=" M137,548 L158,670 Q191,855 318,964.5 Q445,1074 627,1074 Q849,1074 971,938 L1094,1049 L1182,950 L1041,825 Q1076,739 1076,639 Q1076,580 1064,513 L1041,390 Q1005,200 883,91.5 Q761,-17 560,-17 Q356,-17 235,107 L109,-6 L28,92 L163,213 Q125,298 125,403 Q125,485 137,548 M358,634 L337,520 Q328,470 328,426 Q328,392 333,370 L828,796 Q761,898 624,898 Q521,898 450.5,830 Q380,762 358,634 M378,249 Q445,160 577,160 Q684,160 752.5,232 Q821,304 844,434 L865,556 Q869,579 869,632 Q869,645 867,667"/> 
            <glyph glyph-name="ù" unicode="&#xF9;" horiz-adv-x="1150" d=" M851,1227 L696,1227 L449,1581 L657,1581 M1150,1056 L964,0 L771,0 L802,175 L788,175 Q748,90 668,36.5 Q588,-17 478,-17 Q323,-17 236,73.5 Q149,164 149,308 Q149,383 169,489 L272,1056 L475,1056 L373,484 Q359,410 359,356 Q359,266 410,215.5 Q461,165 559,165 Q678,165 750.5,245 Q823,325 846,456 L952,1056"/> 
            <glyph glyph-name="ú" unicode="&#xFA;" horiz-adv-x="1150" d=" M607,1233 L891,1587 L1089,1587 L752,1233 M1150,1056 L964,0 L771,0 L802,175 L788,175 Q748,90 668,36.5 Q588,-17 478,-17 Q323,-17 236,73.5 Q149,164 149,308 Q149,383 169,489 L272,1056 L475,1056 L373,484 Q359,410 359,356 Q359,266 410,215.5 Q461,165 559,165 Q678,165 750.5,245 Q823,325 846,456 L952,1056"/> 
            <glyph glyph-name="û" unicode="&#xFB;" horiz-adv-x="1150" d=" M423,1223 L731,1591 L873,1591 L1055,1223 L890,1223 L786,1468 L780,1468 L590,1223 M1150,1056 L964,0 L771,0 L802,175 L788,175 Q748,90 668,36.5 Q588,-17 478,-17 Q323,-17 236,73.5 Q149,164 149,308 Q149,383 169,489 L272,1056 L475,1056 L373,484 Q359,410 359,356 Q359,266 410,215.5 Q461,165 559,165 Q678,165 750.5,245 Q823,325 846,456 L952,1056"/> 
            <glyph glyph-name="ü" unicode="&#xFC;" horiz-adv-x="1150" d=" M1150,1056 L964,0 L771,0 L802,175 L788,175 Q748,90 668,36.5 Q588,-17 478,-17 Q323,-17 236,73.5 Q149,164 149,308 Q149,383 169,489 L272,1056 L475,1056 L373,484 Q359,410 359,356 Q359,266 410,215.5 Q461,165 559,165 Q678,165 750.5,245 Q823,325 846,456 L952,1056 M451,1323 Q451,1374 483,1405.5 Q515,1437 566,1437 Q617,1437 649.5,1405.5 Q682,1374 682,1323 Q682,1274 649.5,1242.5 Q617,1211 566,1211 Q516,1211 483.5,1242.5 Q451,1274 451,1323 M827,1323 Q827,1374 858.5,1405.5 Q890,1437 939,1437 Q992,1437 1025,1405.5 Q1058,1374 1058,1323 Q1058,1274 1025,1242.5 Q992,1211 939,1211 Q891,1211 859,1242.5 Q827,1274 827,1323"/> 
            <glyph glyph-name="ý" unicode="&#xFD;" horiz-adv-x="1119" d=" M1119,1056 L588,10 Q587,7 568,-27 Q549,-61 549,-62 Q506,-145 470.5,-195 Q435,-245 385.5,-284 Q336,-323 272,-338.5 Q208,-354 118,-354 Q66,-354 14,-341 L49,-174 Q89,-184 129,-184 Q213,-184 259,-146.5 Q305,-109 340,-35 L363,18 L172,1056 L384,1056 L505,220 L517,220 L903,1056 M551,1233 L835,1587 L1033,1587 L696,1233"/> 
            <glyph glyph-name="þ" unicode="&#xFE;" horiz-adv-x="1132" d=" M670,-17 Q537,-17 453,48.5 Q369,114 347,206 L340,206 L242,-357 L38,-357 L354,1437 L552,1437 L456,880 L469,880 Q554,1071 773,1071 Q936,1071 1034,964.5 Q1132,858 1132,670 Q1132,598 1123,547 L1092,380 Q1061,202 949,92.5 Q837,-17 670,-17 M386,433 Q386,309 459.5,238.5 Q533,168 634,168 Q736,168 808,241 Q880,314 900,429 L925,562 Q930,594 930,636 Q930,761 868.5,828 Q807,895 699,895 Q583,895 508.5,820 Q434,745 413,616 L392,487 Q386,458 386,433"/> 
            <glyph glyph-name="ÿ" unicode="&#xFF;" horiz-adv-x="1119" d=" M1119,1056 L588,10 Q587,7 568,-27 Q549,-61 549,-62 Q506,-145 470.5,-195 Q435,-245 385.5,-284 Q336,-323 272,-338.5 Q208,-354 118,-354 Q66,-354 14,-341 L49,-174 Q89,-184 129,-184 Q213,-184 259,-146.5 Q305,-109 340,-35 L363,18 L172,1056 L384,1056 L505,220 L517,220 L903,1056 M395,1323 Q395,1374 427,1405.5 Q459,1437 510,1437 Q561,1437 593.5,1405.5 Q626,1374 626,1323 Q626,1274 593.5,1242.5 Q561,1211 510,1211 Q460,1211 427.5,1242.5 Q395,1274 395,1323 M771,1323 Q771,1374 802.5,1405.5 Q834,1437 883,1437 Q936,1437 969,1405.5 Q1002,1374 1002,1323 Q1002,1274 969,1242.5 Q936,1211 883,1211 Q835,1211 803,1242.5 Q771,1274 771,1323"/> 
            <glyph glyph-name="Ā" unicode="&#x100;" horiz-adv-x="1191" d=" M-22,0 L692,1366 L927,1366 L1161,0 L944,0 L885,383 L394,383 L197,0 M779,1131 L765,1131 L474,554 L864,554 M1191,1626 L1171,1506 L491,1506 L511,1626"/> 
            <glyph glyph-name="ā" unicode="&#x101;" horiz-adv-x="1011" d=" M414,-17 Q279,-17 188,63 Q97,143 97,280 Q97,302 99,316 Q110,459 220,539.5 Q330,620 526,620 L802,620 L813,687 Q816,717 816,731 Q816,802 766,852 Q716,902 610,902 Q525,902 472.5,870 Q420,838 403,786 L208,786 Q230,911 339.5,992.5 Q449,1074 624,1074 Q809,1074 910,983 Q1011,892 1011,737 Q1011,685 993,591 L889,0 L695,0 L720,140 L708,140 Q675,76 598.5,29.5 Q522,-17 414,-17 M300,303 Q300,236 348,193.5 Q396,151 479,151 Q579,151 657,207.5 Q735,264 751,351 L773,474 L528,474 Q417,474 358.5,425 Q300,376 300,303 M986,1282 L381,1282 L403,1409 L1007,1409"/> 
            <glyph glyph-name="Ă" unicode="&#x102;" horiz-adv-x="1182" d=" M-22,0 L692,1366 L927,1366 L1161,0 L944,0 L885,383 L394,383 L197,0 M779,1131 L765,1131 L474,554 L864,554 M541,1754 L677,1754 Q676,1692 724,1652.5 Q772,1613 849,1613 Q929,1613 983.5,1653.5 Q1038,1694 1046,1754 L1182,1754 Q1174,1641 1083,1561 Q992,1481 842,1481 Q740,1481 667.5,1521.5 Q595,1562 564.5,1623 Q534,1684 541,1754"/> 
            <glyph glyph-name="ă" unicode="&#x103;" horiz-adv-x="1011" d=" M414,-17 Q279,-17 188,63 Q97,143 97,280 Q97,302 99,316 Q110,459 220,539.5 Q330,620 526,620 L802,620 L813,687 Q816,717 816,731 Q816,802 766,852 Q716,902 610,902 Q525,902 472.5,870 Q420,838 403,786 L208,786 Q230,911 339.5,992.5 Q449,1074 624,1074 Q809,1074 910,983 Q1011,892 1011,737 Q1011,685 993,591 L889,0 L695,0 L720,140 L708,140 Q675,76 598.5,29.5 Q522,-17 414,-17 M300,303 Q300,236 348,193.5 Q396,151 479,151 Q579,151 657,207.5 Q735,264 751,351 L773,474 L528,474 Q417,474 358.5,425 Q300,376 300,303 M414,1503 L545,1503 Q536,1438 575,1391 Q614,1344 695,1344 Q775,1344 820,1389 Q865,1434 876,1503 L1007,1503 Q1002,1449 980,1399 Q958,1349 920,1308 Q882,1267 822.5,1242.5 Q763,1218 690,1218 Q542,1218 467.5,1305.5 Q393,1393 414,1503"/> 
            <glyph glyph-name="Ą" unicode="&#x104;" horiz-adv-x="1156" d=" M993,-370 Q902,-370 845.5,-320 Q789,-270 793,-190 Q795,-37 960,34 L960,39 L938,39 L885,383 L394,383 L197,0 L-22,0 L692,1366 L927,1366 L1156,35 Q1073,14 1018,-31 Q963,-76 962,-143 Q961,-183 987.5,-205.5 Q1014,-228 1063,-228 Q1102,-228 1142,-219 L1120,-350 Q1078,-370 993,-370 M779,1131 L765,1131 L474,554 L864,554"/> 
            <glyph glyph-name="ą" unicode="&#x105;" horiz-adv-x="1011" d=" M300,307 Q300,240 348,197 Q396,154 479,154 Q578,154 655,211 Q732,268 750,355 L774,476 L528,476 Q417,476 358.5,428 Q300,380 300,307 M837,-366 Q779,-387 704,-387 Q613,-387 555,-336 Q497,-285 510,-190 Q513,-173 518.5,-156.5 Q524,-140 528.5,-128 Q533,-116 544.5,-101.5 Q556,-87 560.5,-79.5 Q565,-72 582,-58 Q599,-44 602.5,-40 Q606,-36 627,-22.5 Q648,-9 650.5,-7.5 Q653,-6 677,8 L701,23 L720,140 L708,140 Q675,76 598.5,29.5 Q522,-17 414,-17 Q279,-17 188,63 Q97,143 97,280 Q97,309 99,327 Q114,464 223,541 Q332,618 526,618 L800,618 L813,687 Q816,717 816,731 Q816,802 766,853 Q716,904 610,904 Q525,904 472.5,871 Q420,838 403,786 L208,786 Q230,911 339.5,992.5 Q449,1074 624,1074 Q809,1074 910,982 Q1011,890 1011,735 Q1011,685 993,591 L892,20 Q860,9 830,-5 Q800,-19 765.5,-40.5 Q731,-62 707.5,-91.5 Q684,-121 679,-153 Q672,-195 699.5,-218 Q727,-241 776,-241 Q825,-241 858,-232"/> 
            <glyph glyph-name="Ć" unicode="&#x106;" horiz-adv-x="1288" d=" M689,1509 L995,1729 L1232,1729 L891,1509 M421,841 L384,662 Q371,593 371,511 Q371,343 462.5,257 Q554,171 698,171 Q827,171 905.5,233.5 Q984,296 1004,392 L1206,392 Q1203,365 1199,351 Q1186,280 1149.5,215.5 Q1113,151 1051.5,95 Q990,39 894.5,6 Q799,-27 682,-27 Q596,-27 519,-7 Q442,13 376,56 Q310,99 262.5,161 Q215,223 188,312.5 Q161,402 161,510 Q161,594 170,650 L215,878 Q262,1125 414.5,1259 Q567,1393 788,1393 Q902,1393 998,1357.5 Q1094,1322 1156.5,1262.5 Q1219,1203 1253.5,1128 Q1288,1053 1288,972 Q1288,932 1284,918 L1085,918 Q1085,921 1085,929.5 Q1085,938 1085,944.5 Q1085,951 1085,956 Q1081,1000 1061,1041 Q1041,1082 1006,1118 Q971,1154 913,1175.5 Q855,1197 784,1197 Q494,1197 421,841"/> 
            <glyph glyph-name="ć" unicode="&#x107;" horiz-adv-x="1039" d=" M127,394 Q127,468 140,542 L164,678 Q198,872 322,973 Q446,1074 629,1074 Q814,1074 926.5,976.5 Q1039,879 1039,728 Q1039,711 1038,708 L843,708 Q844,712 844,720 Q844,787 786.5,842.5 Q729,898 628,898 Q525,898 452.5,830.5 Q380,763 358,639 L338,526 Q328,475 328,424 Q328,301 388,232 Q448,163 566,163 Q653,163 709,198.5 Q765,234 779,290 L978,290 Q955,145 838.5,63 Q722,-19 555,-19 Q360,-19 243.5,93 Q127,205 127,394 M554,1233 L838,1587 L1036,1587 L699,1233"/> 
            <glyph glyph-name="Ĉ" unicode="&#x108;" horiz-adv-x="1288" d=" M421,841 L384,662 Q371,593 371,511 Q371,343 462.5,257 Q554,171 698,171 Q827,171 905.5,233.5 Q984,296 1004,392 L1206,392 Q1203,365 1199,351 Q1186,280 1149.5,215.5 Q1113,151 1051.5,95 Q990,39 894.5,6 Q799,-27 682,-27 Q596,-27 519,-7 Q442,13 376,56 Q310,99 262.5,161 Q215,223 188,312.5 Q161,402 161,510 Q161,594 170,650 L215,878 Q262,1125 414.5,1259 Q567,1393 788,1393 Q902,1393 998,1357.5 Q1094,1322 1156.5,1262.5 Q1219,1203 1253.5,1128 Q1288,1053 1288,972 Q1288,932 1284,918 L1085,918 Q1085,921 1085,929.5 Q1085,938 1085,944.5 Q1085,951 1085,956 Q1081,1000 1061,1041 Q1041,1082 1006,1118 Q971,1154 913,1175.5 Q855,1197 784,1197 Q494,1197 421,841 M485,1496 L779,1733 L957,1733 L1177,1496 L994,1496 L867,1634 L854,1634 L679,1496"/> 
            <glyph glyph-name="ĉ" unicode="&#x109;" horiz-adv-x="1039" d=" M370,1223 L678,1591 L820,1591 L1002,1223 L837,1223 L733,1468 L727,1468 L537,1223 M127,394 Q127,468 140,542 L164,678 Q198,872 322,973 Q446,1074 629,1074 Q814,1074 926.5,976.5 Q1039,879 1039,728 Q1039,711 1038,708 L843,708 Q844,712 844,720 Q844,787 786.5,842.5 Q729,898 628,898 Q525,898 452.5,830.5 Q380,763 358,639 L338,526 Q328,475 328,424 Q328,301 388,232 Q448,163 566,163 Q653,163 709,198.5 Q765,234 779,290 L978,290 Q955,145 838.5,63 Q722,-19 555,-19 Q360,-19 243.5,93 Q127,205 127,394"/> 
            <glyph glyph-name="Ċ" unicode="&#x10A;" horiz-adv-x="1288" d=" M745,1603 Q745,1653 777.5,1686.5 Q810,1720 857,1720 Q906,1720 939,1686.5 Q972,1653 972,1603 Q972,1554 939,1520.5 Q906,1487 857,1487 Q810,1487 777.5,1520.5 Q745,1554 745,1603 M421,841 L384,662 Q371,593 371,511 Q371,343 462.5,257 Q554,171 698,171 Q827,171 905.5,233.5 Q984,296 1004,392 L1206,392 Q1203,365 1199,351 Q1186,280 1149.5,215.5 Q1113,151 1051.5,95 Q990,39 894.5,6 Q799,-27 682,-27 Q596,-27 519,-7 Q442,13 376,56 Q310,99 262.5,161 Q215,223 188,312.5 Q161,402 161,510 Q161,594 170,650 L215,878 Q262,1125 414.5,1259 Q567,1393 788,1393 Q902,1393 998,1357.5 Q1094,1322 1156.5,1262.5 Q1219,1203 1253.5,1128 Q1288,1053 1288,972 Q1288,932 1284,918 L1085,918 Q1085,921 1085,929.5 Q1085,938 1085,944.5 Q1085,951 1085,956 Q1081,1000 1061,1041 Q1041,1082 1006,1118 Q971,1154 913,1175.5 Q855,1197 784,1197 Q494,1197 421,841"/> 
            <glyph glyph-name="ċ" unicode="&#x10B;" horiz-adv-x="1039" d=" M127,394 Q127,468 140,542 L164,678 Q198,872 322,973 Q446,1074 629,1074 Q814,1074 926.5,976.5 Q1039,879 1039,728 Q1039,711 1038,708 L843,708 Q844,712 844,720 Q844,787 786.5,842.5 Q729,898 628,898 Q525,898 452.5,830.5 Q380,763 358,639 L338,526 Q328,475 328,424 Q328,301 388,232 Q448,163 566,163 Q653,163 709,198.5 Q765,234 779,290 L978,290 Q955,145 838.5,63 Q722,-19 555,-19 Q360,-19 243.5,93 Q127,205 127,394 M597,1361 Q597,1413 630,1447 Q663,1481 712,1481 Q763,1481 796.5,1447 Q830,1413 830,1361 Q830,1310 796.5,1276 Q763,1242 712,1242 Q663,1242 630,1276 Q597,1310 597,1361"/> 
            <glyph glyph-name="Č" unicode="&#x10C;" horiz-adv-x="1288" d=" M421,841 L384,662 Q371,593 371,511 Q371,343 462.5,257 Q554,171 698,171 Q827,171 905.5,233.5 Q984,296 1004,392 L1206,392 Q1203,365 1199,351 Q1186,280 1149.5,215.5 Q1113,151 1051.5,95 Q990,39 894.5,6 Q799,-27 682,-27 Q596,-27 519,-7 Q442,13 376,56 Q310,99 262.5,161 Q215,223 188,312.5 Q161,402 161,510 Q161,594 170,650 L215,878 Q262,1125 414.5,1259 Q567,1393 788,1393 Q902,1393 998,1357.5 Q1094,1322 1156.5,1262.5 Q1219,1203 1253.5,1128 Q1288,1053 1288,972 Q1288,932 1284,918 L1085,918 Q1085,921 1085,929.5 Q1085,938 1085,944.5 Q1085,951 1085,956 Q1081,1000 1061,1041 Q1041,1082 1006,1118 Q971,1154 913,1175.5 Q855,1197 784,1197 Q494,1197 421,841 M1237,1718 L936,1487 L754,1487 L529,1718 L730,1718 L850,1592 L859,1592 L1021,1718"/> 
            <glyph glyph-name="č" unicode="&#x10D;" horiz-adv-x="1070" d=" M623,1219 L439,1587 L601,1587 L708,1342 L715,1342 L902,1587 L1070,1587 L765,1219 M127,394 Q127,468 140,542 L164,678 Q198,872 322,973 Q446,1074 629,1074 Q814,1074 926.5,976.5 Q1039,879 1039,728 Q1039,711 1038,708 L843,708 Q844,712 844,720 Q844,787 786.5,842.5 Q729,898 628,898 Q525,898 452.5,830.5 Q380,763 358,639 L338,526 Q328,475 328,424 Q328,301 388,232 Q448,163 566,163 Q653,163 709,198.5 Q765,234 779,290 L978,290 Q955,145 838.5,63 Q722,-19 555,-19 Q360,-19 243.5,93 Q127,205 127,394"/> 
            <glyph glyph-name="Ď" unicode="&#x10E;" horiz-adv-x="1314" d=" M1241,1718 L940,1487 L758,1487 L533,1718 L734,1718 L854,1592 L863,1592 L1025,1718 M360,1366 L769,1366 Q1031,1366 1172.5,1223.5 Q1314,1081 1314,842 Q1314,763 1303,696 Q1297,643 1276,548 Q1225,281 1035.5,140.5 Q846,0 527,0 L119,0 M536,1178 L359,188 L520,188 Q743,188 886.5,283.5 Q1030,379 1069,570 Q1069,571 1081,634 Q1093,697 1093,703 Q1102,748 1102,826 Q1102,1003 1001,1090.5 Q900,1178 706,1178"/> 
            <glyph glyph-name="ď" unicode="&#x10F;" horiz-adv-x="1591" d=" M1399,1425 L1591,1425 L1446,936 L1306,936 M605,1071 Q732,1071 815,1002 Q898,933 911,852 L925,852 L1023,1423 L1228,1423 L978,0 L777,0 L808,175 L794,175 Q770,103 692,44 Q614,-15 494,-15 Q329,-15 226,94.5 Q123,204 123,384 Q123,453 134,515 L168,680 Q201,858 314,964.5 Q427,1071 605,1071 M882,634 Q882,757 808.5,825.5 Q735,894 636,894 Q527,894 457.5,822.5 Q388,751 364,632 L337,501 Q331,469 331,416 Q331,302 395.5,234 Q460,166 572,166 Q683,166 756.5,242 Q830,318 852,446 L876,576 Q882,613 882,634"/> 
            <glyph glyph-name="Đ" unicode="&#x110;" horiz-adv-x="1407" d=" M454,1366 L863,1366 Q1125,1366 1266,1223.5 Q1407,1081 1407,842 Q1407,757 1397,696 Q1397,692 1384.5,622 Q1372,552 1371,548 Q1321,281 1131,140.5 Q941,0 621,0 L213,0 L320,598 L156,598 L188,793 L351,793 M631,1178 L560,793 L843,793 L811,598 L529,598 L453,188 L614,188 Q838,188 982,284 Q1126,380 1163,570 Q1165,576 1175.5,636 Q1186,696 1187,703 Q1196,756 1196,826 Q1196,1003 1094.5,1090.5 Q993,1178 800,1178"/> 
            <glyph glyph-name="đ" unicode="&#x111;" horiz-adv-x="1368" d=" M606,1071 Q733,1071 816.5,1002 Q900,933 913,852 L926,852 L980,1162 L761,1162 L786,1304 L1008,1304 L1029,1423 L1225,1423 L1203,1304 L1368,1304 L1343,1162 L1183,1162 L979,0 L778,0 L809,175 L795,175 Q771,103 693,44 Q615,-15 495,-15 Q330,-15 227,94.5 Q124,204 124,384 Q124,453 135,515 L169,680 Q202,858 315,964.5 Q428,1071 606,1071 M882,634 Q882,757 808.5,825.5 Q735,894 637,894 Q528,894 458.5,822.5 Q389,751 365,632 L338,501 Q332,469 332,416 Q332,302 396.5,234 Q461,166 573,166 Q684,166 756.5,241.5 Q829,317 852,446 L877,576 Q882,601 882,634"/> 
            <glyph glyph-name="Ē" unicode="&#x112;" horiz-adv-x="1190" d=" M983,188 L952,0 L119,0 L360,1366 L1190,1366 L1159,1178 L536,1178 L465,788 L1055,788 L1025,610 L435,610 L357,188 M1146,1626 L1126,1506 L446,1506 L466,1626"/> 
            <glyph glyph-name="ē" unicode="&#x113;" horiz-adv-x="1049" d=" M542,-19 Q356,-19 240,87.5 Q124,194 124,391 Q124,461 141,546 L165,677 Q198,867 326.5,970.5 Q455,1074 641,1074 Q754,1074 838.5,1034.5 Q923,995 968,930 Q1013,865 1031,787 Q1049,709 1038,625 Q1038,623 1032.5,592 Q1027,561 1020,523.5 Q1013,486 1012,479 L328,479 Q319,443 319,391 Q319,291 376.5,224 Q434,157 556,157 Q644,157 702.5,192.5 Q761,228 777,282 L975,282 Q966,225 931.5,171.5 Q897,118 843,75.5 Q789,33 710.5,7 Q632,-19 542,-19 M842,624 Q845,633 845,645 Q865,755 809,829.5 Q753,904 635,904 Q539,904 466,848.5 Q393,793 369,684 L356,624 M1010,1282 L405,1282 L427,1409 L1031,1409"/> 
            <glyph glyph-name="Ĕ" unicode="&#x114;" horiz-adv-x="1190" d=" M983,188 L952,0 L119,0 L360,1366 L1190,1366 L1159,1178 L536,1178 L465,788 L1055,788 L1025,610 L435,610 L357,188 M496,1754 L632,1754 Q631,1692 679,1652.5 Q727,1613 804,1613 Q884,1613 938.5,1653.5 Q993,1694 1001,1754 L1137,1754 Q1129,1641 1038,1561 Q947,1481 797,1481 Q695,1481 622.5,1521.5 Q550,1562 519.5,1623 Q489,1684 496,1754"/> 
            <glyph glyph-name="ĕ" unicode="&#x115;" horiz-adv-x="1049" d=" M542,-19 Q356,-19 240,87.5 Q124,194 124,391 Q124,461 141,546 L165,677 Q198,867 326.5,970.5 Q455,1074 641,1074 Q754,1074 838.5,1034.5 Q923,995 968,930 Q1013,865 1031,787 Q1049,709 1038,625 Q1038,623 1032.5,592 Q1027,561 1020,523.5 Q1013,486 1012,479 L328,479 Q319,443 319,391 Q319,291 376.5,224 Q434,157 556,157 Q644,157 702.5,192.5 Q761,228 777,282 L975,282 Q966,225 931.5,171.5 Q897,118 843,75.5 Q789,33 710.5,7 Q632,-19 542,-19 M842,624 Q845,633 845,645 Q865,755 809,829.5 Q753,904 635,904 Q539,904 466,848.5 Q393,793 369,684 L356,624 M438,1503 L569,1503 Q560,1438 599,1391 Q638,1344 719,1344 Q799,1344 844,1389 Q889,1434 900,1503 L1031,1503 Q1026,1449 1004,1399 Q982,1349 944,1308 Q906,1267 846.5,1242.5 Q787,1218 714,1218 Q566,1218 491.5,1305.5 Q417,1393 438,1503"/> 
            <glyph glyph-name="Ė" unicode="&#x116;" horiz-adv-x="1190" d=" M690,1603 Q690,1653 722.5,1686.5 Q755,1720 802,1720 Q851,1720 884,1686.5 Q917,1653 917,1603 Q917,1554 884,1520.5 Q851,1487 802,1487 Q755,1487 722.5,1520.5 Q690,1554 690,1603 M983,188 L952,0 L119,0 L360,1366 L1190,1366 L1159,1178 L536,1178 L465,788 L1055,788 L1025,610 L435,610 L357,188"/> 
            <glyph glyph-name="ė" unicode="&#x117;" horiz-adv-x="1049" d=" M605,1361 Q605,1413 638,1447 Q671,1481 720,1481 Q771,1481 804.5,1447 Q838,1413 838,1361 Q838,1310 804.5,1276 Q771,1242 720,1242 Q671,1242 638,1276 Q605,1310 605,1361 M542,-19 Q356,-19 240,87.5 Q124,194 124,391 Q124,461 141,546 L165,677 Q198,867 326.5,970.5 Q455,1074 641,1074 Q754,1074 838.5,1034.5 Q923,995 968,930 Q1013,865 1031,787 Q1049,709 1038,625 Q1038,623 1032.5,592 Q1027,561 1020,523.5 Q1013,486 1012,479 L328,479 Q319,443 319,391 Q319,291 376.5,224 Q434,157 556,157 Q644,157 702.5,192.5 Q761,228 777,282 L975,282 Q966,225 931.5,171.5 Q897,118 843,75.5 Q789,33 710.5,7 Q632,-19 542,-19 M842,624 Q845,633 845,645 Q865,755 809,829.5 Q753,904 635,904 Q539,904 466,848.5 Q393,793 369,684 L356,624"/> 
            <glyph glyph-name="Ę" unicode="&#x118;" horiz-adv-x="1190" d=" M765,-368 Q675,-368 619.5,-325 Q564,-282 566,-198 Q569,-75 682,-5 L682,0 L119,0 L360,1366 L1190,1366 L1159,1178 L536,1178 L465,789 L1055,789 L1027,610 L434,610 L356,188 L984,188 L961,44 Q907,32 860,11.5 Q813,-9 774,-49.5 Q735,-90 734,-141 Q733,-182 760.5,-204 Q788,-226 837,-226 Q876,-226 914,-218 L892,-349 Q839,-368 765,-368"/> 
            <glyph glyph-name="ę" unicode="&#x119;" horiz-adv-x="1047" d=" M527,-16 Q347,-17 236.5,88.5 Q126,194 126,391 Q126,455 142,546 L167,677 Q200,867 328,970.5 Q456,1074 642,1074 Q733,1074 806,1048 Q879,1022 925.5,978 Q972,934 1001,876 Q1030,818 1038.5,754.5 Q1047,691 1039,625 Q1039,617 1015,479 L330,479 Q321,443 321,391 Q321,291 378.5,224 Q436,157 558,157 Q645,157 703.5,192.5 Q762,228 779,282 L976,282 Q965,231 940,189.5 Q915,148 892,125 Q869,102 823,63 Q815,55 784,26.5 Q753,-2 741.5,-14 Q730,-26 710.5,-49.5 Q691,-73 682,-95 Q673,-117 670,-141 Q663,-188 692,-214.5 Q721,-241 768,-241 Q808,-241 848,-231 L825,-367 Q780,-387 697,-387 Q608,-387 552,-334.5 Q496,-282 503,-196 Q511,-81 641,6 L634,15 Q620,5 587,-5.5 Q554,-16 527,-16 M844,624 Q844,626 845.5,635 Q847,644 847,645 Q867,755 811.5,829.5 Q756,904 637,904 Q540,904 467.5,848 Q395,792 371,684 L357,624"/> 
            <glyph glyph-name="Ě" unicode="&#x11A;" horiz-adv-x="1190" d=" M1182,1718 L881,1487 L699,1487 L474,1718 L675,1718 L795,1592 L804,1592 L966,1718 M983,188 L952,0 L119,0 L360,1366 L1190,1366 L1159,1178 L536,1178 L465,788 L1055,788 L1025,610 L435,610 L357,188"/> 
            <glyph glyph-name="ě" unicode="&#x11B;" horiz-adv-x="1078" d=" M631,1219 L447,1587 L609,1587 L716,1342 L723,1342 L910,1587 L1078,1587 L773,1219 M542,-19 Q356,-19 240,87.5 Q124,194 124,391 Q124,461 141,546 L165,677 Q198,867 326.5,970.5 Q455,1074 641,1074 Q754,1074 838.5,1034.5 Q923,995 968,930 Q1013,865 1031,787 Q1049,709 1038,625 Q1038,623 1032.5,592 Q1027,561 1020,523.5 Q1013,486 1012,479 L328,479 Q319,443 319,391 Q319,291 376.5,224 Q434,157 556,157 Q644,157 702.5,192.5 Q761,228 777,282 L975,282 Q966,225 931.5,171.5 Q897,118 843,75.5 Q789,33 710.5,7 Q632,-19 542,-19 M842,624 Q845,633 845,645 Q865,755 809,829.5 Q753,904 635,904 Q539,904 466,848.5 Q393,793 369,684 L356,624"/> 
            </font>
</defs>
</svg>
