<?xml version="1.0" standalone="no"?>
<!DOCTYPE svg PUBLIC "-//W3C//DTD SVG 1.1//EN" "http://www.w3.org/Graphics/SVG/1.1/DTD/svg11.dtd" >
<svg xmlns="http://www.w3.org/2000/svg">
    <defs>
        <font id="SanFranciscoText-Medium">
            <font-face font-family="SanFranciscoText-Medium"
                       units-per-em="2048"
                       ascent="1950"
                       descent="-494"
                       bbox="-511 -495 2063 1956"
                    />
            <missing-glyph horiz-adv-x="0" />
            
            <glyph glyph-name="!" unicode="&#x21;" horiz-adv-x="445" d=" M139,126 Q139,191 182,232.5 Q225,274 290,274 Q358,274 401.5,232.5 Q445,191 445,126 Q445,63 401.5,22.5 Q358,-18 290,-18 Q225,-18 182,22.5 Q139,63 139,126 M179,1365 L405,1365 L380,477 L203,477"/> 
            <glyph glyph-name="&quot;" unicode="&#x22;" horiz-adv-x="775" d=" M133,1365 L356,1365 L327,840 L162,840 M552,1365 L775,1365 L746,840 L581,840"/> 
            <glyph glyph-name="#" unicode="&#x23;" horiz-adv-x="1206" d=" M1176,834 L960,834 L899,544 L1102,544 L1071,379 L867,379 L790,0 L632,0 L709,379 L440,379 L363,0 L204,0 L281,379 L79,379 L111,544 L314,544 L375,834 L182,834 L213,998 L407,998 L481,1365 L641,1365 L565,998 L834,998 L909,1365 L1067,1365 L992,998 L1206,998 M528,845 L463,533 L746,533 L811,845"/> 
            <glyph glyph-name="$" unicode="&#x24;" horiz-adv-x="1079" d=" M306,1017 Q306,890 467,832 Q507,820 519,817 L519,1216 Q424,1205 365,1153.5 Q306,1102 306,1017 M895,377 Q895,453 847.5,503 Q800,553 684,586 Q679,588 668,590.5 Q657,593 654,594 L654,163 Q763,172 829,228.5 Q895,285 895,377 M655,-129 L517,-129 L518,-3 Q310,13 200.5,122.5 Q91,232 89,382 L273,382 Q279,296 342.5,237.5 Q406,179 519,164 L519,624 L442,644 Q377,660 322.5,687.5 Q268,715 221,757 Q174,799 147.5,862 Q121,925 121,1003 Q121,1088 151.5,1156.5 Q182,1225 236.5,1271.5 Q291,1318 362,1346 Q433,1374 518,1382 L518,1513 L655,1513 L655,1382 Q828,1365 939.5,1264.5 Q1051,1164 1055,1007 L874,1007 Q872,1087 813,1145 Q754,1203 654,1216 L654,783 L735,764 Q902,723 990.5,636.5 Q1079,550 1079,393 Q1079,218 962.5,116.5 Q846,15 655,-1"/> 
            <glyph glyph-name="%" unicode="&#x25;" horiz-adv-x="1409" d=" M182,1037 L182,1028 Q182,929 219,871 Q256,813 324,813 Q390,813 428,870.5 Q466,928 466,1026 L466,1035 Q466,1133 429,1190 Q392,1247 324,1247 Q255,1247 218.5,1189.5 Q182,1132 182,1037 M41,1018 L41,1047 Q41,1189 117.5,1283.5 Q194,1378 324,1378 Q454,1378 530.5,1283.5 Q607,1189 607,1044 L607,1016 Q607,874 530,777.5 Q453,681 321,681 Q191,681 116,776.5 Q41,872 41,1018 M983,344 L983,335 Q983,236 1020.5,178 Q1058,120 1125,120 Q1192,120 1230,177 Q1268,234 1268,332 L1268,341 Q1268,439 1231,496.5 Q1194,554 1126,554 Q1057,554 1020,496.5 Q983,439 983,344 M843,325 L843,353 Q843,495 919.5,590 Q996,685 1126,685 Q1256,685 1332.5,590 Q1409,495 1409,351 L1409,322 Q1409,181 1332,84.5 Q1255,-12 1123,-12 Q993,-12 918,83.5 Q843,179 843,325 M284,0 L117,0 L650,698 L1161,1365 L1327,1365 L797,672"/> 
            <glyph glyph-name="&amp;" unicode="&#x26;" horiz-adv-x="1354" d=" M1114,0 L995,124 Q904,47 791.5,10 Q679,-27 566,-27 Q365,-27 235,77.5 Q105,182 105,358 Q105,483 173.5,571.5 Q242,660 367,728 Q397,746 421,757 Q339,844 296,914.5 Q253,985 253,1069 Q253,1200 353.5,1288.5 Q454,1377 608,1377 Q759,1377 861,1292.5 Q963,1208 963,1069 Q963,1008 941,955.5 Q919,903 876.5,860.5 Q834,818 787.5,786 Q741,754 677,721 L988,392 Q1047,496 1047,721 L1047,774 L1225,774 L1225,714 Q1225,420 1114,256 L1354,0 M480,616 Q392,570 345,512 Q298,454 298,373 Q298,261 381.5,200 Q465,139 584,139 Q665,139 747,167.5 Q829,196 884,252 L523,637 Q502,629 480,616 M575,830 Q679,881 731,932.5 Q783,984 783,1059 Q783,1133 734,1178.5 Q685,1224 609,1224 Q532,1224 484,1177.5 Q436,1131 436,1058 Q436,1006 466.5,956 Q497,906 575,830"/> 
            <glyph glyph-name="'" unicode="&#x27;" horiz-adv-x="356" d=" M133,1365 L356,1365 L327,840 L162,840"/> 
            <glyph glyph-name="(" unicode="&#x28;" horiz-adv-x="585" d=" M411,1363 L585,1363 Q550,1323 514,1259 Q478,1195 438.5,1097.5 Q399,1000 374.5,860.5 Q350,721 350,568 Q350,444 367.5,327.5 Q385,211 406,133 Q427,55 465.5,-33 Q504,-121 524.5,-158.5 Q545,-196 583,-262 L401,-262 Q355,-206 315.5,-137 Q276,-68 235.5,33.5 Q195,135 171,273 Q147,411 147,566 Q147,693 164,804 Q181,915 204.5,991.5 Q228,1068 267,1143.5 Q306,1219 336,1262.5 Q366,1306 411,1363"/> 
            <glyph glyph-name=")" unicode="&#x29;" horiz-adv-x="528" d=" M89,1363 L262,1363 Q307,1306 337,1263 Q367,1220 407,1144 Q447,1068 470.5,991.5 Q494,915 511,804 Q528,693 528,566 Q528,411 503.5,273 Q479,135 437.5,33.5 Q396,-68 356.5,-136.5 Q317,-205 271,-262 L91,-262 Q130,-195 149.5,-158.5 Q169,-122 208,-33 Q247,56 267.5,133 Q288,210 305.5,327 Q323,444 323,568 Q323,721 298.5,860.5 Q274,1000 234.5,1097.5 Q195,1195 159.5,1259 Q124,1323 89,1363"/> 
            <glyph glyph-name="*" unicode="&#x2A;" horiz-adv-x="882" d=" M565,579 L414,579 L439,897 L173,715 L98,853 L389,989 L98,1124 L173,1262 L439,1078 L414,1398 L565,1398 L541,1078 L807,1262 L882,1124 L591,989 L882,853 L807,715 L541,897"/> 
            <glyph glyph-name="+" unicode="&#x2B;" horiz-adv-x="1073" d=" M668,456 L668,20 L499,20 L499,456 L96,456 L96,637 L499,637 L499,1052 L668,1052 L668,637 L1073,637 L1073,456"/> 
            <glyph glyph-name="," unicode="&#x2C;" horiz-adv-x="389" d=" M198,-363 L40,-363 L168,219 L389,219"/> 
            <glyph glyph-name="-" unicode="&#x2D;" horiz-adv-x="735" d=" M735,464 L105,464 L105,656 L735,656"/> 
            <glyph glyph-name="." unicode="&#x2E;" horiz-adv-x="455" d=" M150,134 Q150,202 194,246 Q238,290 301,290 Q367,290 411,246.5 Q455,203 455,134 Q455,67 411,24.5 Q367,-18 301,-18 Q238,-18 194,25 Q150,68 150,134"/> 
            <glyph glyph-name="/" unicode="&#x2F;" horiz-adv-x="706" d=" M216,-299 L37,-299 L526,1437 L706,1437"/> 
            <glyph glyph-name="0" unicode="&#x30;" horiz-adv-x="1124" d=" M338,708 L338,656 Q338,421 416.5,289.5 Q495,158 629,158 Q763,158 841.5,289.5 Q920,421 920,656 L920,708 Q920,943 841.5,1074.5 Q763,1206 629,1206 Q495,1206 416.5,1074.5 Q338,943 338,708 M133,654 L133,709 Q133,1020 265,1206 Q397,1392 631,1392 Q864,1392 994,1207 Q1124,1022 1124,709 L1124,654 Q1124,453 1068,300.5 Q1012,148 898.5,60 Q785,-28 628,-28 Q395,-28 264,157.5 Q133,343 133,654"/> 
            <glyph glyph-name="1" unicode="&#x31;" horiz-adv-x="681" d=" M681,0 L478,0 L478,1141 L468,1141 L153,916 L153,1128 L478,1365 L681,1365"/> 
            <glyph glyph-name="2" unicode="&#x32;" horiz-adv-x="1045" d=" M340,973 L142,973 L142,983 Q142,1062 170.5,1134.5 Q199,1207 252.5,1265 Q306,1323 392,1357.5 Q478,1392 584,1392 Q779,1392 900,1285.5 Q1021,1179 1021,1015 Q1021,963 1007,913 Q993,863 976.5,828 Q960,793 921,741.5 Q882,690 860.5,665.5 Q839,641 786,582 L437,198 L437,186 L1045,186 L1045,0 L148,0 L148,138 L658,703 Q694,742 715.5,768.5 Q737,795 762.5,834 Q788,873 800.5,913.5 Q813,954 813,996 Q813,1092 747,1150.5 Q681,1209 579,1209 Q470,1209 405,1143.5 Q340,1078 340,984"/> 
            <glyph glyph-name="3" unicode="&#x33;" horiz-adv-x="1062" d=" M429,614 L429,793 L571,793 Q674,793 742,853.5 Q810,914 809,1007 Q809,1098 742,1156 Q675,1214 570,1214 Q469,1214 403,1160.5 Q337,1107 331,1032 L137,1032 Q142,1184 257,1287.5 Q372,1391 573,1392 Q769,1393 889.5,1293.5 Q1010,1194 1014,1041 Q1016,972 991.5,912 Q967,852 927.5,813.5 Q888,775 845,751 Q802,727 762,720 L762,708 Q809,703 857.5,681.5 Q906,660 952,622 Q998,584 1028,521 Q1058,458 1059,380 Q1062,198 922,85 Q782,-28 567,-28 Q362,-28 237.5,76 Q113,180 106,336 L297,336 Q305,258 381.5,205.5 Q458,153 570,152 Q698,151 776,217 Q854,283 852,386 Q851,487 775,550.5 Q699,614 578,614"/> 
            <glyph glyph-name="4" unicode="&#x34;" horiz-adv-x="1134" d=" M658,1365 L959,1365 L959,453 L1134,453 L1134,268 L959,268 L959,0 L764,0 L764,268 L101,268 L101,456 Q160,563 236.5,690 Q313,817 367.5,904.5 Q422,992 518.5,1144 Q615,1296 658,1365 M299,453 L764,453 L764,1187 L753,1187 Q476,772 299,462"/> 
            <glyph glyph-name="5" unicode="&#x35;" horiz-adv-x="1095" d=" M149,332 L343,332 Q361,244 437.5,199 Q514,154 613,154 Q724,154 807.5,232.5 Q891,311 891,445 Q891,566 809,640.5 Q727,715 611,715 Q518,715 452,673 Q386,631 354,576 L178,576 L238,1365 L1025,1365 L1025,1180 L409,1180 L374,776 L384,776 Q412,818 484.5,855 Q557,892 659,892 Q844,892 969.5,773 Q1095,654 1095,451 Q1095,236 959,104 Q823,-28 604,-28 Q410,-28 284,74 Q158,176 149,332"/> 
            <glyph glyph-name="6" unicode="&#x36;" horiz-adv-x="1115" d=" M1087,1068 L884,1068 Q870,1123 810.5,1166 Q751,1209 651,1209 Q508,1209 420,1071 Q332,933 333,685 L344,685 Q378,766 465,824.5 Q552,883 687,883 Q769,883 844.5,854.5 Q920,826 981,773 Q1042,720 1078.5,635 Q1115,550 1115,447 Q1115,226 981,99.5 Q847,-27 636,-27 Q365,-27 234,186 Q133,354 133,637 Q133,1012 274,1201 Q415,1390 657,1390 Q753,1390 834.5,1361.5 Q916,1333 968.5,1286.5 Q1021,1240 1052,1183.5 Q1083,1127 1087,1068 M360,437 Q360,307 440,230.5 Q520,154 638,154 Q759,154 836.5,226.5 Q914,299 914,436 Q914,566 833.5,637 Q753,708 639,708 Q517,708 438.5,632 Q360,556 360,437"/> 
            <glyph glyph-name="7" unicode="&#x37;" horiz-adv-x="1005" d=" M115,1365 L1005,1365 L1005,1173 L447,0 L231,0 L797,1167 L797,1179 L115,1179"/> 
            <glyph glyph-name="8" unicode="&#x38;" horiz-adv-x="1117" d=" M494,143 Q748,143 832,210.5 Q916,278 916,386 Q916,494 832,562 Q748,630 621,630 Q494,630 410.5,562 Q327,494 327,386 Q327,278 494,143 M621,793 Q728,793 797,853.5 Q866,914 866,1009 Q866,1103 797,1161.5 Q728,1220 621,1220 Q514,1220 445,1161.5 Q376,1103 376,1009 Q376,914 445.5,853.5 Q515,793 621,793 M617,-28 Q398,-28 261,83.5 Q124,195 124,373 Q124,450 150.5,513 Q177,576 220.5,616 Q264,656 309.5,680 Q355,704 403,715 L403,726 Q362,739 324.5,763 Q287,787 253,823 Q219,859 198.5,912.5 Q178,966 178,1029 Q178,1187 302.5,1289.5 Q427,1392 621,1392 Q815,1392 940,1289.5 Q1065,1187 1065,1029 Q1065,965 1044,911 Q1023,857 988,821 Q953,785 916,762 Q879,739 839,726 L839,715 Q887,704 933,680 Q979,656 1022,616 Q1065,576 1091,513.5 Q1117,451 1117,375 Q1117,197 977.5,84.5 Q838,-28 617,-28"/> 
            <glyph glyph-name="9" unicode="&#x39;" horiz-adv-x="1105" d=" M160,280 L363,280 Q378,229 436.5,192 Q495,155 584,155 Q672,155 737.5,195.5 Q803,236 840.5,308.5 Q878,381 894.5,473 Q911,565 908,676 L896,676 Q862,589 776.5,531.5 Q691,474 562,474 Q441,474 342.5,526.5 Q244,579 184.5,683.5 Q125,788 125,929 Q125,1071 189,1177.5 Q253,1284 361.5,1339 Q470,1394 608,1394 Q687,1394 755.5,1375 Q824,1356 889.5,1307.5 Q955,1259 1001.5,1183.5 Q1048,1108 1076.5,987 Q1105,866 1105,710 Q1105,-25 580,-25 Q485,-25 406.5,0.5 Q328,26 277.5,69.5 Q227,113 197,167 Q167,221 160,280 M875,925 Q875,1060 797,1137 Q719,1214 597,1214 Q482,1214 404.5,1136.5 Q327,1059 327,929 Q327,795 405.5,722.5 Q484,650 601,650 Q716,650 795.5,722 Q875,794 875,925"/> 
            <glyph glyph-name=":" unicode="&#x3A;" horiz-adv-x="471" d=" M166,804 Q166,873 209.5,916.5 Q253,960 316,960 Q383,960 427,916 Q471,872 471,804 Q471,737 427,694 Q383,651 316,651 Q253,651 209.5,694.5 Q166,738 166,804 M166,134 Q166,203 209.5,246.5 Q253,290 316,290 Q383,290 427,246.5 Q471,203 471,134 Q471,67 427,24.5 Q383,-18 316,-18 Q253,-18 209.5,25 Q166,68 166,134"/> 
            <glyph glyph-name=";" unicode="&#x3B;" horiz-adv-x="472" d=" M167,808 Q167,876 210.5,920 Q254,964 318,964 Q384,964 428,920 Q472,876 472,808 Q472,741 428,698 Q384,655 318,655 Q255,655 211,698 Q167,741 167,808 M227,-411 L55,-411 L197,206 L439,206"/> 
            <glyph glyph-name="&lt;" unicode="&#x3C;" horiz-adv-x="1021" d=" M145,440 L145,597 L1021,1110 L1021,887 L365,530 L365,519 L1021,177 L1021,-44"/> 
            <glyph glyph-name="=" unicode="&#x3D;" horiz-adv-x="1017" d=" M1017,265 L151,265 L151,437 L1017,437 M1017,658 L151,658 L151,832 L1017,832"/> 
            <glyph glyph-name="&gt;" unicode="&#x3E;" horiz-adv-x="1023" d=" M1023,597 L1023,440 L146,-44 L146,177 L803,519 L803,530 L146,887 L146,1110"/> 
            <glyph glyph-name="?" unicode="&#x3F;" horiz-adv-x="924" d=" M332,126 Q332,191 375,232.5 Q418,274 483,274 Q551,274 594.5,232.5 Q638,191 638,126 Q638,63 594.5,22.5 Q551,-18 483,-18 Q418,-18 375,22.5 Q332,63 332,126 M85,997 Q84,1083 109,1152 Q134,1221 175.5,1265.5 Q217,1310 273.5,1340 Q330,1370 389,1382.5 Q448,1395 511,1395 Q593,1395 666,1373 Q739,1351 797.5,1309 Q856,1267 890,1198 Q924,1129 924,1043 Q924,983 908.5,933 Q893,883 860.5,843 Q828,803 801,778.5 Q774,754 729,720 Q676,679 653.5,660 Q631,641 608,612.5 Q585,584 578,555.5 Q571,527 571,485 L571,428 L380,428 L379,502 Q376,602 425.5,674 Q475,746 566,815 Q609,848 630,865.5 Q651,883 675,910.5 Q699,938 708.5,966.5 Q718,995 718,1031 Q718,1124 655.5,1171 Q593,1218 501,1218 Q393,1218 334.5,1156 Q276,1094 276,997"/> 
            <glyph glyph-name="@" unicode="&#x40;" horiz-adv-x="1629" d=" M1281,133 Q1182,133 1120,173.5 Q1058,214 1046,274 L1036,274 Q1021,217 959.5,175 Q898,133 814,133 Q689,133 618.5,222 Q548,311 548,461 L548,561 Q548,707 620.5,795.5 Q693,884 821,884 Q902,884 954,844 Q1006,804 1022,752 L1030,752 L1030,869 L1185,869 L1185,378 Q1185,324 1217.5,294.5 Q1250,265 1302,265 Q1378,265 1430,350 Q1482,435 1482,599 L1482,632 Q1482,742 1442.5,840.5 Q1403,939 1330,1014.5 Q1257,1090 1145,1134 Q1033,1178 897,1178 L889,1178 Q757,1178 643,1133 Q529,1088 446.5,1006.5 Q364,925 317,804 Q270,683 270,538 L270,494 Q270,339 319,218 Q368,97 452.5,22 Q537,-53 646,-91.5 Q755,-130 881,-130 L890,-130 Q1095,-130 1204,-82 L1204,-222 Q1107,-267 886,-267 L878,-267 Q718,-267 581.5,-218.5 Q445,-170 341,-77.5 Q237,15 178,160.5 Q119,306 119,488 L119,544 Q119,775 219,951.5 Q319,1128 493.5,1222 Q668,1316 889,1316 L897,1316 Q1035,1316 1154.5,1279.5 Q1274,1243 1360,1179 Q1446,1115 1507.5,1029 Q1569,943 1599,843.5 Q1629,744 1629,638 L1629,588 Q1629,384 1532,258.5 Q1435,133 1281,133 M710,484 Q710,378 752,327.5 Q794,277 867,277 Q939,277 981,324.5 Q1023,372 1023,475 L1023,556 Q1023,649 978.5,698.5 Q934,748 865,748 Q796,748 753,696.5 Q710,645 710,544"/> 
            <glyph glyph-name="A" unicode="&#x41;" horiz-adv-x="1223" d=" M257,0 L49,0 L525,1365 L748,1365 L1223,0 L1003,0 L875,381 L385,381 M635,1132 L627,1132 L435,551 L827,551"/> 
            <glyph glyph-name="B" unicode="&#x42;" horiz-adv-x="1178" d=" M184,0 L184,1365 L715,1365 Q890,1365 996,1275.5 Q1102,1186 1102,1029 Q1102,908 1041.5,832.5 Q981,757 879,729 L879,719 Q1018,703 1098,614.5 Q1178,526 1178,384 Q1178,201 1046.5,100.5 Q915,0 701,0 M389,1188 L389,787 L588,787 Q743,787 820,836.5 Q897,886 897,991 Q897,1088 836,1138 Q775,1188 676,1188 M389,618 L389,177 L614,177 Q696,177 757,186.5 Q818,196 867,219.5 Q916,243 941.5,286 Q967,329 967,391 Q967,502 893.5,560 Q820,618 694,618"/> 
            <glyph glyph-name="C" unicode="&#x43;" horiz-adv-x="1191" d=" M338,770 L338,588 Q338,377 429.5,270.5 Q521,164 682,164 Q828,164 909,242.5 Q990,321 990,438 L1191,438 L1191,423 Q1191,357 1171.5,293 Q1152,229 1109.5,171 Q1067,113 1007.5,68.5 Q948,24 862,-2 Q776,-28 675,-28 Q420,-28 275,132 Q130,292 130,587 L130,772 Q130,1063 277,1227.5 Q424,1392 677,1392 Q798,1392 897.5,1352.5 Q997,1313 1060,1247 Q1123,1181 1157,1097.5 Q1191,1014 1191,923 L1191,908 L990,908 Q990,1026 906,1113.5 Q822,1201 678,1201 Q522,1201 430,1090 Q338,979 338,770"/> 
            <glyph glyph-name="D" unicode="&#x44;" horiz-adv-x="1245" d=" M184,1365 L642,1365 Q803,1365 921,1315.5 Q1039,1266 1109,1173.5 Q1179,1081 1212,960 Q1245,839 1245,684 Q1245,562 1225.5,461 Q1206,360 1161,273.5 Q1116,187 1047,127 Q978,67 875.5,33.5 Q773,0 642,0 L184,0 M390,1178 L390,188 L623,188 Q832,188 932.5,308 Q1033,428 1033,681 Q1033,1178 623,1178"/> 
            <glyph glyph-name="E" unicode="&#x45;" horiz-adv-x="1023" d=" M1023,188 L1023,0 L184,0 L184,1365 L1023,1365 L1023,1177 L389,1177 L389,784 L987,784 L987,604 L389,604 L389,188"/> 
            <glyph glyph-name="F" unicode="&#x46;" horiz-adv-x="1012" d=" M390,0 L184,0 L184,1365 L1012,1365 L1012,1176 L390,1176 L390,753 L959,753 L959,567 L390,567"/> 
            <glyph glyph-name="G" unicode="&#x47;" horiz-adv-x="1207" d=" M1203,939 L1001,939 Q984,1066 896.5,1133.5 Q809,1201 685,1201 Q530,1201 433.5,1094.5 Q337,988 337,775 L337,597 Q337,394 424.5,278.5 Q512,163 683,163 Q826,163 917,240.5 Q1008,318 1008,437 L1008,547 L679,547 L679,723 L1207,723 L1207,446 Q1207,384 1191,321.5 Q1175,259 1135.5,195 Q1096,131 1038,82 Q980,33 888,2.5 Q796,-28 683,-28 Q501,-28 375,51.5 Q249,131 189.5,269 Q130,407 130,596 L130,777 Q130,1063 281,1227.5 Q432,1392 689,1392 Q808,1392 905,1354.5 Q1002,1317 1064.5,1253.5 Q1127,1190 1162.5,1109.5 Q1198,1029 1203,939"/> 
            <glyph glyph-name="H" unicode="&#x48;" horiz-adv-x="1246" d=" M1246,0 L1040,0 L1040,607 L390,607 L390,0 L184,0 L184,1365 L390,1365 L390,797 L1040,797 L1040,1365 L1246,1365"/> 
            <glyph glyph-name="I" unicode="&#x49;" horiz-adv-x="390" d=" M390,0 L184,0 L184,1365 L390,1365"/> 
            <glyph glyph-name="J" unicode="&#x4A;" horiz-adv-x="872" d=" M51,351 L251,351 Q254,268 311,219.5 Q368,171 450,171 Q551,171 608.5,228 Q666,285 666,403 L666,1365 L872,1365 L872,415 Q872,197 758.5,84.5 Q645,-28 451,-28 Q268,-28 159.5,79 Q51,186 51,351"/> 
            <glyph glyph-name="K" unicode="&#x4B;" horiz-adv-x="1228" d=" M1203,1365 L702,781 L1228,0 L973,0 L549,631 L390,460 L390,0 L184,0 L184,1365 L390,1365 L390,729 L399,729 L968,1365"/> 
            <glyph glyph-name="L" unicode="&#x4C;" horiz-adv-x="1003" d=" M1003,193 L1003,0 L184,0 L184,1365 L390,1365 L390,193"/> 
            <glyph glyph-name="M" unicode="&#x4D;" horiz-adv-x="1465" d=" M374,0 L188,0 L188,1365 L393,1365 L823,388 L831,388 L1260,1365 L1465,1365 L1465,0 L1278,0 L1278,956 L1267,956 L905,142 L748,142 L384,956 L374,956"/> 
            <glyph glyph-name="N" unicode="&#x4E;" horiz-adv-x="1237" d=" M384,0 L184,0 L184,1365 L371,1365 L1027,377 L1037,377 L1037,1365 L1237,1365 L1237,0 L1050,0 L393,991 L384,991"/> 
            <glyph glyph-name="O" unicode="&#x4F;" horiz-adv-x="1248" d=" M338,772 L338,582 Q338,376 434.5,269.5 Q531,163 688,163 Q846,163 943,269.5 Q1040,376 1040,582 L1040,772 Q1040,979 942.5,1090.5 Q845,1202 688,1202 Q532,1202 435,1090.5 Q338,979 338,772 M130,583 L130,771 Q130,1060 281,1226 Q432,1392 690,1392 Q948,1392 1098,1226 Q1248,1060 1248,771 L1248,583 Q1248,296 1096.5,134 Q945,-28 686,-28 Q428,-28 279,133.5 Q130,295 130,583"/> 
            <glyph glyph-name="P" unicode="&#x50;" horiz-adv-x="1141" d=" M184,1365 L697,1365 Q898,1365 1019.5,1242 Q1141,1119 1141,925 Q1141,730 1019.5,609 Q898,488 696,488 L390,488 L390,0 L184,0 M390,1180 L390,671 L582,671 Q669,671 729.5,682 Q790,693 837,721 Q884,749 907,799.5 Q930,850 930,925 Q930,1047 862.5,1113.5 Q795,1180 672,1180"/> 
            <glyph glyph-name="Q" unicode="&#x51;" horiz-adv-x="1253" d=" M131,589 L131,775 Q131,1062 282,1227 Q433,1392 689,1392 Q945,1392 1097,1227 Q1249,1062 1249,775 L1249,589 Q1249,277 1070,112 L1253,-145 L1034,-145 L916,14 Q809,-28 689,-28 Q433,-28 282,137 Q131,302 131,589 M335,775 L335,588 Q335,378 432,267 Q529,156 686,154 Q754,154 810,176 L635,414 L849,414 L952,284 Q1045,396 1045,588 L1045,775 Q1045,982 946,1092.5 Q847,1203 689,1203 Q532,1203 433.5,1092.5 Q335,982 335,775"/> 
            <glyph glyph-name="R" unicode="&#x52;" horiz-adv-x="1171" d=" M695,1365 Q808,1365 896,1332 Q984,1299 1037.5,1240.5 Q1091,1182 1118.5,1107.5 Q1146,1033 1146,946 Q1146,866 1123.5,798.5 Q1101,731 1062.5,685.5 Q1024,640 982.5,610.5 Q941,581 894,564 L1171,0 L938,0 L690,526 L389,526 L389,0 L184,0 L184,1365 M389,704 L660,704 Q793,704 863.5,764.5 Q934,825 934,938 Q934,1057 862,1120 Q790,1183 667,1183 L389,1183"/> 
            <glyph glyph-name="S" unicode="&#x53;" horiz-adv-x="1110" d=" M87,378 L290,378 Q300,283 383,220 Q466,157 609,157 Q745,157 824,214.5 Q903,272 903,371 Q903,448 850,494.5 Q797,541 684,569 L453,625 Q385,642 329,670 Q273,698 225.5,741 Q178,784 151.5,848 Q125,912 125,992 Q125,1087 164.5,1164.5 Q204,1242 271.5,1291.5 Q339,1341 426,1368 Q513,1395 610,1395 Q739,1395 846.5,1350 Q954,1305 1023,1213.5 Q1092,1122 1094,998 L894,998 Q885,1091 811.5,1151.5 Q738,1212 607,1212 Q484,1212 408.5,1158 Q333,1104 333,1009 Q333,870 523,825 L752,769 Q923,728 1016.5,640.5 Q1110,553 1110,391 Q1110,260 1042,164 Q974,68 858,20 Q742,-28 591,-28 Q501,-28 425,-11 Q349,6 295.5,36.5 Q242,67 201.5,106 Q161,145 137,191.5 Q113,238 100.5,284 Q88,330 87,378"/> 
            <glyph glyph-name="T" unicode="&#x54;" horiz-adv-x="1062" d=" M657,0 L451,0 L451,1175 L46,1175 L46,1365 L1062,1365 L1062,1175 L657,1175"/> 
            <glyph glyph-name="U" unicode="&#x55;" horiz-adv-x="1226" d=" M374,1365 L374,488 Q374,338 461.5,251.5 Q549,165 697,165 Q845,165 932.5,251.5 Q1020,338 1020,488 L1020,1365 L1226,1365 L1226,474 Q1226,248 1080.5,110 Q935,-28 697,-28 Q459,-28 313.5,111 Q168,250 168,477 L168,1365"/> 
            <glyph glyph-name="V" unicode="&#x56;" horiz-adv-x="1227" d=" M747,0 L520,0 L41,1365 L277,1365 L632,250 L643,250 L995,1365 L1227,1365"/> 
            <glyph glyph-name="W" unicode="&#x57;" horiz-adv-x="1713" d=" M595,0 L408,0 L38,1365 L270,1365 L507,320 L517,320 L777,1365 L975,1365 L1233,320 L1244,320 L1481,1365 L1713,1365 L1342,0 L1154,0 L880,1018 L870,1018"/> 
            <glyph glyph-name="X" unicode="&#x58;" horiz-adv-x="1171" d=" M1171,1365 L724,678 L1163,0 L920,0 L595,512 L585,512 L259,0 L30,0 L468,688 L35,1365 L281,1365 L605,849 L615,849 L936,1365"/> 
            <glyph glyph-name="Y" unicode="&#x59;" horiz-adv-x="1140" d=" M684,0 L478,0 L478,554 L22,1365 L254,1365 L577,773 L587,773 L912,1365 L1140,1365 L684,557"/> 
            <glyph glyph-name="Z" unicode="&#x5A;" horiz-adv-x="1088" d=" M110,0 L110,149 L817,1165 L817,1177 L133,1177 L133,1365 L1070,1365 L1070,1216 L367,200 L367,188 L1088,188 L1088,0"/> 
            <glyph glyph-name="[" unicode="&#x5B;" horiz-adv-x="623" d=" M147,1365 L610,1365 L610,1204 L340,1204 L340,-67 L623,-67 L623,-228 L147,-228"/> 
            <glyph glyph-name="\" unicode="&#x5C;" horiz-adv-x="706" d=" M706,-299 L526,-299 L37,1437 L216,1437"/> 
            <glyph glyph-name="]" unicode="&#x5D;" horiz-adv-x="561" d=" M98,1365 L561,1365 L561,-228 L86,-228 L86,-67 L369,-67 L369,1204 L98,1204"/> 
            <glyph glyph-name="^" unicode="&#x5E;" horiz-adv-x="777" d=" M777,795 L604,795 L428,1191 L421,1191 L244,795 L71,795 L332,1365 L517,1365"/> 
            <glyph glyph-name="_" unicode="&#x5F;" horiz-adv-x="900" d=" M900,-271 L-1,-271 L-1,-103 L900,-103"/> 
            <glyph glyph-name="`" unicode="&#x60;" horiz-adv-x="674" d=" M674,1226 L523,1226 L244,1580 L436,1580"/> 
            <glyph glyph-name="a" unicode="&#x61;" horiz-adv-x="959" d=" M459,-17 Q305,-17 209.5,71.5 Q114,160 114,307 Q114,450 211,534.5 Q308,619 486,619 L757,619 L757,719 Q757,809 702,854 Q647,899 548,899 Q380,899 347,779 L154,779 Q165,914 268,993 Q371,1072 554,1072 Q641,1072 711.5,1053 Q782,1034 839,993.5 Q896,953 927.5,882.5 Q959,812 959,716 L959,0 L766,0 L766,137 L757,137 Q716,69 642,26 Q568,-17 459,-17 M519,153 Q620,153 688.5,211.5 Q757,270 757,358 L757,472 L511,472 Q414,472 366,430 Q318,388 318,318 Q318,238 376,195.5 Q434,153 519,153"/> 
            <glyph glyph-name="b" unicode="&#x62;" horiz-adv-x="1096" d=" M690,-15 Q570,-15 490.5,34 Q411,83 380,159 L370,159 L370,0 L174,0 L174,1467 L376,1467 L376,889 L386,889 Q409,965 489.5,1018 Q570,1071 695,1071 Q879,1071 987.5,949.5 Q1096,828 1096,611 L1096,446 Q1096,229 986,107 Q876,-15 690,-15 M642,164 Q757,164 824.5,242.5 Q892,321 892,474 L892,577 Q892,729 824.5,810.5 Q757,892 638,892 Q517,892 446.5,812.5 Q376,733 376,597 L376,441 Q376,319 450,241.5 Q524,164 642,164"/> 
            <glyph glyph-name="c" unicode="&#x63;" horiz-adv-x="989" d=" M122,453 L122,608 Q122,820 242.5,947 Q363,1074 570,1074 Q760,1074 869.5,973.5 Q979,873 982,732 L789,732 Q785,760 772.5,785.5 Q760,811 736.5,836.5 Q713,862 671,877.5 Q629,893 574,893 Q453,893 388.5,815.5 Q324,738 324,603 L324,453 Q324,319 391,241 Q458,163 574,163 Q764,163 795,313 L989,313 Q984,168 875,75 Q766,-18 569,-18 Q363,-18 242.5,107.5 Q122,233 122,453"/> 
            <glyph glyph-name="d" unicode="&#x64;" horiz-adv-x="1045" d=" M529,1072 Q649,1072 726.5,1023 Q804,974 833,899 L843,899 L843,1467 L1045,1467 L1045,0 L850,0 L850,168 L840,168 Q818,93 734.5,39.5 Q651,-14 525,-14 Q342,-14 232.5,107 Q123,228 123,436 L123,621 Q123,827 233,949.5 Q343,1072 529,1072 M695,893 Q461,893 394,813 Q327,733 327,589 L327,470 Q327,324 395.5,244 Q464,164 583,164 Q702,164 772.5,242.5 Q843,321 843,456 L843,619 Q843,740 695,893"/> 
            <glyph glyph-name="e" unicode="&#x65;" horiz-adv-x="1012" d=" M581,-18 Q366,-18 244,108 Q122,234 122,456 L122,601 Q122,820 246.5,947 Q371,1074 567,1074 Q764,1074 888,945 Q1012,816 1012,601 L1012,476 L322,476 L322,424 Q322,306 390,231.5 Q458,157 579,157 Q666,157 725,192 Q784,227 797,278 L999,278 Q994,240 976.5,200.5 Q959,161 924.5,121.5 Q890,82 843,51.5 Q796,21 728,1.5 Q660,-18 581,-18 M322,619 L813,619 L813,634 Q813,755 746,828.5 Q679,902 568,902 Q457,902 389.5,828.5 Q322,755 322,634"/> 
            <glyph glyph-name="f" unicode="&#x66;" horiz-adv-x="729" d=" M263,0 L263,879 L87,879 L87,1050 L263,1050 L263,1155 Q263,1311 343,1381.5 Q423,1452 602,1452 Q666,1452 729,1445 L729,1281 Q692,1286 634,1286 Q542,1286 502,1253.5 Q462,1221 462,1138 L462,1050 L705,1050 L705,879 L465,879 L465,0"/> 
            <glyph glyph-name="g" unicode="&#x67;" horiz-adv-x="1031" d=" M565,-223 Q696,-223 763,-157.5 Q830,-92 830,28 L830,185 L819,185 Q787,113 708,66 Q629,19 523,19 Q343,19 227,141 Q111,263 111,473 L111,616 Q111,826 226.5,948.5 Q342,1071 522,1071 Q634,1071 716.5,1019.5 Q799,968 827,896 L836,896 L836,1056 L1031,1056 L1031,20 Q1031,-88 995.5,-169 Q960,-250 895,-298.5 Q830,-347 745.5,-370.5 Q661,-394 557,-394 Q357,-394 251,-310 Q145,-226 134,-97 L336,-97 Q348,-153 408.5,-188 Q469,-223 565,-223 M580,892 Q458,892 387,809 Q316,726 316,587 L316,495 Q316,358 390,274.5 Q464,191 582,191 Q697,191 763.5,271 Q830,351 830,468 L830,611 Q830,729 761.5,810.5 Q693,892 580,892"/> 
            <glyph glyph-name="h" unicode="&#x68;" horiz-adv-x="1064" d=" M176,0 L176,1467 L377,1467 L377,867 L388,867 Q397,899 418,931 Q439,963 475.5,996.5 Q512,1030 573.5,1051 Q635,1072 711,1072 Q870,1072 967,980 Q1064,888 1064,713 L1064,0 L862,0 L862,649 Q862,767 802,827 Q742,887 639,887 Q515,887 446,804 Q377,721 377,587 L377,0"/> 
            <glyph glyph-name="i" unicode="&#x69;" horiz-adv-x="436" d=" M196,0 L196,1056 L398,1056 L398,0 M159,1375 Q159,1434 197.5,1471.5 Q236,1509 296,1509 Q358,1509 397,1471.5 Q436,1434 436,1375 Q436,1317 397,1279.5 Q358,1242 296,1242 Q237,1242 198,1279.5 Q159,1317 159,1375"/> 
            <glyph glyph-name="j" unicode="&#x6A;" horiz-adv-x="436" d=" M159,1375 Q159,1434 197.5,1471.5 Q236,1509 296,1509 Q358,1509 397,1471.5 Q436,1434 436,1375 Q436,1317 397,1279.5 Q358,1242 296,1242 Q237,1242 198,1279.5 Q159,1317 159,1375 M398,1056 L398,-23 Q398,-201 318,-285.5 Q238,-370 92,-370 Q34,-370 -11,-362 L-11,-199 Q16,-204 53,-204 Q130,-204 163,-160.5 Q196,-117 196,-21 L196,1056"/> 
            <glyph glyph-name="k" unicode="&#x6B;" horiz-adv-x="1050" d=" M377,379 L377,0 L175,0 L175,1467 L377,1467 L377,596 L385,596 L791,1056 L1023,1056 L618,599 L1050,0 L811,0 L467,470"/> 
            <glyph glyph-name="l" unicode="&#x6C;" horiz-adv-x="381" d=" M179,0 L179,1467 L381,1467 L381,0"/> 
            <glyph glyph-name="m" unicode="&#x6D;" horiz-adv-x="1635" d=" M172,0 L172,1056 L372,1056 L372,885 L382,885 Q392,918 410.5,947 Q429,976 461,1006 Q493,1036 546.5,1054 Q600,1072 668,1072 Q783,1072 858.5,1017.5 Q934,963 960,874 L969,874 Q1003,959 1084,1015.5 Q1165,1072 1290,1072 Q1452,1072 1543.5,984.5 Q1635,897 1635,740 L1635,0 L1433,0 L1433,677 Q1433,778 1378.5,834 Q1324,890 1224,890 Q1129,890 1066,825.5 Q1003,761 1003,657 L1003,0 L805,0 L805,671 Q805,773 747.5,831.5 Q690,890 592,890 Q496,890 435,827 Q374,764 374,659 L374,0"/> 
            <glyph glyph-name="n" unicode="&#x6E;" horiz-adv-x="1057" d=" M172,0 L172,1056 L372,1056 L372,867 L382,867 Q394,903 413.5,934.5 Q433,966 468.5,999.5 Q504,1033 563.5,1052.5 Q623,1072 700,1072 Q865,1072 961,981 Q1057,890 1057,715 L1057,0 L855,0 L855,651 Q855,769 797.5,828 Q740,887 637,887 Q510,887 442,804 Q374,721 374,587 L374,0"/> 
            <glyph glyph-name="o" unicode="&#x6F;" horiz-adv-x="1047" d=" M585,1074 Q790,1074 918.5,946 Q1047,818 1047,599 L1047,460 Q1047,236 919,109 Q791,-18 585,-18 Q376,-18 249,108 Q122,234 122,460 L122,599 Q122,813 251.5,943.5 Q381,1074 585,1074 M706,898 Q466,898 395.5,811 Q325,724 325,588 L325,468 Q325,330 393.5,244 Q462,158 586,158 Q709,158 776.5,243.5 Q844,329 844,468 L844,588 Q844,725 706,898"/> 
            <glyph glyph-name="p" unicode="&#x70;" horiz-adv-x="1093" d=" M687,-15 Q567,-15 492.5,33.5 Q418,82 385,159 L375,159 L375,-360 L173,-360 L173,1057 L369,1057 L369,889 L379,889 Q409,968 490,1019.5 Q571,1071 693,1071 Q876,1071 984.5,949 Q1093,827 1093,611 L1093,446 Q1093,229 983,107 Q873,-15 687,-15 M637,164 Q753,164 821,243 Q889,322 889,476 L889,579 Q889,731 821,811.5 Q753,892 633,892 Q512,892 443.5,814.5 Q375,737 375,601 L375,438 Q375,316 447,240 Q519,164 637,164"/> 
            <glyph glyph-name="q" unicode="&#x71;" horiz-adv-x="1043" d=" M524,1071 Q642,1071 723,1021 Q804,971 837,890 L847,890 L847,1056 L1043,1056 L1043,-361 L841,-361 L841,161 L831,161 Q800,84 720,34.5 Q640,-15 521,-15 Q337,-15 230,108 Q123,231 123,443 L123,613 Q123,823 231.5,947 Q340,1071 524,1071 M579,891 Q460,891 393.5,809.5 Q327,728 327,587 L327,469 Q327,323 394.5,243 Q462,163 582,163 Q702,163 771.5,241 Q841,319 841,454 L841,617 Q841,739 768,815 Q695,891 579,891"/> 
            <glyph glyph-name="r" unicode="&#x72;" horiz-adv-x="752" d=" M187,0 L187,1056 L389,1056 L389,892 L399,892 Q410,922 429.5,950.5 Q449,979 481.5,1008 Q514,1037 566,1054.5 Q618,1072 682,1072 Q712,1072 752,1066 L752,874 Q727,881 662,881 Q531,881 461.5,812 Q392,743 392,632 L392,0"/> 
            <glyph glyph-name="s" unicode="&#x73;" horiz-adv-x="938" d=" M125,750 Q125,833 157.5,896.5 Q190,960 247,998 Q304,1036 374.5,1055 Q445,1074 526,1074 Q699,1074 804.5,992 Q910,910 910,772 L726,772 Q720,830 667,872 Q614,914 520,914 Q430,914 374.5,875.5 Q319,837 319,769 Q319,730 337.5,703 Q356,676 398.5,659.5 Q441,643 469,636 Q497,629 556,619 Q575,616 584,614 Q665,600 723,581 Q781,562 833,529 Q885,496 911.5,443 Q938,390 938,318 Q938,160 822,71 Q706,-18 509,-18 Q325,-18 215,62.5 Q105,143 105,283 L302,283 Q323,141 519,141 Q631,141 686,183 Q741,225 741,293 Q741,331 723,357.5 Q705,384 668,400 Q631,416 592,426 Q553,436 495,447 Q483,449 477,450 Q411,463 365,476 Q319,489 270,512.5 Q221,536 192,566 Q163,596 144,642.5 Q125,689 125,750"/> 
            <glyph glyph-name="t" unicode="&#x74;" horiz-adv-x="686" d=" M237,1050 L237,1314 L436,1314 L436,1050 L673,1050 L673,879 L436,879 L436,313 Q436,227 471.5,196 Q507,165 601,165 Q652,165 686,169 L686,2 Q646,-8 551,-8 Q456,-8 394.5,9 Q333,26 297.5,65.5 Q262,105 248.5,159.5 Q235,214 235,297 L235,879 L74,879 L74,1050"/> 
            <glyph glyph-name="u" unicode="&#x75;" horiz-adv-x="1046" d=" M1046,1056 L1046,0 L847,0 L847,176 L836,176 Q810,100 730,41.5 Q650,-17 524,-17 Q357,-17 261,68 Q165,153 165,331 L165,1056 L367,1056 L367,388 Q367,270 427.5,219 Q488,168 587,168 Q696,168 770.5,236 Q845,304 845,404 L845,1056"/> 
            <glyph glyph-name="v" unicode="&#x76;" horiz-adv-x="1007" d=" M414,0 L49,1056 L271,1056 L517,212 L526,212 L793,1056 L1007,1056 L629,0"/> 
            <glyph glyph-name="w" unicode="&#x77;" horiz-adv-x="1492" d=" M1492,1056 L1213,0 L1010,0 L781,783 L775,783 L552,0 L347,0 L55,1056 L275,1056 L453,248 L461,248 L683,1056 L873,1056 L1100,248 L1109,248 L1290,1056"/> 
            <glyph glyph-name="x" unicode="&#x78;" horiz-adv-x="1013" d=" M779,0 L542,376 L535,376 L298,0 L76,0 L421,523 L70,1056 L309,1056 L539,681 L548,681 L785,1056 L1012,1056 L658,537 L1013,0"/> 
            <glyph glyph-name="y" unicode="&#x79;" horiz-adv-x="1035" d=" M1035,1056 Q671,18 669,12 L642,-61 Q621,-119 601,-161.5 Q581,-204 549.5,-248 Q518,-292 480,-319 Q442,-346 386.5,-363.5 Q331,-381 262,-381 Q196,-381 142,-371 L142,-206 Q167,-212 223,-212 Q314,-212 359,-173.5 Q404,-135 425,-56 L439,-9 L58,1056 L281,1056 L546,199 L555,199 L821,1056"/> 
            <glyph glyph-name="z" unicode="&#x7A;" horiz-adv-x="918" d=" M119,0 L119,133 L663,867 L663,878 L119,878 L119,1056 L911,1056 L911,915 L373,189 L373,178 L918,178 L918,0"/> 
            <glyph glyph-name="{" unicode="&#x7B;" horiz-adv-x="714" d=" M280,596 L280,572 Q458,555 458,343 L458,55 Q458,-56 505.5,-103 Q553,-150 673,-150 L714,-150 L714,-313 L645,-313 Q458,-313 363.5,-231.5 Q269,-150 269,33 L269,278 Q269,386 234.5,432 Q200,478 103,478 L103,690 Q200,690 234.5,735.5 Q269,781 269,889 L269,1104 Q269,1285 363,1363.5 Q457,1442 645,1442 L714,1442 L714,1278 L673,1278 Q553,1278 505.5,1231 Q458,1184 458,1074 L458,817 Q458,712 413.5,658.5 Q369,605 280,596"/> 
            <glyph glyph-name="|" unicode="&#x7C;" horiz-adv-x="452" d=" M452,-304 L277,-304 L277,1437 L452,1437"/> 
            <glyph glyph-name="}" unicode="&#x7D;" horiz-adv-x="674" d=" M497,572 L497,596 Q320,614 320,817 L320,1074 Q320,1184 271.5,1231 Q223,1278 104,1278 L63,1278 L63,1442 L132,1442 Q320,1442 414,1363.5 Q508,1285 508,1104 L508,889 Q508,781 542.5,735.5 Q577,690 674,690 L674,478 Q577,478 542.5,432 Q508,386 508,278 L508,33 Q508,-150 413.5,-231.5 Q319,-313 132,-313 L63,-313 L63,-150 L104,-150 Q223,-150 271.5,-102.5 Q320,-55 320,55 L320,343 Q320,555 497,572"/> 
            <glyph glyph-name="~" unicode="&#x7E;" horiz-adv-x="1072" d=" M791,488 Q732,488 680.5,509 Q629,530 593,560.5 Q557,591 525,621.5 Q493,652 457.5,673 Q422,694 387,694 Q330,694 298,645.5 Q266,597 264,526 L96,526 Q93,673 166,775 Q239,877 377,877 Q437,877 489,856 Q541,835 576,804.5 Q611,774 642.5,743.5 Q674,713 708.5,692 Q743,671 779,671 Q837,671 867.5,719.5 Q898,768 902,840 L1070,840 Q1072,689 999,588.5 Q926,488 791,488"/> 
            <glyph glyph-name="¡" unicode="&#xA1;" horiz-adv-x="444" d=" M404,-277 L179,-277 L203,611 L380,611 M444,962 Q444,897 401.5,855.5 Q359,814 293,814 Q225,814 182,855.5 Q139,897 139,962 Q139,1025 182,1065.5 Q225,1106 293,1106 Q358,1106 401,1065 Q444,1024 444,962"/> 
            <glyph glyph-name="¢" unicode="&#xA2;" horiz-adv-x="1011" d=" M1011,464 Q1007,338 916.5,247 Q826,156 667,140 L667,-86 L509,-86 L509,140 Q341,158 239.5,279.5 Q138,401 138,600 L138,764 Q138,957 240,1078 Q342,1199 509,1218 L509,1455 L667,1455 L667,1217 Q820,1200 910.5,1103.5 Q1001,1007 1005,884 L813,884 Q809,911 795.5,938 Q782,965 757.5,991.5 Q733,1018 689,1034.5 Q645,1051 589,1051 Q466,1051 398.5,972 Q331,893 331,761 L331,598 Q331,467 400.5,390.5 Q470,314 589,314 Q695,314 750.5,356 Q806,398 820,464"/> 
            <glyph glyph-name="£" unicode="&#xA3;" horiz-adv-x="1076" d=" M1076,179 L1076,0 L121,0 L121,188 Q169,190 196.5,197.5 Q224,205 248,229 Q272,253 281.5,300.5 Q291,348 291,427 L291,612 L102,612 L102,769 L291,769 L291,1042 Q291,1206 401,1299 Q511,1392 684,1392 Q860,1392 961.5,1301.5 Q1063,1211 1068,1051 L878,1051 Q874,1121 822,1167 Q770,1213 684,1213 Q586,1213 536.5,1158.5 Q487,1104 487,1019 L487,769 L783,769 L783,612 L487,612 L487,418 Q486,327 470,270.5 Q454,214 414,191 L414,179"/> 
            <glyph glyph-name="¤" unicode="&#xA4;" horiz-adv-x="1074" d=" M964,152 L793,321 Q699,262 589,262 Q473,262 380,324 L206,152 L96,267 L269,439 Q204,537 204,653 Q204,767 265,862 L96,1029 L207,1145 L374,979 Q470,1045 589,1045 Q704,1045 799,982 L964,1145 L1074,1029 L910,865 Q973,766 973,653 Q973,533 905,435 L1074,267 M350,750 Q350,556 420,488 Q490,420 589,420 Q687,420 757,488.5 Q827,557 827,653 Q827,750 757,819 Q687,888 589,888 Q490,888 350,750"/> 
            <glyph glyph-name="¥" unicode="&#xA5;" horiz-adv-x="1144" d=" M975,248 L687,248 L687,0 L482,0 L482,248 L195,248 L195,392 L482,392 L482,528 L195,528 L195,672 L422,672 L25,1365 L257,1365 L580,773 L590,773 L915,1365 L1144,1365 L747,672 L975,672 L975,528 L687,528 L687,392 L975,392"/> 
            <glyph glyph-name="¦" unicode="&#xA6;" horiz-adv-x="346" d=" M346,782 L171,782 L171,1437 L346,1437 M346,-304 L171,-304 L171,378 L346,378"/> 
            <glyph glyph-name="§" unicode="&#xA7;" horiz-adv-x="894" d=" M695,72 Q695,103 682.5,128 Q670,153 650,169 Q630,185 597,198.5 Q564,212 533.5,221 Q503,230 458,242 Q442,246 434,248 Q360,267 307,288.5 Q254,310 206,344.5 Q158,379 133.5,431 Q109,483 109,551 Q109,712 277,798 L277,805 Q115,897 115,1062 Q115,1167 169.5,1244 Q224,1321 309,1357 Q394,1393 498,1393 Q666,1393 769,1304 Q872,1215 872,1076 L694,1076 Q690,1134 637,1181 Q584,1228 493,1228 Q409,1228 357,1185 Q305,1142 305,1072 Q305,985 408,940 Q448,923 559,895 Q618,881 658.5,868.5 Q699,856 747.5,832 Q796,808 825,778 Q854,748 874,701 Q894,654 894,594 Q894,508 850,442.5 Q806,377 742,336 L742,328 Q809,286 848,232 Q887,178 887,92 Q887,-63 775.5,-157.5 Q664,-252 486,-252 Q376,-252 287.5,-215 Q199,-178 146,-105 Q93,-32 92,64 L276,64 Q287,-5 341,-45 Q395,-85 487,-85 Q593,-85 644,-40.5 Q695,4 695,72 M593,384 Q641,404 673,453.5 Q705,503 705,559 Q705,631 651.5,671.5 Q598,712 495,734 Q471,738 420,749 Q374,734 334.5,685 Q295,636 295,578 Q295,505 347.5,467.5 Q400,430 503,405 Q561,391 593,384"/> 
            <glyph glyph-name="¨" unicode="&#xA8;" horiz-adv-x="796" d=" M677,1218 Q630,1218 597.5,1250 Q565,1282 565,1330 Q565,1379 597.5,1411 Q630,1443 677,1443 Q729,1443 762.5,1411 Q796,1379 796,1330 Q796,1282 762.5,1250 Q729,1218 677,1218 M304,1218 Q255,1218 222,1250 Q189,1282 189,1330 Q189,1379 221.5,1411 Q254,1443 304,1443 Q354,1443 387,1411 Q420,1379 420,1330 Q420,1282 387,1250 Q354,1218 304,1218"/> 
            <glyph glyph-name="©" unicode="&#xA9;" horiz-adv-x="1572" d=" M527,632 L527,731 Q527,888 617,975.5 Q707,1063 858,1063 Q995,1063 1077.5,986.5 Q1160,910 1162,807 L1023,807 Q1016,855 977.5,893.5 Q939,932 859,932 Q668,932 668,725 L668,631 Q668,533 718.5,483.5 Q769,434 859,434 Q1006,434 1028,541 L1166,541 Q1163,440 1083,368.5 Q1003,297 858,297 Q706,297 616.5,384.5 Q527,472 527,632 M258,641 Q258,474 331.5,342 Q405,210 540.5,135 Q676,60 852,60 Q984,60 1095.5,103.5 Q1207,147 1284.5,224 Q1362,301 1405.5,408.5 Q1449,516 1449,641 L1449,747 Q1449,901 1374.5,1028.5 Q1300,1156 1162.5,1231.5 Q1025,1307 852,1307 Q679,1307 542.5,1232 Q406,1157 332,1029.5 Q258,902 258,747 M852,-64 Q643,-64 478,28 Q313,120 222.5,281.5 Q132,443 132,644 L132,747 Q132,889 186,1015 Q240,1141 334,1233 Q428,1325 563,1378.5 Q698,1432 852,1432 Q1007,1432 1142,1378 Q1277,1324 1370.5,1231.5 Q1464,1139 1518,1013 Q1572,887 1572,747 L1572,644 Q1572,493 1519,362 Q1466,231 1372.5,137.5 Q1279,44 1144,-10 Q1009,-64 852,-64"/> 
            <glyph glyph-name="ª" unicode="&#xAA;" horiz-adv-x="594" d=" M290,770 Q200,770 145.5,817.5 Q91,865 91,948 Q91,1030 146,1076 Q201,1122 307,1122 L454,1122 L454,1173 Q454,1257 348,1257 Q259,1257 247,1199 L114,1199 Q120,1276 178.5,1323 Q237,1370 352,1370 Q462,1370 528,1322.5 Q594,1275 594,1171 L594,779 L460,779 L460,853 L454,853 Q406,770 290,770 M334,878 Q384,878 419,905.5 Q454,933 454,975 L454,1031 L334,1031 Q229,1031 229,958 Q229,919 259,898.5 Q289,878 334,878"/> 
            <glyph glyph-name="«" unicode="&#xAB;" horiz-adv-x="1172" d=" M616,565 L960,969 L1172,969 L833,566 L833,560 L1172,155 L951,155 L616,557 M132,565 L476,969 L688,969 L349,566 L349,560 L688,155 L467,155 L132,557"/> 
            <glyph glyph-name="¬" unicode="&#xAC;" horiz-adv-x="1070" d=" M1070,93 L894,93 L894,456 L96,456 L96,631 L1070,631"/> 
            <glyph glyph-name="®" unicode="&#xAE;" horiz-adv-x="1097" d=" M820,414 Q394,414 255.5,549 Q117,684 117,888 L117,957 Q117,1149 257.5,1282 Q398,1415 607,1415 Q815,1415 956,1281.5 Q1097,1148 1097,957 L1097,888 Q1097,683 820,414 M437,514 Q777,514 887.5,620.5 Q998,727 998,888 L998,956 Q998,1107 886.5,1211.5 Q775,1316 607,1316 Q439,1316 328,1212 Q217,1108 217,956 L217,888 Q217,727 437,514 M530,1086 L530,941 L607,941 Q706,941 706,1014 Q706,1048 682,1067 Q658,1086 619,1086 M530,686 L429,686 L429,1165 L654,1165 Q722,1165 765.5,1123 Q809,1081 809,1017 Q809,965 782.5,925.5 Q756,886 715,875 L824,686 L708,686 L613,863 L530,863"/> 
            <glyph glyph-name="¯" unicode="&#xAF;" horiz-adv-x="797" d=" M797,1246 L192,1246 L192,1373 L797,1373"/> 
            <glyph glyph-name="°" unicode="&#xB0;" horiz-adv-x="649" d=" M362,806 Q241,806 157.5,890 Q74,974 74,1096 Q74,1217 157.5,1300.5 Q241,1384 362,1384 Q482,1384 565.5,1300 Q649,1216 649,1096 Q649,975 565,890.5 Q481,806 362,806 M363,948 Q425,948 468.5,992 Q512,1036 512,1096 Q512,1157 468.5,1200 Q425,1243 363,1243 Q302,1243 257.5,1200 Q213,1157 213,1096 Q213,1036 257.5,992 Q302,948 363,948"/> 
            <glyph glyph-name="±" unicode="&#xB1;" horiz-adv-x="1063" d=" M665,651 L665,380 L496,380 L496,651 L104,651 L104,820 L496,820 L496,1076 L665,1076 L665,820 L1060,820 L1060,651 M1063,97 L107,97 L107,269 L1063,269"/> 
            <glyph glyph-name="²" unicode="&#xB2;" horiz-adv-x="584" d=" M239,1155 L101,1155 L101,1165 Q101,1252 163,1315.5 Q225,1379 338,1379 Q444,1379 508.5,1323.5 Q573,1268 573,1183 Q573,1149 562.5,1117.5 Q552,1086 531.5,1057 Q511,1028 495,1010.5 Q479,993 454,968 L296,822 L296,819 L584,819 L584,693 L114,693 L114,789 L357,1041 Q430,1116 430,1170 Q430,1208 403,1231 Q376,1254 335,1254 Q291,1254 265,1228.5 Q239,1203 239,1166"/> 
            <glyph glyph-name="³" unicode="&#xB3;" horiz-adv-x="596" d=" M263,979 L263,1097 L339,1097 Q383,1097 409.5,1120.5 Q436,1144 436,1180 Q436,1216 409.5,1238 Q383,1260 341,1260 Q296,1260 269,1236.5 Q242,1213 240,1179 L107,1179 Q110,1267 172,1323 Q234,1379 343,1379 Q446,1379 509.5,1330 Q573,1281 573,1201 Q573,1143 539,1102 Q505,1061 450,1047 L450,1044 Q514,1033 555,993 Q596,953 596,885 Q596,791 524,736 Q452,681 343,681 Q229,681 163,740.5 Q97,800 94,883 L228,883 Q231,848 261,825 Q291,802 339,802 Q390,802 422,827 Q454,852 454,891 Q454,929 423.5,954 Q393,979 342,979"/> 
            <glyph glyph-name="´" unicode="&#xB4;" horiz-adv-x="737" d=" M306,1226 L545,1580 L737,1580 L458,1226"/> 
            <glyph glyph-name="¶" unicode="&#xB6;" horiz-adv-x="1143" d=" M787,-210 L591,-210 L591,490 L571,490 Q516,490 457.5,504.5 Q399,519 339,553 Q279,587 231.5,636 Q184,685 154,760.5 Q124,836 124,927 Q124,998 140,1059 Q156,1120 182.5,1164 Q209,1208 245.5,1243.5 Q282,1279 322.5,1301 Q363,1323 407.5,1338 Q452,1353 492.5,1359 Q533,1365 572,1365 L787,1365 M947,-210 L947,1365 L1143,1365 L1143,-210"/> 
            <glyph glyph-name="·" unicode="&#xB7;" horiz-adv-x="482" d=" M177,755 Q177,824 220.5,867.5 Q264,911 328,911 Q394,911 438,867.5 Q482,824 482,755 Q482,688 438,645.5 Q394,603 328,603 Q265,603 221,646 Q177,689 177,755"/> 
            <glyph glyph-name="¸" unicode="&#xB8;" horiz-adv-x="729" d=" M385,-235 L385,-146 L444,8 L575,8 L523,-129 Q618,-129 673.5,-171.5 Q729,-214 729,-293 Q729,-386 666,-433.5 Q603,-481 500,-485 Q414,-488 351,-469 L351,-356 Q398,-370 466,-370 Q514,-370 547.5,-353.5 Q581,-337 581,-299 Q581,-277 570.5,-263.5 Q560,-250 537,-244 Q514,-238 493.5,-236.5 Q473,-235 438,-235"/> 
            <glyph glyph-name="¹" unicode="&#xB9;" horiz-adv-x="448" d=" M448,693 L304,693 L304,1218 L297,1218 L144,1106 L144,1247 L304,1365 L448,1365"/> 
            <glyph glyph-name="º" unicode="&#xBA;" horiz-adv-x="618" d=" M347,1255 Q284,1255 249.5,1211.5 Q215,1168 215,1100 L215,1038 Q215,969 248.5,926 Q282,883 347,883 Q411,883 444,926 Q477,969 477,1038 L477,1100 Q477,1168 443,1211.5 Q409,1255 347,1255 M225,1370 Q469,1370 543.5,1297.5 Q618,1225 618,1102 L618,1037 Q618,909 544,838 Q470,767 347,767 Q223,767 149,838 Q75,909 75,1037 L75,1102 Q75,1223 225,1370"/> 
            <glyph glyph-name="»" unicode="&#xBB;" horiz-adv-x="1195" d=" M1195,565 L1195,557 L860,155 L639,155 L978,560 L978,566 L639,969 L851,969 M711,565 L711,557 L376,155 L155,155 L494,560 L494,566 L155,969 L367,969"/> 
            <glyph glyph-name="¼" unicode="&#xBC;" horiz-adv-x="1407" d=" M999,232 L1197,232 L1197,554 L1191,554 Q1115,440 999,235 M1131,672 L1326,672 L1326,232 L1407,232 L1407,116 L1326,116 L1326,0 L1197,0 L1197,116 L863,116 L863,230 Q927,344 1131,672 M424,693 L280,693 L280,1218 L273,1218 L120,1106 L120,1247 L280,1365 L424,1365 M313,0 L146,0 L679,698 L1190,1365 L1356,1365 L826,672"/> 
            <glyph glyph-name="½" unicode="&#xBD;" horiz-adv-x="1451" d=" M1100,452 L960,452 L960,462 Q960,550 1023,614.5 Q1086,679 1201,679 Q1308,679 1373.5,623 Q1439,567 1439,480 Q1439,446 1428.5,414 Q1418,382 1397,352.5 Q1376,323 1360.5,305.5 Q1345,288 1319,262 L1158,114 L1158,111 L1451,111 L1451,-17 L973,-17 L973,80 L1220,336 Q1294,412 1294,467 Q1294,505 1266.5,528.5 Q1239,552 1198,552 Q1154,552 1127,526 Q1100,500 1100,463 M424,693 L280,693 L280,1218 L273,1218 L120,1106 L120,1247 L280,1365 L424,1365 M313,0 L146,0 L679,698 L1190,1365 L1356,1365 L826,672"/> 
            <glyph glyph-name="¾" unicode="&#xBE;" horiz-adv-x="1464" d=" M1056,234 L1254,234 L1254,554 L1248,554 Q1173,443 1056,236 M1189,672 L1385,672 L1385,234 L1464,234 L1464,116 L1385,116 L1385,0 L1254,0 L1254,116 L921,116 L921,230 Q994,363 1189,672 M290,961 L290,1080 L367,1080 Q412,1080 438.5,1103.5 Q465,1127 465,1164 Q465,1201 438.5,1223 Q412,1245 369,1245 Q323,1245 296,1221 Q269,1197 267,1163 L132,1163 Q135,1252 197.5,1308.5 Q260,1365 371,1365 Q475,1365 539.5,1315 Q604,1265 604,1185 Q604,1127 569.5,1085.5 Q535,1044 480,1030 L480,1027 Q545,1016 586,975.5 Q627,935 627,866 Q627,771 554.5,715.5 Q482,660 371,660 Q255,660 188.5,720 Q122,780 119,864 L255,864 Q258,828 288,805 Q318,782 367,782 Q419,782 451.5,807.5 Q484,833 484,872 Q484,910 453,935.5 Q422,961 370,961 M371,0 L204,0 L737,698 L1248,1365 L1414,1365 L884,672"/> 
            <glyph glyph-name="¿" unicode="&#xBF;" horiz-adv-x="924" d=" M677,948 Q677,883 634,841.5 Q591,800 526,800 Q458,800 414.5,841.5 Q371,883 371,948 Q371,1011 414.5,1051.5 Q458,1092 526,1092 Q591,1092 634,1051 Q677,1010 677,948 M923,77 Q924,-9 899.5,-78 Q875,-147 833.5,-191.5 Q792,-236 735.5,-266 Q679,-296 620,-308.5 Q561,-321 498,-321 Q416,-321 343,-299 Q270,-277 211.5,-235 Q153,-193 119,-124 Q85,-55 85,31 Q85,91 100.5,141 Q116,191 148.5,231 Q181,271 208,295.5 Q235,320 280,354 Q333,395 355.5,414 Q378,433 401,461.5 Q424,490 431,518.5 Q438,547 438,589 L438,646 L629,646 L630,572 Q632,503 604.5,442.5 Q577,382 539.5,343 Q502,304 443,259 Q400,226 379,208.5 Q358,191 334,163.5 Q310,136 300.5,107.5 Q291,79 291,43 Q291,-50 353.5,-97 Q416,-144 508,-144 Q616,-144 674.5,-82 Q733,-20 733,77"/> 
            <glyph glyph-name="À" unicode="&#xC0;" horiz-adv-x="1223" d=" M257,0 L49,0 L525,1365 L748,1365 L1223,0 L1003,0 L875,381 L385,381 M635,1132 L627,1132 L435,551 L827,551 M730,1509 L582,1509 L302,1854 L492,1854"/> 
            <glyph glyph-name="Á" unicode="&#xC1;" horiz-adv-x="1223" d=" M257,0 L49,0 L525,1365 L748,1365 L1223,0 L1003,0 L875,381 L385,381 M635,1132 L627,1132 L435,551 L827,551 M542,1509 L780,1854 L970,1854 L690,1509"/> 
            <glyph glyph-name="Â" unicode="&#xC2;" horiz-adv-x="1223" d=" M257,0 L49,0 L525,1365 L748,1365 L1223,0 L1003,0 L875,381 L385,381 M635,1132 L627,1132 L435,551 L827,551 M704,1743 L972,1497 L787,1497 L639,1632 L632,1632 L475,1497 L294,1497 L572,1743"/> 
            <glyph glyph-name="Ã" unicode="&#xC3;" horiz-adv-x="1223" d=" M257,0 L49,0 L525,1365 L748,1365 L1223,0 L1003,0 L875,381 L385,381 M635,1132 L627,1132 L435,551 L827,551 M759,1461 Q715,1461 677,1479.5 Q639,1498 617.5,1519.5 Q596,1541 569,1559.5 Q542,1578 518,1578 Q482,1578 465.5,1546.5 Q449,1515 447,1476 L329,1476 Q329,1564 376.5,1628.5 Q424,1693 511,1693 Q555,1693 593.5,1674.5 Q632,1656 655,1634.5 Q678,1613 706,1594.5 Q734,1576 758,1576 Q794,1576 813,1606.5 Q832,1637 833,1677 L951,1677 Q951,1589 899.5,1525 Q848,1461 759,1461"/> 
            <glyph glyph-name="Ä" unicode="&#xC4;" horiz-adv-x="1223" d=" M257,0 L49,0 L525,1365 L748,1365 L1223,0 L1003,0 L875,381 L385,381 M635,1132 L627,1132 L435,551 L827,551 M816,1473 Q769,1473 737.5,1503.5 Q706,1534 706,1580 Q706,1628 737,1658 Q768,1688 816,1688 Q866,1688 897.5,1658 Q929,1628 929,1580 Q929,1533 897.5,1503 Q866,1473 816,1473 M453,1473 Q406,1473 374.5,1503.5 Q343,1534 343,1580 Q343,1628 374,1658 Q405,1688 453,1688 Q503,1688 534,1658 Q565,1628 565,1580 Q565,1533 533.5,1503 Q502,1473 453,1473"/> 
            <glyph glyph-name="Å" unicode="&#xC5;" horiz-adv-x="1223" d=" M257,0 L49,0 L525,1365 L748,1365 L1223,0 L1003,0 L875,381 L385,381 M635,1132 L627,1132 L435,551 L827,551 M637,1477 Q553,1477 496,1533.5 Q439,1590 439,1674 Q439,1758 496,1813.5 Q553,1869 637,1869 Q720,1869 777,1813.5 Q834,1758 834,1674 Q834,1590 777,1533.5 Q720,1477 637,1477 M537,1673 Q537,1632 565.5,1603 Q594,1574 636,1574 Q678,1574 706.5,1602.5 Q735,1631 735,1673 Q735,1715 707,1743.5 Q679,1772 636,1772 Q594,1772 565.5,1743.5 Q537,1715 537,1673"/> 
            <glyph glyph-name="Æ" unicode="&#xC6;" horiz-adv-x="1779" d=" M877,1178 L554,549 L948,550 L948,1178 M948,375 L475,375 L269,0 L39,0 L758,1365 L1779,1365 L1779,1178 L1153,1178 L1153,784 L1743,784 L1743,604 L1153,604 L1153,188 L1779,188 L1779,0 L948,0"/> 
            <glyph glyph-name="Ç" unicode="&#xC7;" horiz-adv-x="1191" d=" M666,-485 Q581,-488 516,-469 L516,-356 Q563,-370 631,-370 Q679,-370 713,-353.5 Q747,-337 747,-299 Q747,-277 736.5,-263.5 Q726,-250 703,-244 Q680,-238 659.5,-236.5 Q639,-235 604,-235 L551,-235 L551,-146 L598,-23 Q378,1 254,158.5 Q130,316 130,587 L130,772 Q130,1063 277,1227.5 Q424,1392 677,1392 Q798,1392 897.5,1352.5 Q997,1313 1060,1247 Q1123,1181 1157,1097.5 Q1191,1014 1191,923 L1191,908 L990,908 Q990,1026 906,1113.5 Q822,1201 678,1201 Q522,1201 430,1090 Q338,979 338,770 L338,588 Q338,377 429.5,271 Q521,165 682,165 Q828,165 909,243.5 Q990,322 990,438 L1191,438 L1191,423 Q1191,345 1162,270.5 Q1133,196 1078,132 Q1023,68 932.5,25.5 Q842,-17 728,-25 L688,-129 Q783,-129 839,-171.5 Q895,-214 895,-293 Q895,-386 832,-433.5 Q769,-481 666,-485"/> 
            <glyph glyph-name="È" unicode="&#xC8;" horiz-adv-x="1023" d=" M693,1509 L545,1509 L265,1854 L455,1854 M1023,188 L1023,0 L184,0 L184,1365 L1023,1365 L1023,1177 L389,1177 L389,784 L987,784 L987,604 L389,604 L389,188"/> 
            <glyph glyph-name="É" unicode="&#xC9;" horiz-adv-x="1023" d=" M505,1509 L743,1854 L933,1854 L653,1509 M1023,188 L1023,0 L184,0 L184,1365 L1023,1365 L1023,1177 L389,1177 L389,784 L987,784 L987,604 L389,604 L389,188"/> 
            <glyph glyph-name="Ê" unicode="&#xCA;" horiz-adv-x="1023" d=" M667,1743 L935,1497 L750,1497 L602,1632 L595,1632 L438,1497 L257,1497 L535,1743 M1023,188 L1023,0 L184,0 L184,1365 L1023,1365 L1023,1177 L389,1177 L389,784 L987,784 L987,604 L389,604 L389,188"/> 
            <glyph glyph-name="Ë" unicode="&#xCB;" horiz-adv-x="1023" d=" M778,1473 Q731,1473 699.5,1503.5 Q668,1534 668,1580 Q668,1628 699,1658 Q730,1688 778,1688 Q828,1688 859.5,1658 Q891,1628 891,1580 Q891,1533 859.5,1503 Q828,1473 778,1473 M415,1473 Q368,1473 336.5,1503.5 Q305,1534 305,1580 Q305,1628 336,1658 Q367,1688 415,1688 Q465,1688 496,1658 Q527,1628 527,1580 Q527,1533 495.5,1503 Q464,1473 415,1473 M1023,188 L1023,0 L184,0 L184,1365 L1023,1365 L1023,1177 L389,1177 L389,784 L987,784 L987,604 L389,604 L389,188"/> 
            <glyph glyph-name="Ì" unicode="&#xCC;" horiz-adv-x="390" d=" M390,0 L184,0 L184,1365 L390,1365 M382,1509 L234,1509 L-46,1854 L144,1854"/> 
            <glyph glyph-name="Í" unicode="&#xCD;" horiz-adv-x="622" d=" M390,0 L184,0 L184,1365 L390,1365 M194,1509 L432,1854 L622,1854 L342,1509"/> 
            <glyph glyph-name="Î" unicode="&#xCE;" horiz-adv-x="624" d=" M390,0 L184,0 L184,1365 L390,1365 M356,1743 L624,1497 L439,1497 L291,1632 L284,1632 L127,1497 L-54,1497 L224,1743"/> 
            <glyph glyph-name="Ï" unicode="&#xCF;" horiz-adv-x="580" d=" M390,0 L184,0 L184,1365 L390,1365 M467,1473 Q420,1473 388.5,1503.5 Q357,1534 357,1580 Q357,1628 388,1658 Q419,1688 467,1688 Q517,1688 548.5,1658 Q580,1628 580,1580 Q580,1533 548.5,1503 Q517,1473 467,1473 M104,1473 Q57,1473 25.5,1503.5 Q-6,1534 -6,1580 Q-6,1628 25,1658 Q56,1688 104,1688 Q154,1688 185,1658 Q216,1628 216,1580 Q216,1533 184.5,1503 Q153,1473 104,1473"/> 
            <glyph glyph-name="Ð" unicode="&#xD0;" horiz-adv-x="1326" d=" M723,0 L265,0 L265,598 L103,598 L103,794 L265,794 L265,1365 L723,1365 Q884,1365 1002,1315.5 Q1120,1266 1190,1173.5 Q1260,1081 1293,960 Q1326,839 1326,684 Q1326,562 1306.5,461 Q1287,360 1242,273.5 Q1197,187 1128,127 Q1059,67 956.5,33.5 Q854,0 723,0 M471,190 L704,190 Q912,190 1012.5,310.5 Q1113,431 1113,684 Q1113,1180 704,1180 L471,1180 L471,794 L758,794 L758,598 L471,598"/> 
            <glyph glyph-name="Ñ" unicode="&#xD1;" horiz-adv-x="1237" d=" M833,1461 Q789,1461 751,1479.5 Q713,1498 691.5,1519.5 Q670,1541 643,1559.5 Q616,1578 592,1578 Q556,1578 539.5,1546.5 Q523,1515 521,1476 L403,1476 Q403,1564 450.5,1628.5 Q498,1693 585,1693 Q629,1693 667.5,1674.5 Q706,1656 729,1634.5 Q752,1613 780,1594.5 Q808,1576 832,1576 Q868,1576 887,1606.5 Q906,1637 907,1677 L1025,1677 Q1025,1589 973.5,1525 Q922,1461 833,1461 M384,0 L184,0 L184,1365 L371,1365 L1027,377 L1037,377 L1037,1365 L1237,1365 L1237,0 L1050,0 L393,991 L384,991"/> 
            <glyph glyph-name="Ò" unicode="&#xD2;" horiz-adv-x="1248" d=" M783,1509 L635,1509 L355,1854 L545,1854 M338,772 L338,582 Q338,376 434.5,269.5 Q531,163 688,163 Q846,163 943,269.5 Q1040,376 1040,582 L1040,772 Q1040,979 942.5,1090.5 Q845,1202 688,1202 Q532,1202 435,1090.5 Q338,979 338,772 M130,583 L130,771 Q130,1060 281,1226 Q432,1392 690,1392 Q948,1392 1098,1226 Q1248,1060 1248,771 L1248,583 Q1248,296 1096.5,134 Q945,-28 686,-28 Q428,-28 279,133.5 Q130,295 130,583"/> 
            <glyph glyph-name="Ó" unicode="&#xD3;" horiz-adv-x="1248" d=" M595,1509 L833,1854 L1023,1854 L743,1509 M338,772 L338,582 Q338,376 434.5,269.5 Q531,163 688,163 Q846,163 943,269.5 Q1040,376 1040,582 L1040,772 Q1040,979 942.5,1090.5 Q845,1202 688,1202 Q532,1202 435,1090.5 Q338,979 338,772 M130,583 L130,771 Q130,1060 281,1226 Q432,1392 690,1392 Q948,1392 1098,1226 Q1248,1060 1248,771 L1248,583 Q1248,296 1096.5,134 Q945,-28 686,-28 Q428,-28 279,133.5 Q130,295 130,583"/> 
            <glyph glyph-name="Ô" unicode="&#xD4;" horiz-adv-x="1248" d=" M757,1743 L1025,1497 L840,1497 L692,1632 L685,1632 L528,1497 L347,1497 L625,1743 M338,772 L338,582 Q338,376 434.5,269.5 Q531,163 688,163 Q846,163 943,269.5 Q1040,376 1040,582 L1040,772 Q1040,979 942.5,1090.5 Q845,1202 688,1202 Q532,1202 435,1090.5 Q338,979 338,772 M130,583 L130,771 Q130,1060 281,1226 Q432,1392 690,1392 Q948,1392 1098,1226 Q1248,1060 1248,771 L1248,583 Q1248,296 1096.5,134 Q945,-28 686,-28 Q428,-28 279,133.5 Q130,295 130,583"/> 
            <glyph glyph-name="Õ" unicode="&#xD5;" horiz-adv-x="1248" d=" M338,772 L338,582 Q338,376 434.5,269.5 Q531,163 688,163 Q846,163 943,269.5 Q1040,376 1040,582 L1040,772 Q1040,979 942.5,1090.5 Q845,1202 688,1202 Q532,1202 435,1090.5 Q338,979 338,772 M130,583 L130,771 Q130,1060 281,1226 Q432,1392 690,1392 Q948,1392 1098,1226 Q1248,1060 1248,771 L1248,583 Q1248,296 1096.5,134 Q945,-28 686,-28 Q428,-28 279,133.5 Q130,295 130,583 M812,1461 Q768,1461 730,1479.5 Q692,1498 670.5,1519.5 Q649,1541 622,1559.5 Q595,1578 571,1578 Q535,1578 518.5,1546.5 Q502,1515 500,1476 L382,1476 Q382,1564 429.5,1628.5 Q477,1693 564,1693 Q608,1693 646.5,1674.5 Q685,1656 708,1634.5 Q731,1613 759,1594.5 Q787,1576 811,1576 Q847,1576 866,1606.5 Q885,1637 886,1677 L1004,1677 Q1004,1589 952.5,1525 Q901,1461 812,1461"/> 
            <glyph glyph-name="Ö" unicode="&#xD6;" horiz-adv-x="1248" d=" M868,1473 Q821,1473 789.5,1503.5 Q758,1534 758,1580 Q758,1628 789,1658 Q820,1688 868,1688 Q918,1688 949.5,1658 Q981,1628 981,1580 Q981,1533 949.5,1503 Q918,1473 868,1473 M505,1473 Q458,1473 426.5,1503.5 Q395,1534 395,1580 Q395,1628 426,1658 Q457,1688 505,1688 Q555,1688 586,1658 Q617,1628 617,1580 Q617,1533 585.5,1503 Q554,1473 505,1473 M338,772 L338,582 Q338,376 434.5,269.5 Q531,163 688,163 Q846,163 943,269.5 Q1040,376 1040,582 L1040,772 Q1040,979 942.5,1090.5 Q845,1202 688,1202 Q532,1202 435,1090.5 Q338,979 338,772 M130,583 L130,771 Q130,1060 281,1226 Q432,1392 690,1392 Q948,1392 1098,1226 Q1248,1060 1248,771 L1248,583 Q1248,296 1096.5,134 Q945,-28 686,-28 Q428,-28 279,133.5 Q130,295 130,583"/> 
            <glyph glyph-name="×" unicode="&#xD7;" horiz-adv-x="1014" d=" M893,69 L584,379 L273,69 L153,200 L462,509 L153,818 L273,948 L584,639 L893,948 L1014,818 L704,509 L1014,200"/> 
            <glyph glyph-name="Ø" unicode="&#xD8;" horiz-adv-x="1267" d=" M686,-28 Q451,-28 307,105 L207,-19 L101,71 L218,214 Q130,364 130,583 L130,771 Q130,1060 281,1226 Q432,1392 690,1392 Q918,1392 1062,1263 L1157,1379 L1267,1296 L1151,1156 Q1248,1000 1248,771 L1248,583 Q1248,296 1096.5,134 Q945,-28 686,-28 M334,581 Q334,481 362,405 L939,1101 Q843,1205 688,1205 Q530,1205 432,1092.5 Q334,980 334,772 M688,159 Q847,159 944.5,266.5 Q1042,374 1042,581 L1042,772 Q1042,883 1008,965 L430,266 Q524,159 688,159"/> 
            <glyph glyph-name="Ù" unicode="&#xD9;" horiz-adv-x="1226" d=" M791,1509 L643,1509 L363,1854 L553,1854 M374,1365 L374,488 Q374,338 461.5,251.5 Q549,165 697,165 Q845,165 932.5,251.5 Q1020,338 1020,488 L1020,1365 L1226,1365 L1226,474 Q1226,248 1080.5,110 Q935,-28 697,-28 Q459,-28 313.5,111 Q168,250 168,477 L168,1365"/> 
            <glyph glyph-name="Ú" unicode="&#xDA;" horiz-adv-x="1226" d=" M603,1509 L841,1854 L1031,1854 L751,1509 M374,1365 L374,488 Q374,338 461.5,251.5 Q549,165 697,165 Q845,165 932.5,251.5 Q1020,338 1020,488 L1020,1365 L1226,1365 L1226,474 Q1226,248 1080.5,110 Q935,-28 697,-28 Q459,-28 313.5,111 Q168,250 168,477 L168,1365"/> 
            <glyph glyph-name="Û" unicode="&#xDB;" horiz-adv-x="1226" d=" M765,1743 L1033,1497 L848,1497 L700,1632 L693,1632 L536,1497 L355,1497 L633,1743 M374,1365 L374,488 Q374,338 461.5,251.5 Q549,165 697,165 Q845,165 932.5,251.5 Q1020,338 1020,488 L1020,1365 L1226,1365 L1226,474 Q1226,248 1080.5,110 Q935,-28 697,-28 Q459,-28 313.5,111 Q168,250 168,477 L168,1365"/> 
            <glyph glyph-name="Ü" unicode="&#xDC;" horiz-adv-x="1226" d=" M876,1473 Q829,1473 797.5,1503.5 Q766,1534 766,1580 Q766,1628 797,1658 Q828,1688 876,1688 Q926,1688 957.5,1658 Q989,1628 989,1580 Q989,1533 957.5,1503 Q926,1473 876,1473 M513,1473 Q466,1473 434.5,1503.5 Q403,1534 403,1580 Q403,1628 434,1658 Q465,1688 513,1688 Q563,1688 594,1658 Q625,1628 625,1580 Q625,1533 593.5,1503 Q562,1473 513,1473 M374,1365 L374,488 Q374,338 461.5,251.5 Q549,165 697,165 Q845,165 932.5,251.5 Q1020,338 1020,488 L1020,1365 L1226,1365 L1226,474 Q1226,248 1080.5,110 Q935,-28 697,-28 Q459,-28 313.5,111 Q168,250 168,477 L168,1365"/> 
            <glyph glyph-name="Ý" unicode="&#xDD;" horiz-adv-x="1140" d=" M684,0 L478,0 L478,554 L22,1365 L254,1365 L577,773 L587,773 L912,1365 L1140,1365 L684,557 M487,1509 L725,1854 L915,1854 L635,1509"/> 
            <glyph glyph-name="Þ" unicode="&#xDE;" horiz-adv-x="1124" d=" M184,1365 L389,1365 L389,1118 L681,1118 Q885,1118 1004.5,1008.5 Q1124,899 1124,709 Q1124,518 1004.5,410 Q885,302 680,302 L390,302 L390,0 L184,0 M390,934 L390,484 L619,484 Q688,484 736,492 Q784,500 827,523 Q870,546 891.5,592 Q913,638 913,709 Q913,934 656,934"/> 
            <glyph glyph-name="ß" unicode="&#xDF;" horiz-adv-x="1192" d=" M386,0 L182,0 L182,1046 Q182,1233 303,1337 Q424,1441 624,1442 Q822,1442 943.5,1343 Q1065,1244 1064,1086 Q1064,1013 1038,951 Q1012,889 972.5,851 Q933,813 890.5,790.5 Q848,768 810,763 L810,749 Q880,749 947,725.5 Q1014,702 1069.5,658.5 Q1125,615 1158.5,544.5 Q1192,474 1192,387 Q1192,288 1151.5,209.5 Q1111,131 1043,82.5 Q975,34 890,8.5 Q805,-17 710,-17 Q617,-17 554,2 L554,177 Q606,157 695,157 Q750,157 800,170 Q850,183 892.5,209 Q935,235 960.5,282 Q986,329 986,391 Q986,504 897,568.5 Q808,633 658,633 L581,633 L581,830 L627,830 Q716,830 790,894 Q864,958 864,1057 Q864,1148 801,1205.5 Q738,1263 629,1263 Q386,1263 386,1009"/> 
            <glyph glyph-name="à" unicode="&#xE0;" horiz-adv-x="959" d=" M459,-17 Q305,-17 209.5,71.5 Q114,160 114,307 Q114,450 211,534.5 Q308,619 486,619 L757,619 L757,719 Q757,809 702,854 Q647,899 548,899 Q380,899 347,779 L154,779 Q165,914 268,993 Q371,1072 554,1072 Q641,1072 711.5,1053 Q782,1034 839,993.5 Q896,953 927.5,882.5 Q959,812 959,716 L959,0 L766,0 L766,137 L757,137 Q716,69 642,26 Q568,-17 459,-17 M519,153 Q620,153 688.5,211.5 Q757,270 757,358 L757,472 L511,472 Q414,472 366,430 Q318,388 318,318 Q318,238 376,195.5 Q434,153 519,153 M660,1226 L509,1226 L230,1580 L422,1580"/> 
            <glyph glyph-name="á" unicode="&#xE1;" horiz-adv-x="959" d=" M459,-17 Q305,-17 209.5,71.5 Q114,160 114,307 Q114,450 211,534.5 Q308,619 486,619 L757,619 L757,719 Q757,809 702,854 Q647,899 548,899 Q380,899 347,779 L154,779 Q165,914 268,993 Q371,1072 554,1072 Q641,1072 711.5,1053 Q782,1034 839,993.5 Q896,953 927.5,882.5 Q959,812 959,716 L959,0 L766,0 L766,137 L757,137 Q716,69 642,26 Q568,-17 459,-17 M519,153 Q620,153 688.5,211.5 Q757,270 757,358 L757,472 L511,472 Q414,472 366,430 Q318,388 318,318 Q318,238 376,195.5 Q434,153 519,153 M469,1226 L708,1580 L900,1580 L621,1226"/> 
            <glyph glyph-name="â" unicode="&#xE2;" horiz-adv-x="959" d=" M459,-17 Q305,-17 209.5,71.5 Q114,160 114,307 Q114,450 211,534.5 Q308,619 486,619 L757,619 L757,719 Q757,809 702,854 Q647,899 548,899 Q380,899 347,779 L154,779 Q165,914 268,993 Q371,1072 554,1072 Q641,1072 711.5,1053 Q782,1034 839,993.5 Q896,953 927.5,882.5 Q959,812 959,716 L959,0 L766,0 L766,137 L757,137 Q716,69 642,26 Q568,-17 459,-17 M519,153 Q620,153 688.5,211.5 Q757,270 757,358 L757,472 L511,472 Q414,472 366,430 Q318,388 318,318 Q318,238 376,195.5 Q434,153 519,153 M246,1222 L495,1590 L632,1590 L881,1222 L715,1222 L567,1460 L560,1460 L412,1222"/> 
            <glyph glyph-name="ã" unicode="&#xE3;" horiz-adv-x="959" d=" M459,-17 Q305,-17 209.5,71.5 Q114,160 114,307 Q114,450 211,534.5 Q308,619 486,619 L757,619 L757,719 Q757,809 702,854 Q647,899 548,899 Q380,899 347,779 L154,779 Q165,914 268,993 Q371,1072 554,1072 Q641,1072 711.5,1053 Q782,1034 839,993.5 Q896,953 927.5,882.5 Q959,812 959,716 L959,0 L766,0 L766,137 L757,137 Q716,69 642,26 Q568,-17 459,-17 M519,153 Q620,153 688.5,211.5 Q757,270 757,358 L757,472 L511,472 Q414,472 366,430 Q318,388 318,318 Q318,238 376,195.5 Q434,153 519,153 M689,1218 Q651,1218 620.5,1232.5 Q590,1247 570.5,1267.5 Q551,1288 533.5,1309 Q516,1330 495.5,1344.5 Q475,1359 452,1359 Q413,1359 398,1325.5 Q383,1292 379,1235 L254,1235 Q254,1347 303.5,1420 Q353,1493 447,1493 Q487,1493 519.5,1478.5 Q552,1464 572.5,1443 Q593,1422 610,1401.5 Q627,1381 646,1366.5 Q665,1352 685,1352 Q747,1352 755,1476 L880,1476 Q880,1408 860.5,1351 Q841,1294 796.5,1256 Q752,1218 689,1218"/> 
            <glyph glyph-name="ä" unicode="&#xE4;" horiz-adv-x="959" d=" M459,-17 Q305,-17 209.5,71.5 Q114,160 114,307 Q114,450 211,534.5 Q308,619 486,619 L757,619 L757,719 Q757,809 702,854 Q647,899 548,899 Q380,899 347,779 L154,779 Q165,914 268,993 Q371,1072 554,1072 Q641,1072 711.5,1053 Q782,1034 839,993.5 Q896,953 927.5,882.5 Q959,812 959,716 L959,0 L766,0 L766,137 L757,137 Q716,69 642,26 Q568,-17 459,-17 M519,153 Q620,153 688.5,211.5 Q757,270 757,358 L757,472 L511,472 Q414,472 366,430 Q318,388 318,318 Q318,238 376,195.5 Q434,153 519,153 M748,1218 Q701,1218 668.5,1250 Q636,1282 636,1330 Q636,1379 668.5,1411 Q701,1443 748,1443 Q800,1443 833.5,1411 Q867,1379 867,1330 Q867,1282 833.5,1250 Q800,1218 748,1218 M375,1218 Q326,1218 293,1250 Q260,1282 260,1330 Q260,1379 292.5,1411 Q325,1443 375,1443 Q425,1443 458,1411 Q491,1379 491,1330 Q491,1282 458,1250 Q425,1218 375,1218"/> 
            <glyph glyph-name="å" unicode="&#xE5;" horiz-adv-x="959" d=" M459,-17 Q305,-17 209.5,71.5 Q114,160 114,307 Q114,450 211,534.5 Q308,619 486,619 L757,619 L757,719 Q757,809 702,854 Q647,899 548,899 Q380,899 347,779 L154,779 Q165,914 268,993 Q371,1072 554,1072 Q641,1072 711.5,1053 Q782,1034 839,993.5 Q896,953 927.5,882.5 Q959,812 959,716 L959,0 L766,0 L766,137 L757,137 Q716,69 642,26 Q568,-17 459,-17 M519,153 Q620,153 688.5,211.5 Q757,270 757,358 L757,472 L511,472 Q414,472 366,430 Q318,388 318,318 Q318,238 376,195.5 Q434,153 519,153 M564,1224 Q480,1224 423,1280.5 Q366,1337 366,1421 Q366,1505 423,1560.5 Q480,1616 564,1616 Q647,1616 704,1560.5 Q761,1505 761,1421 Q761,1337 704,1280.5 Q647,1224 564,1224 M464,1420 Q464,1379 492.5,1350 Q521,1321 563,1321 Q605,1321 633.5,1349.5 Q662,1378 662,1420 Q662,1462 634,1490.5 Q606,1519 563,1519 Q521,1519 492.5,1490.5 Q464,1462 464,1420"/> 
            <glyph glyph-name="æ" unicode="&#xE6;" horiz-adv-x="1648" d=" M1224,-18 Q1075,-18 976.5,38.5 Q878,95 841,183 L827,183 Q785,98 694.5,40 Q604,-18 471,-18 Q309,-18 210.5,68.5 Q112,155 112,304 Q112,450 211,534.5 Q310,619 491,619 L759,619 L759,719 Q759,809 704,853 Q649,897 550,897 Q376,897 344,779 L151,779 Q162,914 267.5,993.5 Q373,1073 557,1073 Q663,1073 749.5,1038.5 Q836,1004 879,938 L893,938 Q938,1002 1023.5,1037.5 Q1109,1073 1211,1073 Q1408,1073 1528,945 Q1648,817 1648,601 L1648,476 L967,476 L967,402 Q967,295 1037,226.5 Q1107,158 1223,158 Q1309,158 1364.5,192.5 Q1420,227 1433,278 L1635,278 Q1629,229 1602.5,180 Q1576,131 1528.5,85 Q1481,39 1401.5,10.5 Q1322,-18 1224,-18 M1212,903 Q1106,903 1036.5,831.5 Q967,760 967,649 L967,619 L1449,619 L1449,640 Q1449,761 1385.5,832 Q1322,903 1212,903 M520,151 Q621,151 690,210 Q759,269 759,356 L759,472 L516,472 Q417,472 365,429.5 Q313,387 313,318 Q313,238 374,194.5 Q435,151 520,151"/> 
            <glyph glyph-name="ç" unicode="&#xE7;" horiz-adv-x="989" d=" M577,-485 Q493,-488 428,-469 L428,-356 Q475,-370 543,-370 Q591,-370 624.5,-353.5 Q658,-337 658,-299 Q658,-277 647.5,-263.5 Q637,-250 614,-244 Q591,-238 570.5,-236.5 Q550,-235 516,-235 L462,-235 L462,-146 L512,-15 Q330,3 226,126.5 Q122,250 122,453 L122,608 Q122,820 242.5,947 Q363,1074 570,1074 Q760,1074 869.5,973.5 Q979,873 982,732 L789,732 Q785,760 772.5,786 Q760,812 736.5,838.5 Q713,865 671,881 Q629,897 574,897 Q453,897 388,818 Q323,739 323,603 L323,453 Q323,319 390,242.5 Q457,166 574,166 Q764,166 795,313 L989,313 Q984,184 895.5,94 Q807,4 644,-14 L600,-129 Q695,-129 751,-171.5 Q807,-214 807,-293 Q807,-386 744,-433.5 Q681,-481 577,-485"/> 
            <glyph glyph-name="è" unicode="&#xE8;" horiz-adv-x="1012" d=" M661,1226 L510,1226 L231,1580 L423,1580 M581,-18 Q366,-18 244,108 Q122,234 122,456 L122,601 Q122,820 246.5,947 Q371,1074 567,1074 Q764,1074 888,945 Q1012,816 1012,601 L1012,476 L322,476 L322,424 Q322,306 390,231.5 Q458,157 579,157 Q666,157 725,192 Q784,227 797,278 L999,278 Q994,240 976.5,200.5 Q959,161 924.5,121.5 Q890,82 843,51.5 Q796,21 728,1.5 Q660,-18 581,-18 M322,619 L813,619 L813,634 Q813,755 746,828.5 Q679,902 568,902 Q457,902 389.5,828.5 Q322,755 322,634"/> 
            <glyph glyph-name="é" unicode="&#xE9;" horiz-adv-x="1012" d=" M470,1226 L709,1580 L901,1580 L622,1226 M581,-18 Q366,-18 244,108 Q122,234 122,456 L122,601 Q122,820 246.5,947 Q371,1074 567,1074 Q764,1074 888,945 Q1012,816 1012,601 L1012,476 L322,476 L322,424 Q322,306 390,231.5 Q458,157 579,157 Q666,157 725,192 Q784,227 797,278 L999,278 Q994,240 976.5,200.5 Q959,161 924.5,121.5 Q890,82 843,51.5 Q796,21 728,1.5 Q660,-18 581,-18 M322,619 L813,619 L813,634 Q813,755 746,828.5 Q679,902 568,902 Q457,902 389.5,828.5 Q322,755 322,634"/> 
            <glyph glyph-name="ê" unicode="&#xEA;" horiz-adv-x="1012" d=" M247,1222 L496,1590 L633,1590 L882,1222 L716,1222 L568,1460 L561,1460 L413,1222 M581,-18 Q366,-18 244,108 Q122,234 122,456 L122,601 Q122,820 246.5,947 Q371,1074 567,1074 Q764,1074 888,945 Q1012,816 1012,601 L1012,476 L322,476 L322,424 Q322,306 390,231.5 Q458,157 579,157 Q666,157 725,192 Q784,227 797,278 L999,278 Q994,240 976.5,200.5 Q959,161 924.5,121.5 Q890,82 843,51.5 Q796,21 728,1.5 Q660,-18 581,-18 M322,619 L813,619 L813,634 Q813,755 746,828.5 Q679,902 568,902 Q457,902 389.5,828.5 Q322,755 322,634"/> 
            <glyph glyph-name="ë" unicode="&#xEB;" horiz-adv-x="1012" d=" M581,-18 Q366,-18 244,108 Q122,234 122,456 L122,601 Q122,820 246.5,947 Q371,1074 567,1074 Q764,1074 888,945 Q1012,816 1012,601 L1012,476 L322,476 L322,424 Q322,306 390,231.5 Q458,157 579,157 Q666,157 725,192 Q784,227 797,278 L999,278 Q994,240 976.5,200.5 Q959,161 924.5,121.5 Q890,82 843,51.5 Q796,21 728,1.5 Q660,-18 581,-18 M322,619 L813,619 L813,634 Q813,755 746,828.5 Q679,902 568,902 Q457,902 389.5,828.5 Q322,755 322,634 M749,1218 Q702,1218 669.5,1250 Q637,1282 637,1330 Q637,1379 669.5,1411 Q702,1443 749,1443 Q801,1443 834.5,1411 Q868,1379 868,1330 Q868,1282 834.5,1250 Q801,1218 749,1218 M376,1218 Q327,1218 294,1250 Q261,1282 261,1330 Q261,1379 293.5,1411 Q326,1443 376,1443 Q426,1443 459,1411 Q492,1379 492,1330 Q492,1282 459,1250 Q426,1218 376,1218"/> 
            <glyph glyph-name="ì" unicode="&#xEC;" horiz-adv-x="398" d=" M394,1226 L243,1226 L-36,1580 L156,1580 M196,0 L196,1056 L398,1056 L398,0"/> 
            <glyph glyph-name="í" unicode="&#xED;" horiz-adv-x="634" d=" M203,1226 L442,1580 L634,1580 L355,1226 M196,0 L196,1056 L398,1056 L398,0"/> 
            <glyph glyph-name="î" unicode="&#xEE;" horiz-adv-x="615" d=" M-20,1222 L229,1590 L366,1590 L615,1222 L449,1222 L301,1460 L294,1460 L146,1222 M196,0 L196,1056 L398,1056 L398,0"/> 
            <glyph glyph-name="ï" unicode="&#xEF;" horiz-adv-x="601" d=" M196,0 L196,1056 L398,1056 L398,0 M482,1218 Q435,1218 402.5,1250 Q370,1282 370,1330 Q370,1379 402.5,1411 Q435,1443 482,1443 Q534,1443 567.5,1411 Q601,1379 601,1330 Q601,1282 567.5,1250 Q534,1218 482,1218 M109,1218 Q60,1218 27,1250 Q-6,1282 -6,1330 Q-6,1379 26.5,1411 Q59,1443 109,1443 Q159,1443 192,1411 Q225,1379 225,1330 Q225,1282 192,1250 Q159,1218 109,1218"/> 
            <glyph glyph-name="ð" unicode="&#xF0;" horiz-adv-x="1070" d=" M586,-18 Q363,-18 242.5,115.5 Q122,249 122,476 L122,533 Q122,751 236.5,885 Q351,1019 548,1019 Q724,1019 808,902 L819,902 Q817,907 810,928.5 Q803,950 798,964 Q743,1108 662,1208 L409,1114 L363,1226 L581,1304 Q538,1350 512.5,1377 Q487,1404 444.5,1444 Q402,1484 354,1524 L601,1524 Q682,1461 757,1375 L1028,1472 L1070,1365 L838,1281 Q1047,983 1047,589 L1047,481 Q1047,253 929,117.5 Q811,-18 586,-18 M710,845 Q460,845 391.5,765 Q323,685 323,534 L323,476 Q323,324 391.5,242.5 Q460,161 585,161 Q710,161 778.5,244.5 Q847,328 847,480 L847,532 Q847,684 710,845"/> 
            <glyph glyph-name="ñ" unicode="&#xF1;" horiz-adv-x="1057" d=" M738,1218 Q700,1218 669.5,1232.5 Q639,1247 619.5,1267.5 Q600,1288 582.5,1309 Q565,1330 544.5,1344.5 Q524,1359 501,1359 Q462,1359 447,1325.5 Q432,1292 428,1235 L303,1235 Q303,1347 352.5,1420 Q402,1493 496,1493 Q536,1493 568.5,1478.5 Q601,1464 621.5,1443 Q642,1422 659,1401.5 Q676,1381 695,1366.5 Q714,1352 734,1352 Q796,1352 804,1476 L929,1476 Q929,1408 909.5,1351 Q890,1294 845.5,1256 Q801,1218 738,1218 M172,0 L172,1056 L372,1056 L372,867 L382,867 Q394,903 413.5,934.5 Q433,966 468.5,999.5 Q504,1033 563.5,1052.5 Q623,1072 700,1072 Q865,1072 961,981 Q1057,890 1057,715 L1057,0 L855,0 L855,651 Q855,769 797.5,828 Q740,887 637,887 Q510,887 442,804 Q374,721 374,587 L374,0"/> 
            <glyph glyph-name="ò" unicode="&#xF2;" horiz-adv-x="1047" d=" M681,1226 L530,1226 L251,1580 L443,1580 M585,1074 Q790,1074 918.5,946 Q1047,818 1047,599 L1047,460 Q1047,236 919,109 Q791,-18 585,-18 Q376,-18 249,108 Q122,234 122,460 L122,599 Q122,813 251.5,943.5 Q381,1074 585,1074 M706,898 Q466,898 395.5,811 Q325,724 325,588 L325,468 Q325,330 393.5,244 Q462,158 586,158 Q709,158 776.5,243.5 Q844,329 844,468 L844,588 Q844,725 706,898"/> 
            <glyph glyph-name="ó" unicode="&#xF3;" horiz-adv-x="1047" d=" M490,1226 L729,1580 L921,1580 L642,1226 M585,1074 Q790,1074 918.5,946 Q1047,818 1047,599 L1047,460 Q1047,236 919,109 Q791,-18 585,-18 Q376,-18 249,108 Q122,234 122,460 L122,599 Q122,813 251.5,943.5 Q381,1074 585,1074 M706,898 Q466,898 395.5,811 Q325,724 325,588 L325,468 Q325,330 393.5,244 Q462,158 586,158 Q709,158 776.5,243.5 Q844,329 844,468 L844,588 Q844,725 706,898"/> 
            <glyph glyph-name="ô" unicode="&#xF4;" horiz-adv-x="1047" d=" M267,1222 L516,1590 L653,1590 L902,1222 L736,1222 L588,1460 L581,1460 L433,1222 M585,1074 Q790,1074 918.5,946 Q1047,818 1047,599 L1047,460 Q1047,236 919,109 Q791,-18 585,-18 Q376,-18 249,108 Q122,234 122,460 L122,599 Q122,813 251.5,943.5 Q381,1074 585,1074 M706,898 Q466,898 395.5,811 Q325,724 325,588 L325,468 Q325,330 393.5,244 Q462,158 586,158 Q709,158 776.5,243.5 Q844,329 844,468 L844,588 Q844,725 706,898"/> 
            <glyph glyph-name="õ" unicode="&#xF5;" horiz-adv-x="1047" d=" M710,1218 Q672,1218 641.5,1232.5 Q611,1247 591.5,1267.5 Q572,1288 554.5,1309 Q537,1330 516.5,1344.5 Q496,1359 473,1359 Q434,1359 419,1325.5 Q404,1292 400,1235 L275,1235 Q275,1347 324.5,1420 Q374,1493 468,1493 Q508,1493 540.5,1478.5 Q573,1464 593.5,1443 Q614,1422 631,1401.5 Q648,1381 667,1366.5 Q686,1352 706,1352 Q768,1352 776,1476 L901,1476 Q901,1408 881.5,1351 Q862,1294 817.5,1256 Q773,1218 710,1218 M585,1074 Q790,1074 918.5,946 Q1047,818 1047,599 L1047,460 Q1047,236 919,109 Q791,-18 585,-18 Q376,-18 249,108 Q122,234 122,460 L122,599 Q122,813 251.5,943.5 Q381,1074 585,1074 M706,898 Q466,898 395.5,811 Q325,724 325,588 L325,468 Q325,330 393.5,244 Q462,158 586,158 Q709,158 776.5,243.5 Q844,329 844,468 L844,588 Q844,725 706,898"/> 
            <glyph glyph-name="ö" unicode="&#xF6;" horiz-adv-x="1047" d=" M769,1218 Q722,1218 689.5,1250 Q657,1282 657,1330 Q657,1379 689.5,1411 Q722,1443 769,1443 Q821,1443 854.5,1411 Q888,1379 888,1330 Q888,1282 854.5,1250 Q821,1218 769,1218 M396,1218 Q347,1218 314,1250 Q281,1282 281,1330 Q281,1379 313.5,1411 Q346,1443 396,1443 Q446,1443 479,1411 Q512,1379 512,1330 Q512,1282 479,1250 Q446,1218 396,1218 M585,1074 Q790,1074 918.5,946 Q1047,818 1047,599 L1047,460 Q1047,236 919,109 Q791,-18 585,-18 Q376,-18 249,108 Q122,234 122,460 L122,599 Q122,813 251.5,943.5 Q381,1074 585,1074 M706,898 Q466,898 395.5,811 Q325,724 325,588 L325,468 Q325,330 393.5,244 Q462,158 586,158 Q709,158 776.5,243.5 Q844,329 844,468 L844,588 Q844,725 706,898"/> 
            <glyph glyph-name="÷" unicode="&#xF7;" horiz-adv-x="1062" d=" M1062,477 L106,477 L106,643 L1062,643 M444,959 Q444,1021 484,1061 Q524,1101 582,1101 Q643,1101 683.5,1061 Q724,1021 724,959 Q724,899 683,859.5 Q642,820 582,820 Q524,820 484,859.5 Q444,899 444,959 M444,166 Q444,228 484,268.5 Q524,309 582,309 Q642,309 683,268.5 Q724,228 724,166 Q724,106 683,66.5 Q642,27 582,27 Q524,27 484,66.5 Q444,106 444,166"/> 
            <glyph glyph-name="ø" unicode="&#xF8;" horiz-adv-x="1053" d=" M417,212 Q483,154 585,154 Q709,154 778.5,242 Q848,330 848,469 L848,612 Q848,686 819,741 M319,446 Q319,370 348,314 L751,846 Q686,905 585,905 Q464,905 391.5,816 Q319,727 319,590 M585,-18 Q430,-18 313,62 L211,-73 L112,5 L221,149 Q122,275 122,460 L122,599 Q122,813 251.5,943.5 Q381,1074 585,1074 Q737,1074 854,993 L954,1126 L1053,1047 L946,904 Q1047,777 1047,599 L1047,460 Q1047,236 919,109 Q791,-18 585,-18"/> 
            <glyph glyph-name="ù" unicode="&#xF9;" horiz-adv-x="1046" d=" M706,1226 L555,1226 L276,1580 L468,1580 M1046,1056 L1046,0 L847,0 L847,176 L836,176 Q810,100 730,41.5 Q650,-17 524,-17 Q357,-17 261,68 Q165,153 165,331 L165,1056 L367,1056 L367,388 Q367,270 427.5,219 Q488,168 587,168 Q696,168 770.5,236 Q845,304 845,404 L845,1056"/> 
            <glyph glyph-name="ú" unicode="&#xFA;" horiz-adv-x="1046" d=" M515,1226 L754,1580 L946,1580 L667,1226 M1046,1056 L1046,0 L847,0 L847,176 L836,176 Q810,100 730,41.5 Q650,-17 524,-17 Q357,-17 261,68 Q165,153 165,331 L165,1056 L367,1056 L367,388 Q367,270 427.5,219 Q488,168 587,168 Q696,168 770.5,236 Q845,304 845,404 L845,1056"/> 
            <glyph glyph-name="û" unicode="&#xFB;" horiz-adv-x="1046" d=" M292,1222 L541,1590 L678,1590 L927,1222 L761,1222 L613,1460 L606,1460 L458,1222 M1046,1056 L1046,0 L847,0 L847,176 L836,176 Q810,100 730,41.5 Q650,-17 524,-17 Q357,-17 261,68 Q165,153 165,331 L165,1056 L367,1056 L367,388 Q367,270 427.5,219 Q488,168 587,168 Q696,168 770.5,236 Q845,304 845,404 L845,1056"/> 
            <glyph glyph-name="ü" unicode="&#xFC;" horiz-adv-x="1046" d=" M1046,1056 L1046,0 L847,0 L847,176 L836,176 Q810,100 730,41.5 Q650,-17 524,-17 Q357,-17 261,68 Q165,153 165,331 L165,1056 L367,1056 L367,388 Q367,270 427.5,219 Q488,168 587,168 Q696,168 770.5,236 Q845,304 845,404 L845,1056 M794,1218 Q747,1218 714.5,1250 Q682,1282 682,1330 Q682,1379 714.5,1411 Q747,1443 794,1443 Q846,1443 879.5,1411 Q913,1379 913,1330 Q913,1282 879.5,1250 Q846,1218 794,1218 M421,1218 Q372,1218 339,1250 Q306,1282 306,1330 Q306,1379 338.5,1411 Q371,1443 421,1443 Q471,1443 504,1411 Q537,1379 537,1330 Q537,1282 504,1250 Q471,1218 421,1218"/> 
            <glyph glyph-name="ý" unicode="&#xFD;" horiz-adv-x="1035" d=" M1035,1056 Q671,18 669,12 L642,-61 Q621,-119 601,-161.5 Q581,-204 549.5,-248 Q518,-292 480,-319 Q442,-346 386.5,-363.5 Q331,-381 262,-381 Q196,-381 142,-371 L142,-206 Q167,-212 223,-212 Q314,-212 359,-173.5 Q404,-135 425,-56 L439,-9 L58,1056 L281,1056 L546,199 L555,199 L821,1056 M459,1226 L698,1580 L890,1580 L611,1226"/> 
            <glyph glyph-name="þ" unicode="&#xFE;" horiz-adv-x="1093" d=" M687,-15 Q567,-15 492.5,33.5 Q418,82 385,159 L375,159 L375,-360 L173,-360 L173,1467 L369,1467 L369,889 L379,889 Q409,968 490,1019.5 Q571,1071 693,1071 Q876,1071 984.5,949 Q1093,827 1093,611 L1093,446 Q1093,229 983,107 Q873,-15 687,-15 M637,164 Q753,164 821,243 Q889,322 889,476 L889,579 Q889,731 821,811.5 Q753,892 633,892 Q512,892 443.5,814.5 Q375,737 375,601 L375,438 Q375,316 447,240 Q519,164 637,164"/> 
            <glyph glyph-name="ÿ" unicode="&#xFF;" horiz-adv-x="1035" d=" M1035,1056 Q671,18 669,12 L642,-61 Q621,-119 601,-161.5 Q581,-204 549.5,-248 Q518,-292 480,-319 Q442,-346 386.5,-363.5 Q331,-381 262,-381 Q196,-381 142,-371 L142,-206 Q167,-212 223,-212 Q314,-212 359,-173.5 Q404,-135 425,-56 L439,-9 L58,1056 L281,1056 L546,199 L555,199 L821,1056 M738,1218 Q691,1218 658.5,1250 Q626,1282 626,1330 Q626,1379 658.5,1411 Q691,1443 738,1443 Q790,1443 823.5,1411 Q857,1379 857,1330 Q857,1282 823.5,1250 Q790,1218 738,1218 M365,1218 Q316,1218 283,1250 Q250,1282 250,1330 Q250,1379 282.5,1411 Q315,1443 365,1443 Q415,1443 448,1411 Q481,1379 481,1330 Q481,1282 448,1250 Q415,1218 365,1218"/> 
            <glyph glyph-name="Ā" unicode="&#x100;" horiz-adv-x="1223" d=" M257,0 L49,0 L525,1365 L748,1365 L1223,0 L1003,0 L875,381 L385,381 M635,1132 L627,1132 L435,551 L827,551 M935,1507 L337,1507 L337,1627 L935,1627"/> 
            <glyph glyph-name="ā" unicode="&#x101;" horiz-adv-x="959" d=" M459,-17 Q305,-17 209.5,71.5 Q114,160 114,307 Q114,450 211,534.5 Q308,619 486,619 L757,619 L757,719 Q757,809 702,854 Q647,899 548,899 Q380,899 347,779 L154,779 Q165,914 268,993 Q371,1072 554,1072 Q641,1072 711.5,1053 Q782,1034 839,993.5 Q896,953 927.5,882.5 Q959,812 959,716 L959,0 L766,0 L766,137 L757,137 Q716,69 642,26 Q568,-17 459,-17 M519,153 Q620,153 688.5,211.5 Q757,270 757,358 L757,472 L511,472 Q414,472 366,430 Q318,388 318,318 Q318,238 376,195.5 Q434,153 519,153 M866,1246 L261,1246 L261,1373 L866,1373"/> 
            <glyph glyph-name="Ă" unicode="&#x102;" horiz-adv-x="1223" d=" M257,0 L49,0 L525,1365 L748,1365 L1223,0 L1003,0 L875,381 L385,381 M635,1132 L627,1132 L435,551 L827,551 M309,1755 L443,1755 Q443,1683 492,1640.5 Q541,1598 636,1598 Q731,1598 780,1640.5 Q829,1683 829,1755 L962,1755 Q962,1633 877.5,1556 Q793,1479 636,1479 Q478,1479 393.5,1556 Q309,1633 309,1755"/> 
            <glyph glyph-name="ă" unicode="&#x103;" horiz-adv-x="959" d=" M459,-17 Q305,-17 209.5,71.5 Q114,160 114,307 Q114,450 211,534.5 Q308,619 486,619 L757,619 L757,719 Q757,809 702,854 Q647,899 548,899 Q380,899 347,779 L154,779 Q165,914 268,993 Q371,1072 554,1072 Q641,1072 711.5,1053 Q782,1034 839,993.5 Q896,953 927.5,882.5 Q959,812 959,716 L959,0 L766,0 L766,137 L757,137 Q716,69 642,26 Q568,-17 459,-17 M519,153 Q620,153 688.5,211.5 Q757,270 757,358 L757,472 L511,472 Q414,472 366,430 Q318,388 318,318 Q318,238 376,195.5 Q434,153 519,153 M265,1506 L397,1506 Q397,1437 439,1389.5 Q481,1342 563,1342 Q645,1342 687.5,1389.5 Q730,1437 730,1506 L860,1506 Q860,1452 842,1402 Q824,1352 789.5,1310 Q755,1268 696,1242.5 Q637,1217 563,1217 Q489,1217 430,1242.5 Q371,1268 336,1310 Q301,1352 283,1402 Q265,1452 265,1506"/> 
            <glyph glyph-name="Ą" unicode="&#x104;" horiz-adv-x="1232" d=" M257,0 L49,0 L525,1365 L748,1365 L1216,25 Q1142,1 1089.5,-43 Q1037,-87 1037,-148 Q1037,-194 1069,-219.5 Q1101,-245 1153,-245 Q1197,-245 1232,-237 L1232,-367 Q1192,-387 1107,-387 Q1006,-387 937,-337 Q868,-287 868,-190 Q868,-63 1011,29 L1011,33 L990,33 L875,381 L385,381 M634,1131 L629,1133 L435,552 L829,552"/> 
            <glyph glyph-name="ą" unicode="&#x105;" horiz-adv-x="972" d=" M972,-366 Q919,-387 843,-387 Q750,-387 684.5,-337.5 Q619,-288 619,-192 Q619,-117 659.5,-65.5 Q700,-14 771,32 L771,137 L761,137 Q668,-17 460,-17 Q306,-17 210,71.5 Q114,160 114,307 Q114,450 211,534.5 Q308,619 485,619 L757,619 L757,719 Q757,808 702,852.5 Q647,897 546,897 Q379,897 347,779 L154,779 Q165,915 269,993.5 Q373,1072 555,1072 Q641,1072 711.5,1053 Q782,1034 839,993.5 Q896,953 927.5,882.5 Q959,812 959,717 L959,18 Q930,8 902,-6.5 Q874,-21 845,-41.5 Q816,-62 798,-90.5 Q780,-119 780,-150 Q780,-193 812,-217 Q844,-241 893,-241 Q937,-241 972,-233 M518,151 Q619,151 688,210.5 Q757,270 757,358 L757,472 L512,472 Q414,472 366,430 Q318,388 318,318 Q318,238 376,194.5 Q434,151 518,151"/> 
            <glyph glyph-name="Ć" unicode="&#x106;" horiz-adv-x="1191" d=" M579,1509 L817,1854 L1007,1854 L727,1509 M338,770 L338,588 Q338,377 429.5,270.5 Q521,164 682,164 Q828,164 909,242.5 Q990,321 990,438 L1191,438 L1191,423 Q1191,357 1171.5,293 Q1152,229 1109.5,171 Q1067,113 1007.5,68.5 Q948,24 862,-2 Q776,-28 675,-28 Q420,-28 275,132 Q130,292 130,587 L130,772 Q130,1063 277,1227.5 Q424,1392 677,1392 Q798,1392 897.5,1352.5 Q997,1313 1060,1247 Q1123,1181 1157,1097.5 Q1191,1014 1191,923 L1191,908 L990,908 Q990,1026 906,1113.5 Q822,1201 678,1201 Q522,1201 430,1090 Q338,979 338,770"/> 
            <glyph glyph-name="ć" unicode="&#x107;" horiz-adv-x="989" d=" M122,453 L122,608 Q122,820 242.5,947 Q363,1074 570,1074 Q760,1074 869.5,973.5 Q979,873 982,732 L789,732 Q785,760 772.5,785.5 Q760,811 736.5,836.5 Q713,862 671,877.5 Q629,893 574,893 Q453,893 388.5,815.5 Q324,738 324,603 L324,453 Q324,319 391,241 Q458,163 574,163 Q764,163 795,313 L989,313 Q984,168 875,75 Q766,-18 569,-18 Q363,-18 242.5,107.5 Q122,233 122,453 M453,1226 L692,1580 L884,1580 L605,1226"/> 
            <glyph glyph-name="Ĉ" unicode="&#x108;" horiz-adv-x="1191" d=" M338,770 L338,588 Q338,377 429.5,270.5 Q521,164 682,164 Q828,164 909,242.5 Q990,321 990,438 L1191,438 L1191,423 Q1191,357 1171.5,293 Q1152,229 1109.5,171 Q1067,113 1007.5,68.5 Q948,24 862,-2 Q776,-28 675,-28 Q420,-28 275,132 Q130,292 130,587 L130,772 Q130,1063 277,1227.5 Q424,1392 677,1392 Q798,1392 897.5,1352.5 Q997,1313 1060,1247 Q1123,1181 1157,1097.5 Q1191,1014 1191,923 L1191,908 L990,908 Q990,1026 906,1113.5 Q822,1201 678,1201 Q522,1201 430,1090 Q338,979 338,770 M741,1743 L1009,1497 L824,1497 L676,1632 L669,1632 L512,1497 L331,1497 L609,1743"/> 
            <glyph glyph-name="ĉ" unicode="&#x109;" horiz-adv-x="989" d=" M230,1222 L479,1590 L616,1590 L865,1222 L699,1222 L551,1460 L544,1460 L396,1222 M122,453 L122,608 Q122,820 242.5,947 Q363,1074 570,1074 Q760,1074 869.5,973.5 Q979,873 982,732 L789,732 Q785,760 772.5,785.5 Q760,811 736.5,836.5 Q713,862 671,877.5 Q629,893 574,893 Q453,893 388.5,815.5 Q324,738 324,603 L324,453 Q324,319 391,241 Q458,163 574,163 Q764,163 795,313 L989,313 Q984,168 875,75 Q766,-18 569,-18 Q363,-18 242.5,107.5 Q122,233 122,453"/> 
            <glyph glyph-name="Ċ" unicode="&#x10A;" horiz-adv-x="1191" d=" M560,1604 Q560,1654 592.5,1687.5 Q625,1721 671,1721 Q720,1721 753,1687.5 Q786,1654 786,1604 Q786,1555 753,1521.5 Q720,1488 671,1488 Q625,1488 592.5,1521.5 Q560,1555 560,1604 M338,770 L338,588 Q338,377 429.5,270.5 Q521,164 682,164 Q828,164 909,242.5 Q990,321 990,438 L1191,438 L1191,423 Q1191,357 1171.5,293 Q1152,229 1109.5,171 Q1067,113 1007.5,68.5 Q948,24 862,-2 Q776,-28 675,-28 Q420,-28 275,132 Q130,292 130,587 L130,772 Q130,1063 277,1227.5 Q424,1392 677,1392 Q798,1392 897.5,1352.5 Q997,1313 1060,1247 Q1123,1181 1157,1097.5 Q1191,1014 1191,923 L1191,908 L990,908 Q990,1026 906,1113.5 Q822,1201 678,1201 Q522,1201 430,1090 Q338,979 338,770"/> 
            <glyph glyph-name="ċ" unicode="&#x10B;" horiz-adv-x="989" d=" M122,453 L122,608 Q122,820 242.5,947 Q363,1074 570,1074 Q760,1074 869.5,973.5 Q979,873 982,732 L789,732 Q785,760 772.5,785.5 Q760,811 736.5,836.5 Q713,862 671,877.5 Q629,893 574,893 Q453,893 388.5,815.5 Q324,738 324,603 L324,453 Q324,319 391,241 Q458,163 574,163 Q764,163 795,313 L989,313 Q984,168 875,75 Q766,-18 569,-18 Q363,-18 242.5,107.5 Q122,233 122,453 M434,1364 Q434,1414 466.5,1447.5 Q499,1481 545,1481 Q594,1481 627,1447.5 Q660,1414 660,1364 Q660,1315 627,1281.5 Q594,1248 545,1248 Q499,1248 466.5,1281.5 Q434,1315 434,1364"/> 
            <glyph glyph-name="Č" unicode="&#x10C;" horiz-adv-x="1191" d=" M338,770 L338,588 Q338,377 429.5,270.5 Q521,164 682,164 Q828,164 909,242.5 Q990,321 990,438 L1191,438 L1191,423 Q1191,357 1171.5,293 Q1152,229 1109.5,171 Q1067,113 1007.5,68.5 Q948,24 862,-2 Q776,-28 675,-28 Q420,-28 275,132 Q130,292 130,587 L130,772 Q130,1063 277,1227.5 Q424,1392 677,1392 Q798,1392 897.5,1352.5 Q997,1313 1060,1247 Q1123,1181 1157,1097.5 Q1191,1014 1191,923 L1191,908 L990,908 Q990,1026 906,1113.5 Q822,1201 678,1201 Q522,1201 430,1090 Q338,979 338,770 M328,1717 L518,1717 L670,1597 L678,1597 L817,1717 L1011,1717 L774,1503 L580,1503"/> 
            <glyph glyph-name="č" unicode="&#x10D;" horiz-adv-x="989" d=" M230,1587 L396,1587 L545,1342 L551,1342 L692,1587 L858,1587 L619,1219 L481,1219 M122,453 L122,608 Q122,820 242.5,947 Q363,1074 570,1074 Q760,1074 869.5,973.5 Q979,873 982,732 L789,732 Q785,760 772.5,785.5 Q760,811 736.5,836.5 Q713,862 671,877.5 Q629,893 574,893 Q453,893 388.5,815.5 Q324,738 324,603 L324,453 Q324,319 391,241 Q458,163 574,163 Q764,163 795,313 L989,313 Q984,168 875,75 Q766,-18 569,-18 Q363,-18 242.5,107.5 Q122,233 122,453"/> 
            <glyph glyph-name="Ď" unicode="&#x10E;" horiz-adv-x="1245" d=" M281,1717 L471,1717 L623,1597 L631,1597 L770,1717 L964,1717 L727,1503 L533,1503 M184,1365 L642,1365 Q803,1365 921,1315.5 Q1039,1266 1109,1173.5 Q1179,1081 1212,960 Q1245,839 1245,684 Q1245,562 1225.5,461 Q1206,360 1161,273.5 Q1116,187 1047,127 Q978,67 875.5,33.5 Q773,0 642,0 L184,0 M390,1178 L390,188 L623,188 Q832,188 932.5,308 Q1033,428 1033,681 Q1033,1178 623,1178"/> 
            <glyph glyph-name="ď" unicode="&#x10F;" horiz-adv-x="1410" d=" M1235,1436 L1410,1436 L1365,948 L1235,948 M529,1072 Q649,1072 726.5,1023 Q804,974 833,899 L843,899 L843,1467 L1045,1467 L1045,0 L850,0 L850,168 L840,168 Q818,93 734.5,39.5 Q651,-14 525,-14 Q342,-14 232.5,107 Q123,228 123,436 L123,621 Q123,827 233,949.5 Q343,1072 529,1072 M695,893 Q461,893 394,813 Q327,733 327,589 L327,470 Q327,324 395.5,244 Q464,164 583,164 Q702,164 772.5,242.5 Q843,321 843,456 L843,619 Q843,740 695,893"/> 
            <glyph glyph-name="Đ" unicode="&#x110;" horiz-adv-x="1326" d=" M723,0 L265,0 L265,598 L103,598 L103,794 L265,794 L265,1365 L723,1365 Q884,1365 1002,1315.5 Q1120,1266 1190,1173.5 Q1260,1081 1293,960 Q1326,839 1326,684 Q1326,562 1306.5,461 Q1287,360 1242,273.5 Q1197,187 1128,127 Q1059,67 956.5,33.5 Q854,0 723,0 M471,190 L704,190 Q912,190 1012.5,310.5 Q1113,431 1113,684 Q1113,1180 704,1180 L471,1180 L471,794 L758,794 L758,598 L471,598"/> 
            <glyph glyph-name="đ" unicode="&#x111;" horiz-adv-x="1173" d=" M696,892 Q462,892 395,812 Q328,732 328,588 L328,469 Q328,323 396.5,243.5 Q465,164 584,164 Q703,164 773.5,242 Q844,320 844,455 L844,618 Q844,740 696,892 M840,168 Q819,94 735.5,40 Q652,-14 526,-14 Q343,-14 233,107 Q123,228 123,436 L123,621 Q123,827 233.5,949.5 Q344,1072 530,1072 Q649,1072 727,1022.5 Q805,973 834,899 L844,899 L844,1172 L591,1172 L591,1315 L848,1315 L848,1467 L1042,1467 L1042,1315 L1173,1315 L1173,1172 L1046,1172 L1046,0 L850,0 L850,168"/> 
            <glyph glyph-name="Ē" unicode="&#x112;" horiz-adv-x="1023" d=" M1023,188 L1023,0 L184,0 L184,1365 L1023,1365 L1023,1177 L389,1177 L389,784 L987,784 L987,604 L389,604 L389,188 M898,1507 L300,1507 L300,1627 L898,1627"/> 
            <glyph glyph-name="ē" unicode="&#x113;" horiz-adv-x="1012" d=" M581,-18 Q366,-18 244,108 Q122,234 122,456 L122,601 Q122,820 246.5,947 Q371,1074 567,1074 Q764,1074 888,945 Q1012,816 1012,601 L1012,476 L322,476 L322,424 Q322,306 390,231.5 Q458,157 579,157 Q666,157 725,192 Q784,227 797,278 L999,278 Q994,240 976.5,200.5 Q959,161 924.5,121.5 Q890,82 843,51.5 Q796,21 728,1.5 Q660,-18 581,-18 M322,619 L813,619 L813,634 Q813,755 746,828.5 Q679,902 568,902 Q457,902 389.5,828.5 Q322,755 322,634 M867,1246 L262,1246 L262,1373 L867,1373"/> 
            <glyph glyph-name="Ĕ" unicode="&#x114;" horiz-adv-x="1023" d=" M1023,188 L1023,0 L184,0 L184,1365 L1023,1365 L1023,1177 L389,1177 L389,784 L987,784 L987,604 L389,604 L389,188 M272,1755 L406,1755 Q406,1683 455,1640.5 Q504,1598 599,1598 Q694,1598 743,1640.5 Q792,1683 792,1755 L925,1755 Q925,1633 840.5,1556 Q756,1479 599,1479 Q441,1479 356.5,1556 Q272,1633 272,1755"/> 
            <glyph glyph-name="ĕ" unicode="&#x115;" horiz-adv-x="1012" d=" M581,-18 Q366,-18 244,108 Q122,234 122,456 L122,601 Q122,820 246.5,947 Q371,1074 567,1074 Q764,1074 888,945 Q1012,816 1012,601 L1012,476 L322,476 L322,424 Q322,306 390,231.5 Q458,157 579,157 Q666,157 725,192 Q784,227 797,278 L999,278 Q994,240 976.5,200.5 Q959,161 924.5,121.5 Q890,82 843,51.5 Q796,21 728,1.5 Q660,-18 581,-18 M322,619 L813,619 L813,634 Q813,755 746,828.5 Q679,902 568,902 Q457,902 389.5,828.5 Q322,755 322,634 M266,1506 L398,1506 Q398,1437 440,1389.5 Q482,1342 564,1342 Q646,1342 688.5,1389.5 Q731,1437 731,1506 L861,1506 Q861,1452 843,1402 Q825,1352 790.5,1310 Q756,1268 697,1242.5 Q638,1217 564,1217 Q490,1217 431,1242.5 Q372,1268 337,1310 Q302,1352 284,1402 Q266,1452 266,1506"/> 
            <glyph glyph-name="Ė" unicode="&#x116;" horiz-adv-x="1023" d=" M486,1604 Q486,1654 518.5,1687.5 Q551,1721 597,1721 Q646,1721 679,1687.5 Q712,1654 712,1604 Q712,1555 679,1521.5 Q646,1488 597,1488 Q551,1488 518.5,1521.5 Q486,1555 486,1604 M1023,188 L1023,0 L184,0 L184,1365 L1023,1365 L1023,1177 L389,1177 L389,784 L987,784 L987,604 L389,604 L389,188"/> 
            <glyph glyph-name="ė" unicode="&#x117;" horiz-adv-x="1012" d=" M451,1364 Q451,1414 483.5,1447.5 Q516,1481 562,1481 Q611,1481 644,1447.5 Q677,1414 677,1364 Q677,1315 644,1281.5 Q611,1248 562,1248 Q516,1248 483.5,1281.5 Q451,1315 451,1364 M581,-18 Q366,-18 244,108 Q122,234 122,456 L122,601 Q122,820 246.5,947 Q371,1074 567,1074 Q764,1074 888,945 Q1012,816 1012,601 L1012,476 L322,476 L322,424 Q322,306 390,231.5 Q458,157 579,157 Q666,157 725,192 Q784,227 797,278 L999,278 Q994,240 976.5,200.5 Q959,161 924.5,121.5 Q890,82 843,51.5 Q796,21 728,1.5 Q660,-18 581,-18 M322,619 L813,619 L813,634 Q813,755 746,828.5 Q679,902 568,902 Q457,902 389.5,828.5 Q322,755 322,634"/> 
            <glyph glyph-name="Ę" unicode="&#x118;" horiz-adv-x="1024" d=" M1024,-368 Q965,-387 901,-387 Q801,-387 735.5,-338 Q670,-289 670,-192 Q670,-133 699,-84 Q728,-35 771,-5 L771,0 L184,0 L184,1365 L1023,1365 L1023,1177 L389,1177 L389,784 L987,784 L987,604 L389,604 L389,188 L1023,188 L1023,29 Q990,22 958,8 Q926,-6 896,-27 Q866,-48 848,-79 Q830,-110 829,-146 Q829,-194 861,-219.5 Q893,-245 948,-245 Q986,-245 1024,-237"/> 
            <glyph glyph-name="ę" unicode="&#x119;" horiz-adv-x="1012" d=" M938,-232 L938,-368 Q897,-387 815,-387 Q719,-387 653,-335 Q587,-283 587,-192 Q587,-76 690,7 L685,17 Q632,-16 548,-16 Q361,-16 241.5,111 Q122,238 122,455 L122,600 Q122,820 246.5,947.5 Q371,1075 567,1075 Q765,1075 888.5,945.5 Q1012,816 1012,600 L1012,476 L322,476 L322,425 Q322,306 390.5,232 Q459,158 582,158 Q666,158 725,192.5 Q784,227 797,278 L998,278 Q987,232 960.5,187 Q934,142 913.5,118 Q893,94 854,53 Q816,13 798.5,-8.5 Q781,-30 763.5,-65.5 Q746,-101 746,-135 Q746,-185 780,-212.5 Q814,-240 864,-240 Q902,-240 938,-232 M322,619 L813,619 L813,635 Q813,755 746,829 Q679,903 568,903 Q457,903 389.5,829.5 Q322,756 322,635"/> 
            <glyph glyph-name="Ě" unicode="&#x11A;" horiz-adv-x="1023" d=" M254,1717 L444,1717 L596,1597 L604,1597 L743,1717 L937,1717 L700,1503 L506,1503 M1023,188 L1023,0 L184,0 L184,1365 L1023,1365 L1023,1177 L389,1177 L389,784 L987,784 L987,604 L389,604 L389,188"/> 
            <glyph glyph-name="ě" unicode="&#x11B;" horiz-adv-x="1012" d=" M247,1587 L413,1587 L562,1342 L568,1342 L709,1587 L875,1587 L636,1219 L498,1219 M581,-18 Q366,-18 244,108 Q122,234 122,456 L122,601 Q122,820 246.5,947 Q371,1074 567,1074 Q764,1074 888,945 Q1012,816 1012,601 L1012,476 L322,476 L322,424 Q322,306 390,231.5 Q458,157 579,157 Q666,157 725,192 Q784,227 797,278 L999,278 Q994,240 976.5,200.5 Q959,161 924.5,121.5 Q890,82 843,51.5 Q796,21 728,1.5 Q660,-18 581,-18 M322,619 L813,619 L813,634 Q813,755 746,828.5 Q679,902 568,902 Q457,902 389.5,828.5 Q322,755 322,634"/> 
            <glyph glyph-name="Ĝ" unicode="&#x11C;" horiz-adv-x="1207" d=" M753,1743 L1021,1497 L836,1497 L688,1632 L681,1632 L524,1497 L343,1497 L621,1743 M1203,939 L1001,939 Q984,1066 896.5,1133.5 Q809,1201 685,1201 Q530,1201 433.5,1094.5 Q337,988 337,775 L337,597 Q337,394 424.5,278.5 Q512,163 683,163 Q826,163 917,240.5 Q1008,318 1008,437 L1008,547 L679,547 L679,723 L1207,723 L1207,446 Q1207,384 1191,321.5 Q1175,259 1135.5,195 Q1096,131 1038,82 Q980,33 888,2.5 Q796,-28 683,-28 Q501,-28 375,51.5 Q249,131 189.5,269 Q130,407 130,596 L130,777 Q130,1063 281,1227.5 Q432,1392 689,1392 Q808,1392 905,1354.5 Q1002,1317 1064.5,1253.5 Q1127,1190 1162.5,1109.5 Q1198,1029 1203,939"/> 
            <glyph glyph-name="ĝ" unicode="&#x11D;" horiz-adv-x="1031" d=" M277,1222 L526,1590 L663,1590 L912,1222 L746,1222 L598,1460 L591,1460 L443,1222 M565,-223 Q696,-223 763,-157.5 Q830,-92 830,28 L830,185 L819,185 Q787,113 708,66 Q629,19 523,19 Q343,19 227,141 Q111,263 111,473 L111,616 Q111,826 226.5,948.5 Q342,1071 522,1071 Q634,1071 716.5,1019.5 Q799,968 827,896 L836,896 L836,1056 L1031,1056 L1031,20 Q1031,-88 995.5,-169 Q960,-250 895,-298.5 Q830,-347 745.5,-370.5 Q661,-394 557,-394 Q357,-394 251,-310 Q145,-226 134,-97 L336,-97 Q348,-153 408.5,-188 Q469,-223 565,-223 M580,892 Q458,892 387,809 Q316,726 316,587 L316,495 Q316,358 390,274.5 Q464,191 582,191 Q697,191 763.5,271 Q830,351 830,468 L830,611 Q830,729 761.5,810.5 Q693,892 580,892"/> 
            <glyph glyph-name="Ğ" unicode="&#x11E;" horiz-adv-x="1207" d=" M1203,939 L1001,939 Q984,1066 896.5,1133.5 Q809,1201 685,1201 Q530,1201 433.5,1094.5 Q337,988 337,775 L337,597 Q337,394 424.5,278.5 Q512,163 683,163 Q826,163 917,240.5 Q1008,318 1008,437 L1008,547 L679,547 L679,723 L1207,723 L1207,446 Q1207,384 1191,321.5 Q1175,259 1135.5,195 Q1096,131 1038,82 Q980,33 888,2.5 Q796,-28 683,-28 Q501,-28 375,51.5 Q249,131 189.5,269 Q130,407 130,596 L130,777 Q130,1063 281,1227.5 Q432,1392 689,1392 Q808,1392 905,1354.5 Q1002,1317 1064.5,1253.5 Q1127,1190 1162.5,1109.5 Q1198,1029 1203,939 M358,1755 L492,1755 Q492,1683 541,1640.5 Q590,1598 685,1598 Q780,1598 829,1640.5 Q878,1683 878,1755 L1011,1755 Q1011,1633 926.5,1556 Q842,1479 685,1479 Q527,1479 442.5,1556 Q358,1633 358,1755"/> 
            <glyph glyph-name="ğ" unicode="&#x11F;" horiz-adv-x="1031" d=" M296,1506 L428,1506 Q428,1437 470,1389.5 Q512,1342 594,1342 Q676,1342 718.5,1389.5 Q761,1437 761,1506 L891,1506 Q891,1452 873,1402 Q855,1352 820.5,1310 Q786,1268 727,1242.5 Q668,1217 594,1217 Q520,1217 461,1242.5 Q402,1268 367,1310 Q332,1352 314,1402 Q296,1452 296,1506 M565,-223 Q696,-223 763,-157.5 Q830,-92 830,28 L830,185 L819,185 Q787,113 708,66 Q629,19 523,19 Q343,19 227,141 Q111,263 111,473 L111,616 Q111,826 226.5,948.5 Q342,1071 522,1071 Q634,1071 716.5,1019.5 Q799,968 827,896 L836,896 L836,1056 L1031,1056 L1031,20 Q1031,-88 995.5,-169 Q960,-250 895,-298.5 Q830,-347 745.5,-370.5 Q661,-394 557,-394 Q357,-394 251,-310 Q145,-226 134,-97 L336,-97 Q348,-153 408.5,-188 Q469,-223 565,-223 M580,892 Q458,892 387,809 Q316,726 316,587 L316,495 Q316,358 390,274.5 Q464,191 582,191 Q697,191 763.5,271 Q830,351 830,468 L830,611 Q830,729 761.5,810.5 Q693,892 580,892"/> 
            <glyph glyph-name="Ġ" unicode="&#x120;" horiz-adv-x="1207" d=" M572,1604 Q572,1654 604.5,1687.5 Q637,1721 683,1721 Q732,1721 765,1687.5 Q798,1654 798,1604 Q798,1555 765,1521.5 Q732,1488 683,1488 Q637,1488 604.5,1521.5 Q572,1555 572,1604 M1203,939 L1001,939 Q984,1066 896.5,1133.5 Q809,1201 685,1201 Q530,1201 433.5,1094.5 Q337,988 337,775 L337,597 Q337,394 424.5,278.5 Q512,163 683,163 Q826,163 917,240.5 Q1008,318 1008,437 L1008,547 L679,547 L679,723 L1207,723 L1207,446 Q1207,384 1191,321.5 Q1175,259 1135.5,195 Q1096,131 1038,82 Q980,33 888,2.5 Q796,-28 683,-28 Q501,-28 375,51.5 Q249,131 189.5,269 Q130,407 130,596 L130,777 Q130,1063 281,1227.5 Q432,1392 689,1392 Q808,1392 905,1354.5 Q1002,1317 1064.5,1253.5 Q1127,1190 1162.5,1109.5 Q1198,1029 1203,939"/> 
            <glyph glyph-name="ġ" unicode="&#x121;" horiz-adv-x="1031" d=" M481,1364 Q481,1414 513.5,1447.5 Q546,1481 592,1481 Q641,1481 674,1447.5 Q707,1414 707,1364 Q707,1315 674,1281.5 Q641,1248 592,1248 Q546,1248 513.5,1281.5 Q481,1315 481,1364 M565,-223 Q696,-223 763,-157.5 Q830,-92 830,28 L830,185 L819,185 Q787,113 708,66 Q629,19 523,19 Q343,19 227,141 Q111,263 111,473 L111,616 Q111,826 226.5,948.5 Q342,1071 522,1071 Q634,1071 716.5,1019.5 Q799,968 827,896 L836,896 L836,1056 L1031,1056 L1031,20 Q1031,-88 995.5,-169 Q960,-250 895,-298.5 Q830,-347 745.5,-370.5 Q661,-394 557,-394 Q357,-394 251,-310 Q145,-226 134,-97 L336,-97 Q348,-153 408.5,-188 Q469,-223 565,-223 M580,892 Q458,892 387,809 Q316,726 316,587 L316,495 Q316,358 390,274.5 Q464,191 582,191 Q697,191 763.5,271 Q830,351 830,468 L830,611 Q830,729 761.5,810.5 Q693,892 580,892"/> 
            <glyph glyph-name="Ģ" unicode="&#x122;" horiz-adv-x="1207" d=" M674,-472 L531,-472 L613,-156 L782,-156 M1203,939 L1001,939 Q984,1066 896.5,1133.5 Q809,1201 685,1201 Q530,1201 433.5,1094.5 Q337,988 337,775 L337,597 Q337,394 424.5,278.5 Q512,163 683,163 Q826,163 917,240.5 Q1008,318 1008,437 L1008,547 L679,547 L679,723 L1207,723 L1207,446 Q1207,384 1191,321.5 Q1175,259 1135.5,195 Q1096,131 1038,82 Q980,33 888,2.5 Q796,-28 683,-28 Q501,-28 375,51.5 Q249,131 189.5,269 Q130,407 130,596 L130,777 Q130,1063 281,1227.5 Q432,1392 689,1392 Q808,1392 905,1354.5 Q1002,1317 1064.5,1253.5 Q1127,1190 1162.5,1109.5 Q1198,1029 1203,939"/> 
            <glyph glyph-name="ģ" unicode="&#x123;" horiz-adv-x="1031" d=" M575,1589 L725,1589 L640,1254 L461,1254 M565,-223 Q696,-223 763,-157.5 Q830,-92 830,28 L830,185 L819,185 Q787,113 708,66 Q629,19 523,19 Q343,19 227,141 Q111,263 111,473 L111,616 Q111,826 226.5,948.5 Q342,1071 522,1071 Q634,1071 716.5,1019.5 Q799,968 827,896 L836,896 L836,1056 L1031,1056 L1031,20 Q1031,-88 995.5,-169 Q960,-250 895,-298.5 Q830,-347 745.5,-370.5 Q661,-394 557,-394 Q357,-394 251,-310 Q145,-226 134,-97 L336,-97 Q348,-153 408.5,-188 Q469,-223 565,-223 M580,892 Q458,892 387,809 Q316,726 316,587 L316,495 Q316,358 390,274.5 Q464,191 582,191 Q697,191 763.5,271 Q830,351 830,468 L830,611 Q830,729 761.5,810.5 Q693,892 580,892"/> 
            <glyph glyph-name="Ĥ" unicode="&#x124;" horiz-adv-x="1246" d=" M1246,0 L1040,0 L1040,607 L390,607 L390,0 L184,0 L184,1365 L390,1365 L390,797 L1040,797 L1040,1365 L1246,1365 M783,1743 L1051,1497 L866,1497 L718,1632 L711,1632 L554,1497 L373,1497 L651,1743"/> 
            <glyph glyph-name="ĥ" unicode="&#x125;" horiz-adv-x="1064" d=" M176,0 L176,1467 L377,1467 L377,867 L388,867 Q397,899 418,931 Q439,963 475.5,996.5 Q512,1030 573.5,1051 Q635,1072 711,1072 Q870,1072 967,980 Q1064,888 1064,713 L1064,0 L862,0 L862,649 Q862,767 802,827 Q742,887 639,887 Q515,887 446,804 Q377,721 377,587 L377,0 M342,1845 L610,1599 L425,1599 L277,1734 L270,1734 L113,1599 L-68,1599 L210,1845"/> 
            <glyph glyph-name="Ħ" unicode="&#x126;" horiz-adv-x="1352" d=" M390,774 L1040,774 L1040,999 L390,999 M390,585 L390,0 L184,0 L184,999 L79,999 L79,1149 L184,1149 L184,1365 L390,1365 L390,1149 L1040,1149 L1040,1365 L1246,1365 L1246,1149 L1352,1149 L1352,999 L1246,999 L1246,0 L1040,0 L1040,585"/> 
            <glyph glyph-name="ħ" unicode="&#x127;" horiz-adv-x="1064" d=" M377,587 L377,0 L176,0 L176,1177 L57,1177 L57,1320 L180,1320 L180,1467 L374,1467 L374,1320 L637,1320 L637,1177 L377,1177 L377,867 L388,867 Q397,899 418,931 Q439,963 475.5,996.5 Q512,1030 573.5,1051 Q635,1072 711,1072 Q870,1072 967,980 Q1064,888 1064,713 L1064,0 L862,0 L862,649 Q862,767 802,827 Q742,887 639,887 Q515,887 446,804 Q377,721 377,587"/> 
            </font>
</defs>
</svg>
